M48
;DRILL file {KiCad 5.0.2+dfsg1-1~bpo9+1} date Thu 23 May 2019 13:43:36 BST
;FORMAT={2:4/ absolute / inch / keep zeros}
FMAT,2
INCH,TZ
T1C0.0315
T2C0.0394
%
G90
G05
T1
X054500Y-033500
X054500Y-037500
X053000Y-038500
X053000Y-042500
X054500Y-038500
X054500Y-042500
X044500Y-033500
X044500Y-039500
X045500Y-033500
X045500Y-039500
X046500Y-033500
X046500Y-039500
X047500Y-033500
X047500Y-039500
X048500Y-033500
X048500Y-039500
X049500Y-033500
X049500Y-039500
X050500Y-033500
X050500Y-039500
X051500Y-033500
X051500Y-039500
X039500Y-025500
X039500Y-031500
X040500Y-025500
X040500Y-031500
X041500Y-025500
X041500Y-031500
X042500Y-025500
X042500Y-031500
X043500Y-025500
X043500Y-031500
X044500Y-025500
X044500Y-031500
X045500Y-025500
X045500Y-031500
X046500Y-025500
X046500Y-031500
X047500Y-025500
X047500Y-031500
X048500Y-025500
X048500Y-031500
X049500Y-025500
X049500Y-031500
X050500Y-025500
X050500Y-031500
X051500Y-025500
X051500Y-031500
X052500Y-025500
X052500Y-031500
X053500Y-025500
X053500Y-031500
X040000Y-041500
X041969Y-041500
X053000Y-033500
X053000Y-037500
T2
X043500Y-018500
X044500Y-018500
X045500Y-018500
X046500Y-018500
X047500Y-018500
X048500Y-018500
X049500Y-018500
X050500Y-018500
X056000Y-033500
X056000Y-034500
X056000Y-035500
X056000Y-036500
X056000Y-037500
X056000Y-038500
X038500Y-022000
X038500Y-023000
X039500Y-022000
X039500Y-023000
X040500Y-022000
X040500Y-023000
X054500Y-019500
X054500Y-020500
X054500Y-021500
X055500Y-019500
X055500Y-020500
X055500Y-021500
X047500Y-042000
X048500Y-042000
X049500Y-042000
X050500Y-042000
X040500Y-018500
X041500Y-018500
X052500Y-019500
X052500Y-020500
X052500Y-021500
T0
M30
