G04 #@! TF.GenerationSoftware,KiCad,Pcbnew,5.0.2+dfsg1-1~bpo9+1*
G04 #@! TF.CreationDate,2019-05-23T13:43:39+01:00*
G04 #@! TF.ProjectId,pcb01,70636230-312e-46b6-9963-61645f706362,rev?*
G04 #@! TF.SameCoordinates,Original*
G04 #@! TF.FileFunction,Soldermask,Bot*
G04 #@! TF.FilePolarity,Negative*
%FSLAX46Y46*%
G04 Gerber Fmt 4.6, Leading zero omitted, Abs format (unit mm)*
G04 Created by KiCad (PCBNEW 5.0.2+dfsg1-1~bpo9+1) date Thu 23 May 2019 13:43:39 BST*
%MOMM*%
%LPD*%
G01*
G04 APERTURE LIST*
%ADD10C,0.100000*%
G04 APERTURE END LIST*
D10*
G36*
X143485734Y-108653232D02*
X143695202Y-108739996D01*
X143883723Y-108865962D01*
X144044038Y-109026277D01*
X144170004Y-109214798D01*
X144256768Y-109424266D01*
X144301000Y-109646635D01*
X144301000Y-109873365D01*
X144256768Y-110095734D01*
X144170004Y-110305202D01*
X144044038Y-110493723D01*
X143883723Y-110654038D01*
X143695202Y-110780004D01*
X143485734Y-110866768D01*
X143263365Y-110911000D01*
X143036635Y-110911000D01*
X142814266Y-110866768D01*
X142604798Y-110780004D01*
X142416277Y-110654038D01*
X142255962Y-110493723D01*
X142129996Y-110305202D01*
X142043232Y-110095734D01*
X141999000Y-109873365D01*
X141999000Y-109646635D01*
X142043232Y-109424266D01*
X142129996Y-109214798D01*
X142255962Y-109026277D01*
X142416277Y-108865962D01*
X142604798Y-108739996D01*
X142814266Y-108653232D01*
X143036635Y-108609000D01*
X143263365Y-108609000D01*
X143485734Y-108653232D01*
X143485734Y-108653232D01*
G37*
G36*
X97485734Y-108653232D02*
X97695202Y-108739996D01*
X97883723Y-108865962D01*
X98044038Y-109026277D01*
X98170004Y-109214798D01*
X98256768Y-109424266D01*
X98301000Y-109646635D01*
X98301000Y-109873365D01*
X98256768Y-110095734D01*
X98170004Y-110305202D01*
X98044038Y-110493723D01*
X97883723Y-110654038D01*
X97695202Y-110780004D01*
X97485734Y-110866768D01*
X97263365Y-110911000D01*
X97036635Y-110911000D01*
X96814266Y-110866768D01*
X96604798Y-110780004D01*
X96416277Y-110654038D01*
X96255962Y-110493723D01*
X96129996Y-110305202D01*
X96043232Y-110095734D01*
X95999000Y-109873365D01*
X95999000Y-109646635D01*
X96043232Y-109424266D01*
X96129996Y-109214798D01*
X96255962Y-109026277D01*
X96416277Y-108865962D01*
X96604798Y-108739996D01*
X96814266Y-108653232D01*
X97036635Y-108609000D01*
X97263365Y-108609000D01*
X97485734Y-108653232D01*
X97485734Y-108653232D01*
G37*
G36*
X138596821Y-107111313D02*
X138596824Y-107111314D01*
X138596825Y-107111314D01*
X138757239Y-107159975D01*
X138757241Y-107159976D01*
X138757244Y-107159977D01*
X138905078Y-107238995D01*
X139034659Y-107345341D01*
X139141005Y-107474922D01*
X139220023Y-107622756D01*
X139268687Y-107783179D01*
X139285117Y-107950000D01*
X139268687Y-108116821D01*
X139220023Y-108277244D01*
X139141005Y-108425078D01*
X139034659Y-108554659D01*
X138905078Y-108661005D01*
X138757244Y-108740023D01*
X138757241Y-108740024D01*
X138757239Y-108740025D01*
X138596825Y-108788686D01*
X138596824Y-108788686D01*
X138596821Y-108788687D01*
X138471804Y-108801000D01*
X138388196Y-108801000D01*
X138263179Y-108788687D01*
X138263176Y-108788686D01*
X138263175Y-108788686D01*
X138102761Y-108740025D01*
X138102759Y-108740024D01*
X138102756Y-108740023D01*
X137954922Y-108661005D01*
X137825341Y-108554659D01*
X137718995Y-108425078D01*
X137639977Y-108277244D01*
X137591313Y-108116821D01*
X137574883Y-107950000D01*
X137591313Y-107783179D01*
X137639977Y-107622756D01*
X137718995Y-107474922D01*
X137825341Y-107345341D01*
X137954922Y-107238995D01*
X138102756Y-107159977D01*
X138102759Y-107159976D01*
X138102761Y-107159975D01*
X138263175Y-107111314D01*
X138263176Y-107111314D01*
X138263179Y-107111313D01*
X138388196Y-107099000D01*
X138471804Y-107099000D01*
X138596821Y-107111313D01*
X138596821Y-107111313D01*
G37*
G36*
X134786821Y-107111313D02*
X134786824Y-107111314D01*
X134786825Y-107111314D01*
X134947239Y-107159975D01*
X134947241Y-107159976D01*
X134947244Y-107159977D01*
X135095078Y-107238995D01*
X135224659Y-107345341D01*
X135331005Y-107474922D01*
X135410023Y-107622756D01*
X135458687Y-107783179D01*
X135475117Y-107950000D01*
X135458687Y-108116821D01*
X135410023Y-108277244D01*
X135331005Y-108425078D01*
X135224659Y-108554659D01*
X135095078Y-108661005D01*
X134947244Y-108740023D01*
X134947241Y-108740024D01*
X134947239Y-108740025D01*
X134786825Y-108788686D01*
X134786824Y-108788686D01*
X134786821Y-108788687D01*
X134661804Y-108801000D01*
X134578196Y-108801000D01*
X134453179Y-108788687D01*
X134453176Y-108788686D01*
X134453175Y-108788686D01*
X134292761Y-108740025D01*
X134292759Y-108740024D01*
X134292756Y-108740023D01*
X134144922Y-108661005D01*
X134015341Y-108554659D01*
X133908995Y-108425078D01*
X133829977Y-108277244D01*
X133781313Y-108116821D01*
X133764883Y-107950000D01*
X133781313Y-107783179D01*
X133829977Y-107622756D01*
X133908995Y-107474922D01*
X134015341Y-107345341D01*
X134144922Y-107238995D01*
X134292756Y-107159977D01*
X134292759Y-107159976D01*
X134292761Y-107159975D01*
X134453175Y-107111314D01*
X134453176Y-107111314D01*
X134453179Y-107111313D01*
X134578196Y-107099000D01*
X134661804Y-107099000D01*
X134786821Y-107111313D01*
X134786821Y-107111313D01*
G37*
G36*
X128380443Y-105785519D02*
X128446627Y-105792037D01*
X128559853Y-105826384D01*
X128616467Y-105843557D01*
X128755087Y-105917652D01*
X128772991Y-105927222D01*
X128803769Y-105952481D01*
X128910186Y-106039814D01*
X128993448Y-106141271D01*
X129022778Y-106177009D01*
X129022779Y-106177011D01*
X129106443Y-106333533D01*
X129106443Y-106333534D01*
X129157963Y-106503373D01*
X129175359Y-106680000D01*
X129157963Y-106856627D01*
X129123616Y-106969853D01*
X129106443Y-107026467D01*
X129035080Y-107159975D01*
X129022778Y-107182991D01*
X128993448Y-107218729D01*
X128910186Y-107320186D01*
X128808729Y-107403448D01*
X128772991Y-107432778D01*
X128772989Y-107432779D01*
X128616467Y-107516443D01*
X128559853Y-107533616D01*
X128446627Y-107567963D01*
X128380443Y-107574481D01*
X128314260Y-107581000D01*
X128225740Y-107581000D01*
X128159557Y-107574481D01*
X128093373Y-107567963D01*
X127980147Y-107533616D01*
X127923533Y-107516443D01*
X127767011Y-107432779D01*
X127767009Y-107432778D01*
X127731271Y-107403448D01*
X127629814Y-107320186D01*
X127546552Y-107218729D01*
X127517222Y-107182991D01*
X127504920Y-107159975D01*
X127433557Y-107026467D01*
X127416384Y-106969853D01*
X127382037Y-106856627D01*
X127364641Y-106680000D01*
X127382037Y-106503373D01*
X127433557Y-106333534D01*
X127433557Y-106333533D01*
X127517221Y-106177011D01*
X127517222Y-106177009D01*
X127546552Y-106141271D01*
X127629814Y-106039814D01*
X127736231Y-105952481D01*
X127767009Y-105927222D01*
X127784913Y-105917652D01*
X127923533Y-105843557D01*
X127980147Y-105826384D01*
X128093373Y-105792037D01*
X128159557Y-105785519D01*
X128225740Y-105779000D01*
X128314260Y-105779000D01*
X128380443Y-105785519D01*
X128380443Y-105785519D01*
G37*
G36*
X125840443Y-105785519D02*
X125906627Y-105792037D01*
X126019853Y-105826384D01*
X126076467Y-105843557D01*
X126215087Y-105917652D01*
X126232991Y-105927222D01*
X126263769Y-105952481D01*
X126370186Y-106039814D01*
X126453448Y-106141271D01*
X126482778Y-106177009D01*
X126482779Y-106177011D01*
X126566443Y-106333533D01*
X126566443Y-106333534D01*
X126617963Y-106503373D01*
X126635359Y-106680000D01*
X126617963Y-106856627D01*
X126583616Y-106969853D01*
X126566443Y-107026467D01*
X126495080Y-107159975D01*
X126482778Y-107182991D01*
X126453448Y-107218729D01*
X126370186Y-107320186D01*
X126268729Y-107403448D01*
X126232991Y-107432778D01*
X126232989Y-107432779D01*
X126076467Y-107516443D01*
X126019853Y-107533616D01*
X125906627Y-107567963D01*
X125840443Y-107574481D01*
X125774260Y-107581000D01*
X125685740Y-107581000D01*
X125619557Y-107574481D01*
X125553373Y-107567963D01*
X125440147Y-107533616D01*
X125383533Y-107516443D01*
X125227011Y-107432779D01*
X125227009Y-107432778D01*
X125191271Y-107403448D01*
X125089814Y-107320186D01*
X125006552Y-107218729D01*
X124977222Y-107182991D01*
X124964920Y-107159975D01*
X124893557Y-107026467D01*
X124876384Y-106969853D01*
X124842037Y-106856627D01*
X124824641Y-106680000D01*
X124842037Y-106503373D01*
X124893557Y-106333534D01*
X124893557Y-106333533D01*
X124977221Y-106177011D01*
X124977222Y-106177009D01*
X125006552Y-106141271D01*
X125089814Y-106039814D01*
X125196231Y-105952481D01*
X125227009Y-105927222D01*
X125244913Y-105917652D01*
X125383533Y-105843557D01*
X125440147Y-105826384D01*
X125553373Y-105792037D01*
X125619557Y-105785519D01*
X125685740Y-105779000D01*
X125774260Y-105779000D01*
X125840443Y-105785519D01*
X125840443Y-105785519D01*
G37*
G36*
X123300443Y-105785519D02*
X123366627Y-105792037D01*
X123479853Y-105826384D01*
X123536467Y-105843557D01*
X123675087Y-105917652D01*
X123692991Y-105927222D01*
X123723769Y-105952481D01*
X123830186Y-106039814D01*
X123913448Y-106141271D01*
X123942778Y-106177009D01*
X123942779Y-106177011D01*
X124026443Y-106333533D01*
X124026443Y-106333534D01*
X124077963Y-106503373D01*
X124095359Y-106680000D01*
X124077963Y-106856627D01*
X124043616Y-106969853D01*
X124026443Y-107026467D01*
X123955080Y-107159975D01*
X123942778Y-107182991D01*
X123913448Y-107218729D01*
X123830186Y-107320186D01*
X123728729Y-107403448D01*
X123692991Y-107432778D01*
X123692989Y-107432779D01*
X123536467Y-107516443D01*
X123479853Y-107533616D01*
X123366627Y-107567963D01*
X123300443Y-107574481D01*
X123234260Y-107581000D01*
X123145740Y-107581000D01*
X123079557Y-107574481D01*
X123013373Y-107567963D01*
X122900147Y-107533616D01*
X122843533Y-107516443D01*
X122687011Y-107432779D01*
X122687009Y-107432778D01*
X122651271Y-107403448D01*
X122549814Y-107320186D01*
X122466552Y-107218729D01*
X122437222Y-107182991D01*
X122424920Y-107159975D01*
X122353557Y-107026467D01*
X122336384Y-106969853D01*
X122302037Y-106856627D01*
X122284641Y-106680000D01*
X122302037Y-106503373D01*
X122353557Y-106333534D01*
X122353557Y-106333533D01*
X122437221Y-106177011D01*
X122437222Y-106177009D01*
X122466552Y-106141271D01*
X122549814Y-106039814D01*
X122656231Y-105952481D01*
X122687009Y-105927222D01*
X122704913Y-105917652D01*
X122843533Y-105843557D01*
X122900147Y-105826384D01*
X123013373Y-105792037D01*
X123079557Y-105785519D01*
X123145740Y-105779000D01*
X123234260Y-105779000D01*
X123300443Y-105785519D01*
X123300443Y-105785519D01*
G37*
G36*
X121551000Y-107581000D02*
X119749000Y-107581000D01*
X119749000Y-105779000D01*
X121551000Y-105779000D01*
X121551000Y-107581000D01*
X121551000Y-107581000D01*
G37*
G36*
X106848228Y-104591703D02*
X107003100Y-104655853D01*
X107142481Y-104748985D01*
X107261015Y-104867519D01*
X107354147Y-105006900D01*
X107418297Y-105161772D01*
X107451000Y-105326184D01*
X107451000Y-105493816D01*
X107418297Y-105658228D01*
X107354147Y-105813100D01*
X107261015Y-105952481D01*
X107142481Y-106071015D01*
X107003100Y-106164147D01*
X106848228Y-106228297D01*
X106683816Y-106261000D01*
X106516184Y-106261000D01*
X106351772Y-106228297D01*
X106196900Y-106164147D01*
X106057519Y-106071015D01*
X105938985Y-105952481D01*
X105845853Y-105813100D01*
X105781703Y-105658228D01*
X105749000Y-105493816D01*
X105749000Y-105326184D01*
X105781703Y-105161772D01*
X105845853Y-105006900D01*
X105938985Y-104867519D01*
X106057519Y-104748985D01*
X106196900Y-104655853D01*
X106351772Y-104591703D01*
X106516184Y-104559000D01*
X106683816Y-104559000D01*
X106848228Y-104591703D01*
X106848228Y-104591703D01*
G37*
G36*
X101848228Y-104591703D02*
X102003100Y-104655853D01*
X102142481Y-104748985D01*
X102261015Y-104867519D01*
X102354147Y-105006900D01*
X102418297Y-105161772D01*
X102451000Y-105326184D01*
X102451000Y-105493816D01*
X102418297Y-105658228D01*
X102354147Y-105813100D01*
X102261015Y-105952481D01*
X102142481Y-106071015D01*
X102003100Y-106164147D01*
X101848228Y-106228297D01*
X101683816Y-106261000D01*
X101516184Y-106261000D01*
X101351772Y-106228297D01*
X101196900Y-106164147D01*
X101057519Y-106071015D01*
X100938985Y-105952481D01*
X100845853Y-105813100D01*
X100781703Y-105658228D01*
X100749000Y-105493816D01*
X100749000Y-105326184D01*
X100781703Y-105161772D01*
X100845853Y-105006900D01*
X100938985Y-104867519D01*
X101057519Y-104748985D01*
X101196900Y-104655853D01*
X101351772Y-104591703D01*
X101516184Y-104559000D01*
X101683816Y-104559000D01*
X101848228Y-104591703D01*
X101848228Y-104591703D01*
G37*
G36*
X118276821Y-99491313D02*
X118276824Y-99491314D01*
X118276825Y-99491314D01*
X118437239Y-99539975D01*
X118437241Y-99539976D01*
X118437244Y-99539977D01*
X118585078Y-99618995D01*
X118714659Y-99725341D01*
X118821005Y-99854922D01*
X118900023Y-100002756D01*
X118948687Y-100163179D01*
X118965117Y-100330000D01*
X118948687Y-100496821D01*
X118900023Y-100657244D01*
X118821005Y-100805078D01*
X118714659Y-100934659D01*
X118585078Y-101041005D01*
X118437244Y-101120023D01*
X118437241Y-101120024D01*
X118437239Y-101120025D01*
X118276825Y-101168686D01*
X118276824Y-101168686D01*
X118276821Y-101168687D01*
X118151804Y-101181000D01*
X118068196Y-101181000D01*
X117943179Y-101168687D01*
X117943176Y-101168686D01*
X117943175Y-101168686D01*
X117782761Y-101120025D01*
X117782759Y-101120024D01*
X117782756Y-101120023D01*
X117634922Y-101041005D01*
X117505341Y-100934659D01*
X117398995Y-100805078D01*
X117319977Y-100657244D01*
X117271313Y-100496821D01*
X117254883Y-100330000D01*
X117271313Y-100163179D01*
X117319977Y-100002756D01*
X117398995Y-99854922D01*
X117505341Y-99725341D01*
X117634922Y-99618995D01*
X117782756Y-99539977D01*
X117782759Y-99539976D01*
X117782761Y-99539975D01*
X117943175Y-99491314D01*
X117943176Y-99491314D01*
X117943179Y-99491313D01*
X118068196Y-99479000D01*
X118151804Y-99479000D01*
X118276821Y-99491313D01*
X118276821Y-99491313D01*
G37*
G36*
X113881000Y-101181000D02*
X112179000Y-101181000D01*
X112179000Y-99479000D01*
X113881000Y-99479000D01*
X113881000Y-101181000D01*
X113881000Y-101181000D01*
G37*
G36*
X130976821Y-99491313D02*
X130976824Y-99491314D01*
X130976825Y-99491314D01*
X131137239Y-99539975D01*
X131137241Y-99539976D01*
X131137244Y-99539977D01*
X131285078Y-99618995D01*
X131414659Y-99725341D01*
X131521005Y-99854922D01*
X131600023Y-100002756D01*
X131648687Y-100163179D01*
X131665117Y-100330000D01*
X131648687Y-100496821D01*
X131600023Y-100657244D01*
X131521005Y-100805078D01*
X131414659Y-100934659D01*
X131285078Y-101041005D01*
X131137244Y-101120023D01*
X131137241Y-101120024D01*
X131137239Y-101120025D01*
X130976825Y-101168686D01*
X130976824Y-101168686D01*
X130976821Y-101168687D01*
X130851804Y-101181000D01*
X130768196Y-101181000D01*
X130643179Y-101168687D01*
X130643176Y-101168686D01*
X130643175Y-101168686D01*
X130482761Y-101120025D01*
X130482759Y-101120024D01*
X130482756Y-101120023D01*
X130334922Y-101041005D01*
X130205341Y-100934659D01*
X130098995Y-100805078D01*
X130019977Y-100657244D01*
X129971313Y-100496821D01*
X129954883Y-100330000D01*
X129971313Y-100163179D01*
X130019977Y-100002756D01*
X130098995Y-99854922D01*
X130205341Y-99725341D01*
X130334922Y-99618995D01*
X130482756Y-99539977D01*
X130482759Y-99539976D01*
X130482761Y-99539975D01*
X130643175Y-99491314D01*
X130643176Y-99491314D01*
X130643179Y-99491313D01*
X130768196Y-99479000D01*
X130851804Y-99479000D01*
X130976821Y-99491313D01*
X130976821Y-99491313D01*
G37*
G36*
X128436821Y-99491313D02*
X128436824Y-99491314D01*
X128436825Y-99491314D01*
X128597239Y-99539975D01*
X128597241Y-99539976D01*
X128597244Y-99539977D01*
X128745078Y-99618995D01*
X128874659Y-99725341D01*
X128981005Y-99854922D01*
X129060023Y-100002756D01*
X129108687Y-100163179D01*
X129125117Y-100330000D01*
X129108687Y-100496821D01*
X129060023Y-100657244D01*
X128981005Y-100805078D01*
X128874659Y-100934659D01*
X128745078Y-101041005D01*
X128597244Y-101120023D01*
X128597241Y-101120024D01*
X128597239Y-101120025D01*
X128436825Y-101168686D01*
X128436824Y-101168686D01*
X128436821Y-101168687D01*
X128311804Y-101181000D01*
X128228196Y-101181000D01*
X128103179Y-101168687D01*
X128103176Y-101168686D01*
X128103175Y-101168686D01*
X127942761Y-101120025D01*
X127942759Y-101120024D01*
X127942756Y-101120023D01*
X127794922Y-101041005D01*
X127665341Y-100934659D01*
X127558995Y-100805078D01*
X127479977Y-100657244D01*
X127431313Y-100496821D01*
X127414883Y-100330000D01*
X127431313Y-100163179D01*
X127479977Y-100002756D01*
X127558995Y-99854922D01*
X127665341Y-99725341D01*
X127794922Y-99618995D01*
X127942756Y-99539977D01*
X127942759Y-99539976D01*
X127942761Y-99539975D01*
X128103175Y-99491314D01*
X128103176Y-99491314D01*
X128103179Y-99491313D01*
X128228196Y-99479000D01*
X128311804Y-99479000D01*
X128436821Y-99491313D01*
X128436821Y-99491313D01*
G37*
G36*
X123356821Y-99491313D02*
X123356824Y-99491314D01*
X123356825Y-99491314D01*
X123517239Y-99539975D01*
X123517241Y-99539976D01*
X123517244Y-99539977D01*
X123665078Y-99618995D01*
X123794659Y-99725341D01*
X123901005Y-99854922D01*
X123980023Y-100002756D01*
X124028687Y-100163179D01*
X124045117Y-100330000D01*
X124028687Y-100496821D01*
X123980023Y-100657244D01*
X123901005Y-100805078D01*
X123794659Y-100934659D01*
X123665078Y-101041005D01*
X123517244Y-101120023D01*
X123517241Y-101120024D01*
X123517239Y-101120025D01*
X123356825Y-101168686D01*
X123356824Y-101168686D01*
X123356821Y-101168687D01*
X123231804Y-101181000D01*
X123148196Y-101181000D01*
X123023179Y-101168687D01*
X123023176Y-101168686D01*
X123023175Y-101168686D01*
X122862761Y-101120025D01*
X122862759Y-101120024D01*
X122862756Y-101120023D01*
X122714922Y-101041005D01*
X122585341Y-100934659D01*
X122478995Y-100805078D01*
X122399977Y-100657244D01*
X122351313Y-100496821D01*
X122334883Y-100330000D01*
X122351313Y-100163179D01*
X122399977Y-100002756D01*
X122478995Y-99854922D01*
X122585341Y-99725341D01*
X122714922Y-99618995D01*
X122862756Y-99539977D01*
X122862759Y-99539976D01*
X122862761Y-99539975D01*
X123023175Y-99491314D01*
X123023176Y-99491314D01*
X123023179Y-99491313D01*
X123148196Y-99479000D01*
X123231804Y-99479000D01*
X123356821Y-99491313D01*
X123356821Y-99491313D01*
G37*
G36*
X120816821Y-99491313D02*
X120816824Y-99491314D01*
X120816825Y-99491314D01*
X120977239Y-99539975D01*
X120977241Y-99539976D01*
X120977244Y-99539977D01*
X121125078Y-99618995D01*
X121254659Y-99725341D01*
X121361005Y-99854922D01*
X121440023Y-100002756D01*
X121488687Y-100163179D01*
X121505117Y-100330000D01*
X121488687Y-100496821D01*
X121440023Y-100657244D01*
X121361005Y-100805078D01*
X121254659Y-100934659D01*
X121125078Y-101041005D01*
X120977244Y-101120023D01*
X120977241Y-101120024D01*
X120977239Y-101120025D01*
X120816825Y-101168686D01*
X120816824Y-101168686D01*
X120816821Y-101168687D01*
X120691804Y-101181000D01*
X120608196Y-101181000D01*
X120483179Y-101168687D01*
X120483176Y-101168686D01*
X120483175Y-101168686D01*
X120322761Y-101120025D01*
X120322759Y-101120024D01*
X120322756Y-101120023D01*
X120174922Y-101041005D01*
X120045341Y-100934659D01*
X119938995Y-100805078D01*
X119859977Y-100657244D01*
X119811313Y-100496821D01*
X119794883Y-100330000D01*
X119811313Y-100163179D01*
X119859977Y-100002756D01*
X119938995Y-99854922D01*
X120045341Y-99725341D01*
X120174922Y-99618995D01*
X120322756Y-99539977D01*
X120322759Y-99539976D01*
X120322761Y-99539975D01*
X120483175Y-99491314D01*
X120483176Y-99491314D01*
X120483179Y-99491313D01*
X120608196Y-99479000D01*
X120691804Y-99479000D01*
X120816821Y-99491313D01*
X120816821Y-99491313D01*
G37*
G36*
X115736821Y-99491313D02*
X115736824Y-99491314D01*
X115736825Y-99491314D01*
X115897239Y-99539975D01*
X115897241Y-99539976D01*
X115897244Y-99539977D01*
X116045078Y-99618995D01*
X116174659Y-99725341D01*
X116281005Y-99854922D01*
X116360023Y-100002756D01*
X116408687Y-100163179D01*
X116425117Y-100330000D01*
X116408687Y-100496821D01*
X116360023Y-100657244D01*
X116281005Y-100805078D01*
X116174659Y-100934659D01*
X116045078Y-101041005D01*
X115897244Y-101120023D01*
X115897241Y-101120024D01*
X115897239Y-101120025D01*
X115736825Y-101168686D01*
X115736824Y-101168686D01*
X115736821Y-101168687D01*
X115611804Y-101181000D01*
X115528196Y-101181000D01*
X115403179Y-101168687D01*
X115403176Y-101168686D01*
X115403175Y-101168686D01*
X115242761Y-101120025D01*
X115242759Y-101120024D01*
X115242756Y-101120023D01*
X115094922Y-101041005D01*
X114965341Y-100934659D01*
X114858995Y-100805078D01*
X114779977Y-100657244D01*
X114731313Y-100496821D01*
X114714883Y-100330000D01*
X114731313Y-100163179D01*
X114779977Y-100002756D01*
X114858995Y-99854922D01*
X114965341Y-99725341D01*
X115094922Y-99618995D01*
X115242756Y-99539977D01*
X115242759Y-99539976D01*
X115242761Y-99539975D01*
X115403175Y-99491314D01*
X115403176Y-99491314D01*
X115403179Y-99491313D01*
X115528196Y-99479000D01*
X115611804Y-99479000D01*
X115736821Y-99491313D01*
X115736821Y-99491313D01*
G37*
G36*
X125896821Y-99491313D02*
X125896824Y-99491314D01*
X125896825Y-99491314D01*
X126057239Y-99539975D01*
X126057241Y-99539976D01*
X126057244Y-99539977D01*
X126205078Y-99618995D01*
X126334659Y-99725341D01*
X126441005Y-99854922D01*
X126520023Y-100002756D01*
X126568687Y-100163179D01*
X126585117Y-100330000D01*
X126568687Y-100496821D01*
X126520023Y-100657244D01*
X126441005Y-100805078D01*
X126334659Y-100934659D01*
X126205078Y-101041005D01*
X126057244Y-101120023D01*
X126057241Y-101120024D01*
X126057239Y-101120025D01*
X125896825Y-101168686D01*
X125896824Y-101168686D01*
X125896821Y-101168687D01*
X125771804Y-101181000D01*
X125688196Y-101181000D01*
X125563179Y-101168687D01*
X125563176Y-101168686D01*
X125563175Y-101168686D01*
X125402761Y-101120025D01*
X125402759Y-101120024D01*
X125402756Y-101120023D01*
X125254922Y-101041005D01*
X125125341Y-100934659D01*
X125018995Y-100805078D01*
X124939977Y-100657244D01*
X124891313Y-100496821D01*
X124874883Y-100330000D01*
X124891313Y-100163179D01*
X124939977Y-100002756D01*
X125018995Y-99854922D01*
X125125341Y-99725341D01*
X125254922Y-99618995D01*
X125402756Y-99539977D01*
X125402759Y-99539976D01*
X125402761Y-99539975D01*
X125563175Y-99491314D01*
X125563176Y-99491314D01*
X125563179Y-99491313D01*
X125688196Y-99479000D01*
X125771804Y-99479000D01*
X125896821Y-99491313D01*
X125896821Y-99491313D01*
G37*
G36*
X142350442Y-96895518D02*
X142416627Y-96902037D01*
X142529853Y-96936384D01*
X142586467Y-96953557D01*
X142725087Y-97027652D01*
X142742991Y-97037222D01*
X142778729Y-97066552D01*
X142880186Y-97149814D01*
X142960369Y-97247519D01*
X142992778Y-97287009D01*
X142992779Y-97287011D01*
X143076443Y-97443533D01*
X143076443Y-97443534D01*
X143127963Y-97613373D01*
X143145359Y-97790000D01*
X143127963Y-97966627D01*
X143106243Y-98038228D01*
X143076443Y-98136467D01*
X143002348Y-98275087D01*
X142992778Y-98292991D01*
X142963448Y-98328729D01*
X142880186Y-98430186D01*
X142778729Y-98513448D01*
X142742991Y-98542778D01*
X142742989Y-98542779D01*
X142586467Y-98626443D01*
X142538478Y-98641000D01*
X142416627Y-98677963D01*
X142350442Y-98684482D01*
X142284260Y-98691000D01*
X142195740Y-98691000D01*
X142129558Y-98684482D01*
X142063373Y-98677963D01*
X141941522Y-98641000D01*
X141893533Y-98626443D01*
X141737011Y-98542779D01*
X141737009Y-98542778D01*
X141701271Y-98513448D01*
X141599814Y-98430186D01*
X141516552Y-98328729D01*
X141487222Y-98292991D01*
X141477652Y-98275087D01*
X141403557Y-98136467D01*
X141373757Y-98038228D01*
X141352037Y-97966627D01*
X141334641Y-97790000D01*
X141352037Y-97613373D01*
X141403557Y-97443534D01*
X141403557Y-97443533D01*
X141487221Y-97287011D01*
X141487222Y-97287009D01*
X141519631Y-97247519D01*
X141599814Y-97149814D01*
X141701271Y-97066552D01*
X141737009Y-97037222D01*
X141754913Y-97027652D01*
X141893533Y-96953557D01*
X141950147Y-96936384D01*
X142063373Y-96902037D01*
X142129558Y-96895518D01*
X142195740Y-96889000D01*
X142284260Y-96889000D01*
X142350442Y-96895518D01*
X142350442Y-96895518D01*
G37*
G36*
X138678228Y-96971703D02*
X138833100Y-97035853D01*
X138972481Y-97128985D01*
X139091015Y-97247519D01*
X139184147Y-97386900D01*
X139248297Y-97541772D01*
X139281000Y-97706184D01*
X139281000Y-97873816D01*
X139248297Y-98038228D01*
X139184147Y-98193100D01*
X139091015Y-98332481D01*
X138972481Y-98451015D01*
X138833100Y-98544147D01*
X138678228Y-98608297D01*
X138513816Y-98641000D01*
X138346184Y-98641000D01*
X138181772Y-98608297D01*
X138026900Y-98544147D01*
X137887519Y-98451015D01*
X137768985Y-98332481D01*
X137675853Y-98193100D01*
X137611703Y-98038228D01*
X137579000Y-97873816D01*
X137579000Y-97706184D01*
X137611703Y-97541772D01*
X137675853Y-97386900D01*
X137768985Y-97247519D01*
X137887519Y-97128985D01*
X138026900Y-97035853D01*
X138181772Y-96971703D01*
X138346184Y-96939000D01*
X138513816Y-96939000D01*
X138678228Y-96971703D01*
X138678228Y-96971703D01*
G37*
G36*
X134868228Y-96971703D02*
X135023100Y-97035853D01*
X135162481Y-97128985D01*
X135281015Y-97247519D01*
X135374147Y-97386900D01*
X135438297Y-97541772D01*
X135471000Y-97706184D01*
X135471000Y-97873816D01*
X135438297Y-98038228D01*
X135374147Y-98193100D01*
X135281015Y-98332481D01*
X135162481Y-98451015D01*
X135023100Y-98544147D01*
X134868228Y-98608297D01*
X134703816Y-98641000D01*
X134536184Y-98641000D01*
X134371772Y-98608297D01*
X134216900Y-98544147D01*
X134077519Y-98451015D01*
X133958985Y-98332481D01*
X133865853Y-98193100D01*
X133801703Y-98038228D01*
X133769000Y-97873816D01*
X133769000Y-97706184D01*
X133801703Y-97541772D01*
X133865853Y-97386900D01*
X133958985Y-97247519D01*
X134077519Y-97128985D01*
X134216900Y-97035853D01*
X134371772Y-96971703D01*
X134536184Y-96939000D01*
X134703816Y-96939000D01*
X134868228Y-96971703D01*
X134868228Y-96971703D01*
G37*
G36*
X142350442Y-94355518D02*
X142416627Y-94362037D01*
X142529853Y-94396384D01*
X142586467Y-94413557D01*
X142673311Y-94459977D01*
X142742991Y-94497222D01*
X142778729Y-94526552D01*
X142880186Y-94609814D01*
X142963448Y-94711271D01*
X142992778Y-94747009D01*
X142992779Y-94747011D01*
X143076443Y-94903533D01*
X143093616Y-94960147D01*
X143127963Y-95073373D01*
X143145359Y-95250000D01*
X143127963Y-95426627D01*
X143093616Y-95539853D01*
X143076443Y-95596467D01*
X143007698Y-95725078D01*
X142992778Y-95752991D01*
X142963448Y-95788729D01*
X142880186Y-95890186D01*
X142778729Y-95973448D01*
X142742991Y-96002778D01*
X142742989Y-96002779D01*
X142586467Y-96086443D01*
X142579069Y-96088687D01*
X142416627Y-96137963D01*
X142350443Y-96144481D01*
X142284260Y-96151000D01*
X142195740Y-96151000D01*
X142129558Y-96144482D01*
X142063373Y-96137963D01*
X141900931Y-96088687D01*
X141893533Y-96086443D01*
X141737011Y-96002779D01*
X141737009Y-96002778D01*
X141701271Y-95973448D01*
X141599814Y-95890186D01*
X141516552Y-95788729D01*
X141487222Y-95752991D01*
X141472302Y-95725078D01*
X141403557Y-95596467D01*
X141386384Y-95539853D01*
X141352037Y-95426627D01*
X141334641Y-95250000D01*
X141352037Y-95073373D01*
X141386384Y-94960147D01*
X141403557Y-94903533D01*
X141487221Y-94747011D01*
X141487222Y-94747009D01*
X141516552Y-94711271D01*
X141599814Y-94609814D01*
X141701271Y-94526552D01*
X141737009Y-94497222D01*
X141806689Y-94459977D01*
X141893533Y-94413557D01*
X141950147Y-94396384D01*
X142063373Y-94362037D01*
X142129557Y-94355519D01*
X142195740Y-94349000D01*
X142284260Y-94349000D01*
X142350442Y-94355518D01*
X142350442Y-94355518D01*
G37*
G36*
X138596821Y-94411313D02*
X138596824Y-94411314D01*
X138596825Y-94411314D01*
X138757239Y-94459975D01*
X138757241Y-94459976D01*
X138757244Y-94459977D01*
X138905078Y-94538995D01*
X139034659Y-94645341D01*
X139141005Y-94774922D01*
X139220023Y-94922756D01*
X139220024Y-94922759D01*
X139220025Y-94922761D01*
X139265713Y-95073375D01*
X139268687Y-95083179D01*
X139285117Y-95250000D01*
X139268687Y-95416821D01*
X139268686Y-95416824D01*
X139268686Y-95416825D01*
X139265713Y-95426627D01*
X139220023Y-95577244D01*
X139141005Y-95725078D01*
X139034659Y-95854659D01*
X138905078Y-95961005D01*
X138757244Y-96040023D01*
X138757241Y-96040024D01*
X138757239Y-96040025D01*
X138596825Y-96088686D01*
X138596824Y-96088686D01*
X138596821Y-96088687D01*
X138471804Y-96101000D01*
X138388196Y-96101000D01*
X138263179Y-96088687D01*
X138263176Y-96088686D01*
X138263175Y-96088686D01*
X138102761Y-96040025D01*
X138102759Y-96040024D01*
X138102756Y-96040023D01*
X137954922Y-95961005D01*
X137825341Y-95854659D01*
X137718995Y-95725078D01*
X137639977Y-95577244D01*
X137594288Y-95426627D01*
X137591314Y-95416825D01*
X137591314Y-95416824D01*
X137591313Y-95416821D01*
X137574883Y-95250000D01*
X137591313Y-95083179D01*
X137594287Y-95073375D01*
X137639975Y-94922761D01*
X137639976Y-94922759D01*
X137639977Y-94922756D01*
X137718995Y-94774922D01*
X137825341Y-94645341D01*
X137954922Y-94538995D01*
X138102756Y-94459977D01*
X138102759Y-94459976D01*
X138102761Y-94459975D01*
X138263175Y-94411314D01*
X138263176Y-94411314D01*
X138263179Y-94411313D01*
X138388196Y-94399000D01*
X138471804Y-94399000D01*
X138596821Y-94411313D01*
X138596821Y-94411313D01*
G37*
G36*
X134786821Y-94411313D02*
X134786824Y-94411314D01*
X134786825Y-94411314D01*
X134947239Y-94459975D01*
X134947241Y-94459976D01*
X134947244Y-94459977D01*
X135095078Y-94538995D01*
X135224659Y-94645341D01*
X135331005Y-94774922D01*
X135410023Y-94922756D01*
X135410024Y-94922759D01*
X135410025Y-94922761D01*
X135455713Y-95073375D01*
X135458687Y-95083179D01*
X135475117Y-95250000D01*
X135458687Y-95416821D01*
X135458686Y-95416824D01*
X135458686Y-95416825D01*
X135455713Y-95426627D01*
X135410023Y-95577244D01*
X135331005Y-95725078D01*
X135224659Y-95854659D01*
X135095078Y-95961005D01*
X134947244Y-96040023D01*
X134947241Y-96040024D01*
X134947239Y-96040025D01*
X134786825Y-96088686D01*
X134786824Y-96088686D01*
X134786821Y-96088687D01*
X134661804Y-96101000D01*
X134578196Y-96101000D01*
X134453179Y-96088687D01*
X134453176Y-96088686D01*
X134453175Y-96088686D01*
X134292761Y-96040025D01*
X134292759Y-96040024D01*
X134292756Y-96040023D01*
X134144922Y-95961005D01*
X134015341Y-95854659D01*
X133908995Y-95725078D01*
X133829977Y-95577244D01*
X133784288Y-95426627D01*
X133781314Y-95416825D01*
X133781314Y-95416824D01*
X133781313Y-95416821D01*
X133764883Y-95250000D01*
X133781313Y-95083179D01*
X133784287Y-95073375D01*
X133829975Y-94922761D01*
X133829976Y-94922759D01*
X133829977Y-94922756D01*
X133908995Y-94774922D01*
X134015341Y-94645341D01*
X134144922Y-94538995D01*
X134292756Y-94459977D01*
X134292759Y-94459976D01*
X134292761Y-94459975D01*
X134453175Y-94411314D01*
X134453176Y-94411314D01*
X134453179Y-94411313D01*
X134578196Y-94399000D01*
X134661804Y-94399000D01*
X134786821Y-94411313D01*
X134786821Y-94411313D01*
G37*
G36*
X142350442Y-91815518D02*
X142416627Y-91822037D01*
X142529853Y-91856384D01*
X142586467Y-91873557D01*
X142725087Y-91947652D01*
X142742991Y-91957222D01*
X142778729Y-91986552D01*
X142880186Y-92069814D01*
X142963448Y-92171271D01*
X142992778Y-92207009D01*
X142992779Y-92207011D01*
X143076443Y-92363533D01*
X143076443Y-92363534D01*
X143127963Y-92533373D01*
X143145359Y-92710000D01*
X143127963Y-92886627D01*
X143093616Y-92999853D01*
X143076443Y-93056467D01*
X143002348Y-93195087D01*
X142992778Y-93212991D01*
X142963448Y-93248729D01*
X142880186Y-93350186D01*
X142778729Y-93433448D01*
X142742991Y-93462778D01*
X142742989Y-93462779D01*
X142586467Y-93546443D01*
X142529853Y-93563616D01*
X142416627Y-93597963D01*
X142350442Y-93604482D01*
X142284260Y-93611000D01*
X142195740Y-93611000D01*
X142129557Y-93604481D01*
X142063373Y-93597963D01*
X141950147Y-93563616D01*
X141893533Y-93546443D01*
X141737011Y-93462779D01*
X141737009Y-93462778D01*
X141701271Y-93433448D01*
X141599814Y-93350186D01*
X141516552Y-93248729D01*
X141487222Y-93212991D01*
X141477652Y-93195087D01*
X141403557Y-93056467D01*
X141386384Y-92999853D01*
X141352037Y-92886627D01*
X141334641Y-92710000D01*
X141352037Y-92533373D01*
X141403557Y-92363534D01*
X141403557Y-92363533D01*
X141487221Y-92207011D01*
X141487222Y-92207009D01*
X141516552Y-92171271D01*
X141599814Y-92069814D01*
X141701271Y-91986552D01*
X141737009Y-91957222D01*
X141754913Y-91947652D01*
X141893533Y-91873557D01*
X141950147Y-91856384D01*
X142063373Y-91822037D01*
X142129558Y-91815518D01*
X142195740Y-91809000D01*
X142284260Y-91809000D01*
X142350442Y-91815518D01*
X142350442Y-91815518D01*
G37*
G36*
X142350443Y-89275519D02*
X142416627Y-89282037D01*
X142529853Y-89316384D01*
X142586467Y-89333557D01*
X142725087Y-89407652D01*
X142742991Y-89417222D01*
X142778729Y-89446552D01*
X142880186Y-89529814D01*
X142963448Y-89631271D01*
X142992778Y-89667009D01*
X142992779Y-89667011D01*
X143076443Y-89823533D01*
X143076443Y-89823534D01*
X143127963Y-89993373D01*
X143145359Y-90170000D01*
X143127963Y-90346627D01*
X143093616Y-90459853D01*
X143076443Y-90516467D01*
X143002348Y-90655087D01*
X142992778Y-90672991D01*
X142963448Y-90708729D01*
X142880186Y-90810186D01*
X142778729Y-90893448D01*
X142742991Y-90922778D01*
X142742989Y-90922779D01*
X142586467Y-91006443D01*
X142529853Y-91023616D01*
X142416627Y-91057963D01*
X142350442Y-91064482D01*
X142284260Y-91071000D01*
X142195740Y-91071000D01*
X142129558Y-91064482D01*
X142063373Y-91057963D01*
X141950147Y-91023616D01*
X141893533Y-91006443D01*
X141737011Y-90922779D01*
X141737009Y-90922778D01*
X141701271Y-90893448D01*
X141599814Y-90810186D01*
X141516552Y-90708729D01*
X141487222Y-90672991D01*
X141477652Y-90655087D01*
X141403557Y-90516467D01*
X141386384Y-90459853D01*
X141352037Y-90346627D01*
X141334641Y-90170000D01*
X141352037Y-89993373D01*
X141403557Y-89823534D01*
X141403557Y-89823533D01*
X141487221Y-89667011D01*
X141487222Y-89667009D01*
X141516552Y-89631271D01*
X141599814Y-89529814D01*
X141701271Y-89446552D01*
X141737009Y-89417222D01*
X141754913Y-89407652D01*
X141893533Y-89333557D01*
X141950147Y-89316384D01*
X142063373Y-89282037D01*
X142129557Y-89275519D01*
X142195740Y-89269000D01*
X142284260Y-89269000D01*
X142350443Y-89275519D01*
X142350443Y-89275519D01*
G37*
G36*
X142350442Y-86735518D02*
X142416627Y-86742037D01*
X142529853Y-86776384D01*
X142586467Y-86793557D01*
X142725087Y-86867652D01*
X142742991Y-86877222D01*
X142778729Y-86906552D01*
X142880186Y-86989814D01*
X142963448Y-87091271D01*
X142992778Y-87127009D01*
X142992779Y-87127011D01*
X143076443Y-87283533D01*
X143076443Y-87283534D01*
X143127963Y-87453373D01*
X143145359Y-87630000D01*
X143127963Y-87806627D01*
X143093616Y-87919853D01*
X143076443Y-87976467D01*
X143002348Y-88115087D01*
X142992778Y-88132991D01*
X142963448Y-88168729D01*
X142880186Y-88270186D01*
X142778729Y-88353448D01*
X142742991Y-88382778D01*
X142742989Y-88382779D01*
X142586467Y-88466443D01*
X142529853Y-88483616D01*
X142416627Y-88517963D01*
X142350442Y-88524482D01*
X142284260Y-88531000D01*
X142195740Y-88531000D01*
X142129558Y-88524482D01*
X142063373Y-88517963D01*
X141950147Y-88483616D01*
X141893533Y-88466443D01*
X141737011Y-88382779D01*
X141737009Y-88382778D01*
X141701271Y-88353448D01*
X141599814Y-88270186D01*
X141516552Y-88168729D01*
X141487222Y-88132991D01*
X141477652Y-88115087D01*
X141403557Y-87976467D01*
X141386384Y-87919853D01*
X141352037Y-87806627D01*
X141334641Y-87630000D01*
X141352037Y-87453373D01*
X141403557Y-87283534D01*
X141403557Y-87283533D01*
X141487221Y-87127011D01*
X141487222Y-87127009D01*
X141516552Y-87091271D01*
X141599814Y-86989814D01*
X141701271Y-86906552D01*
X141737009Y-86877222D01*
X141754913Y-86867652D01*
X141893533Y-86793557D01*
X141950147Y-86776384D01*
X142063373Y-86742037D01*
X142129558Y-86735518D01*
X142195740Y-86729000D01*
X142284260Y-86729000D01*
X142350442Y-86735518D01*
X142350442Y-86735518D01*
G37*
G36*
X143141000Y-85991000D02*
X141339000Y-85991000D01*
X141339000Y-84189000D01*
X143141000Y-84189000D01*
X143141000Y-85991000D01*
X143141000Y-85991000D01*
G37*
G36*
X118276821Y-84251313D02*
X118276824Y-84251314D01*
X118276825Y-84251314D01*
X118437239Y-84299975D01*
X118437241Y-84299976D01*
X118437244Y-84299977D01*
X118585078Y-84378995D01*
X118714659Y-84485341D01*
X118821005Y-84614922D01*
X118900023Y-84762756D01*
X118900024Y-84762759D01*
X118900025Y-84762761D01*
X118948686Y-84923175D01*
X118948687Y-84923179D01*
X118965117Y-85090000D01*
X118948687Y-85256821D01*
X118948686Y-85256824D01*
X118948686Y-85256825D01*
X118923993Y-85338228D01*
X118900023Y-85417244D01*
X118821005Y-85565078D01*
X118714659Y-85694659D01*
X118585078Y-85801005D01*
X118437244Y-85880023D01*
X118437241Y-85880024D01*
X118437239Y-85880025D01*
X118276825Y-85928686D01*
X118276824Y-85928686D01*
X118276821Y-85928687D01*
X118151804Y-85941000D01*
X118068196Y-85941000D01*
X117943179Y-85928687D01*
X117943176Y-85928686D01*
X117943175Y-85928686D01*
X117782761Y-85880025D01*
X117782759Y-85880024D01*
X117782756Y-85880023D01*
X117634922Y-85801005D01*
X117505341Y-85694659D01*
X117398995Y-85565078D01*
X117319977Y-85417244D01*
X117296008Y-85338228D01*
X117271314Y-85256825D01*
X117271314Y-85256824D01*
X117271313Y-85256821D01*
X117254883Y-85090000D01*
X117271313Y-84923179D01*
X117271314Y-84923175D01*
X117319975Y-84762761D01*
X117319976Y-84762759D01*
X117319977Y-84762756D01*
X117398995Y-84614922D01*
X117505341Y-84485341D01*
X117634922Y-84378995D01*
X117782756Y-84299977D01*
X117782759Y-84299976D01*
X117782761Y-84299975D01*
X117943175Y-84251314D01*
X117943176Y-84251314D01*
X117943179Y-84251313D01*
X118068196Y-84239000D01*
X118151804Y-84239000D01*
X118276821Y-84251313D01*
X118276821Y-84251313D01*
G37*
G36*
X138678228Y-84271703D02*
X138833100Y-84335853D01*
X138972481Y-84428985D01*
X139091015Y-84547519D01*
X139184147Y-84686900D01*
X139248297Y-84841772D01*
X139281000Y-85006184D01*
X139281000Y-85173816D01*
X139248297Y-85338228D01*
X139184147Y-85493100D01*
X139091015Y-85632481D01*
X138972481Y-85751015D01*
X138833100Y-85844147D01*
X138678228Y-85908297D01*
X138513816Y-85941000D01*
X138346184Y-85941000D01*
X138181772Y-85908297D01*
X138026900Y-85844147D01*
X137887519Y-85751015D01*
X137768985Y-85632481D01*
X137675853Y-85493100D01*
X137611703Y-85338228D01*
X137579000Y-85173816D01*
X137579000Y-85006184D01*
X137611703Y-84841772D01*
X137675853Y-84686900D01*
X137768985Y-84547519D01*
X137887519Y-84428985D01*
X138026900Y-84335853D01*
X138181772Y-84271703D01*
X138346184Y-84239000D01*
X138513816Y-84239000D01*
X138678228Y-84271703D01*
X138678228Y-84271703D01*
G37*
G36*
X134868228Y-84271703D02*
X135023100Y-84335853D01*
X135162481Y-84428985D01*
X135281015Y-84547519D01*
X135374147Y-84686900D01*
X135438297Y-84841772D01*
X135471000Y-85006184D01*
X135471000Y-85173816D01*
X135438297Y-85338228D01*
X135374147Y-85493100D01*
X135281015Y-85632481D01*
X135162481Y-85751015D01*
X135023100Y-85844147D01*
X134868228Y-85908297D01*
X134703816Y-85941000D01*
X134536184Y-85941000D01*
X134371772Y-85908297D01*
X134216900Y-85844147D01*
X134077519Y-85751015D01*
X133958985Y-85632481D01*
X133865853Y-85493100D01*
X133801703Y-85338228D01*
X133769000Y-85173816D01*
X133769000Y-85006184D01*
X133801703Y-84841772D01*
X133865853Y-84686900D01*
X133958985Y-84547519D01*
X134077519Y-84428985D01*
X134216900Y-84335853D01*
X134371772Y-84271703D01*
X134536184Y-84239000D01*
X134703816Y-84239000D01*
X134868228Y-84271703D01*
X134868228Y-84271703D01*
G37*
G36*
X120816821Y-84251313D02*
X120816824Y-84251314D01*
X120816825Y-84251314D01*
X120977239Y-84299975D01*
X120977241Y-84299976D01*
X120977244Y-84299977D01*
X121125078Y-84378995D01*
X121254659Y-84485341D01*
X121361005Y-84614922D01*
X121440023Y-84762756D01*
X121440024Y-84762759D01*
X121440025Y-84762761D01*
X121488686Y-84923175D01*
X121488687Y-84923179D01*
X121505117Y-85090000D01*
X121488687Y-85256821D01*
X121488686Y-85256824D01*
X121488686Y-85256825D01*
X121463993Y-85338228D01*
X121440023Y-85417244D01*
X121361005Y-85565078D01*
X121254659Y-85694659D01*
X121125078Y-85801005D01*
X120977244Y-85880023D01*
X120977241Y-85880024D01*
X120977239Y-85880025D01*
X120816825Y-85928686D01*
X120816824Y-85928686D01*
X120816821Y-85928687D01*
X120691804Y-85941000D01*
X120608196Y-85941000D01*
X120483179Y-85928687D01*
X120483176Y-85928686D01*
X120483175Y-85928686D01*
X120322761Y-85880025D01*
X120322759Y-85880024D01*
X120322756Y-85880023D01*
X120174922Y-85801005D01*
X120045341Y-85694659D01*
X119938995Y-85565078D01*
X119859977Y-85417244D01*
X119836008Y-85338228D01*
X119811314Y-85256825D01*
X119811314Y-85256824D01*
X119811313Y-85256821D01*
X119794883Y-85090000D01*
X119811313Y-84923179D01*
X119811314Y-84923175D01*
X119859975Y-84762761D01*
X119859976Y-84762759D01*
X119859977Y-84762756D01*
X119938995Y-84614922D01*
X120045341Y-84485341D01*
X120174922Y-84378995D01*
X120322756Y-84299977D01*
X120322759Y-84299976D01*
X120322761Y-84299975D01*
X120483175Y-84251314D01*
X120483176Y-84251314D01*
X120483179Y-84251313D01*
X120608196Y-84239000D01*
X120691804Y-84239000D01*
X120816821Y-84251313D01*
X120816821Y-84251313D01*
G37*
G36*
X123356821Y-84251313D02*
X123356824Y-84251314D01*
X123356825Y-84251314D01*
X123517239Y-84299975D01*
X123517241Y-84299976D01*
X123517244Y-84299977D01*
X123665078Y-84378995D01*
X123794659Y-84485341D01*
X123901005Y-84614922D01*
X123980023Y-84762756D01*
X123980024Y-84762759D01*
X123980025Y-84762761D01*
X124028686Y-84923175D01*
X124028687Y-84923179D01*
X124045117Y-85090000D01*
X124028687Y-85256821D01*
X124028686Y-85256824D01*
X124028686Y-85256825D01*
X124003993Y-85338228D01*
X123980023Y-85417244D01*
X123901005Y-85565078D01*
X123794659Y-85694659D01*
X123665078Y-85801005D01*
X123517244Y-85880023D01*
X123517241Y-85880024D01*
X123517239Y-85880025D01*
X123356825Y-85928686D01*
X123356824Y-85928686D01*
X123356821Y-85928687D01*
X123231804Y-85941000D01*
X123148196Y-85941000D01*
X123023179Y-85928687D01*
X123023176Y-85928686D01*
X123023175Y-85928686D01*
X122862761Y-85880025D01*
X122862759Y-85880024D01*
X122862756Y-85880023D01*
X122714922Y-85801005D01*
X122585341Y-85694659D01*
X122478995Y-85565078D01*
X122399977Y-85417244D01*
X122376008Y-85338228D01*
X122351314Y-85256825D01*
X122351314Y-85256824D01*
X122351313Y-85256821D01*
X122334883Y-85090000D01*
X122351313Y-84923179D01*
X122351314Y-84923175D01*
X122399975Y-84762761D01*
X122399976Y-84762759D01*
X122399977Y-84762756D01*
X122478995Y-84614922D01*
X122585341Y-84485341D01*
X122714922Y-84378995D01*
X122862756Y-84299977D01*
X122862759Y-84299976D01*
X122862761Y-84299975D01*
X123023175Y-84251314D01*
X123023176Y-84251314D01*
X123023179Y-84251313D01*
X123148196Y-84239000D01*
X123231804Y-84239000D01*
X123356821Y-84251313D01*
X123356821Y-84251313D01*
G37*
G36*
X125896821Y-84251313D02*
X125896824Y-84251314D01*
X125896825Y-84251314D01*
X126057239Y-84299975D01*
X126057241Y-84299976D01*
X126057244Y-84299977D01*
X126205078Y-84378995D01*
X126334659Y-84485341D01*
X126441005Y-84614922D01*
X126520023Y-84762756D01*
X126520024Y-84762759D01*
X126520025Y-84762761D01*
X126568686Y-84923175D01*
X126568687Y-84923179D01*
X126585117Y-85090000D01*
X126568687Y-85256821D01*
X126568686Y-85256824D01*
X126568686Y-85256825D01*
X126543993Y-85338228D01*
X126520023Y-85417244D01*
X126441005Y-85565078D01*
X126334659Y-85694659D01*
X126205078Y-85801005D01*
X126057244Y-85880023D01*
X126057241Y-85880024D01*
X126057239Y-85880025D01*
X125896825Y-85928686D01*
X125896824Y-85928686D01*
X125896821Y-85928687D01*
X125771804Y-85941000D01*
X125688196Y-85941000D01*
X125563179Y-85928687D01*
X125563176Y-85928686D01*
X125563175Y-85928686D01*
X125402761Y-85880025D01*
X125402759Y-85880024D01*
X125402756Y-85880023D01*
X125254922Y-85801005D01*
X125125341Y-85694659D01*
X125018995Y-85565078D01*
X124939977Y-85417244D01*
X124916008Y-85338228D01*
X124891314Y-85256825D01*
X124891314Y-85256824D01*
X124891313Y-85256821D01*
X124874883Y-85090000D01*
X124891313Y-84923179D01*
X124891314Y-84923175D01*
X124939975Y-84762761D01*
X124939976Y-84762759D01*
X124939977Y-84762756D01*
X125018995Y-84614922D01*
X125125341Y-84485341D01*
X125254922Y-84378995D01*
X125402756Y-84299977D01*
X125402759Y-84299976D01*
X125402761Y-84299975D01*
X125563175Y-84251314D01*
X125563176Y-84251314D01*
X125563179Y-84251313D01*
X125688196Y-84239000D01*
X125771804Y-84239000D01*
X125896821Y-84251313D01*
X125896821Y-84251313D01*
G37*
G36*
X113196821Y-84251313D02*
X113196824Y-84251314D01*
X113196825Y-84251314D01*
X113357239Y-84299975D01*
X113357241Y-84299976D01*
X113357244Y-84299977D01*
X113505078Y-84378995D01*
X113634659Y-84485341D01*
X113741005Y-84614922D01*
X113820023Y-84762756D01*
X113820024Y-84762759D01*
X113820025Y-84762761D01*
X113868686Y-84923175D01*
X113868687Y-84923179D01*
X113885117Y-85090000D01*
X113868687Y-85256821D01*
X113868686Y-85256824D01*
X113868686Y-85256825D01*
X113843993Y-85338228D01*
X113820023Y-85417244D01*
X113741005Y-85565078D01*
X113634659Y-85694659D01*
X113505078Y-85801005D01*
X113357244Y-85880023D01*
X113357241Y-85880024D01*
X113357239Y-85880025D01*
X113196825Y-85928686D01*
X113196824Y-85928686D01*
X113196821Y-85928687D01*
X113071804Y-85941000D01*
X112988196Y-85941000D01*
X112863179Y-85928687D01*
X112863176Y-85928686D01*
X112863175Y-85928686D01*
X112702761Y-85880025D01*
X112702759Y-85880024D01*
X112702756Y-85880023D01*
X112554922Y-85801005D01*
X112425341Y-85694659D01*
X112318995Y-85565078D01*
X112239977Y-85417244D01*
X112216008Y-85338228D01*
X112191314Y-85256825D01*
X112191314Y-85256824D01*
X112191313Y-85256821D01*
X112174883Y-85090000D01*
X112191313Y-84923179D01*
X112191314Y-84923175D01*
X112239975Y-84762761D01*
X112239976Y-84762759D01*
X112239977Y-84762756D01*
X112318995Y-84614922D01*
X112425341Y-84485341D01*
X112554922Y-84378995D01*
X112702756Y-84299977D01*
X112702759Y-84299976D01*
X112702761Y-84299975D01*
X112863175Y-84251314D01*
X112863176Y-84251314D01*
X112863179Y-84251313D01*
X112988196Y-84239000D01*
X113071804Y-84239000D01*
X113196821Y-84251313D01*
X113196821Y-84251313D01*
G37*
G36*
X128436821Y-84251313D02*
X128436824Y-84251314D01*
X128436825Y-84251314D01*
X128597239Y-84299975D01*
X128597241Y-84299976D01*
X128597244Y-84299977D01*
X128745078Y-84378995D01*
X128874659Y-84485341D01*
X128981005Y-84614922D01*
X129060023Y-84762756D01*
X129060024Y-84762759D01*
X129060025Y-84762761D01*
X129108686Y-84923175D01*
X129108687Y-84923179D01*
X129125117Y-85090000D01*
X129108687Y-85256821D01*
X129108686Y-85256824D01*
X129108686Y-85256825D01*
X129083993Y-85338228D01*
X129060023Y-85417244D01*
X128981005Y-85565078D01*
X128874659Y-85694659D01*
X128745078Y-85801005D01*
X128597244Y-85880023D01*
X128597241Y-85880024D01*
X128597239Y-85880025D01*
X128436825Y-85928686D01*
X128436824Y-85928686D01*
X128436821Y-85928687D01*
X128311804Y-85941000D01*
X128228196Y-85941000D01*
X128103179Y-85928687D01*
X128103176Y-85928686D01*
X128103175Y-85928686D01*
X127942761Y-85880025D01*
X127942759Y-85880024D01*
X127942756Y-85880023D01*
X127794922Y-85801005D01*
X127665341Y-85694659D01*
X127558995Y-85565078D01*
X127479977Y-85417244D01*
X127456008Y-85338228D01*
X127431314Y-85256825D01*
X127431314Y-85256824D01*
X127431313Y-85256821D01*
X127414883Y-85090000D01*
X127431313Y-84923179D01*
X127431314Y-84923175D01*
X127479975Y-84762761D01*
X127479976Y-84762759D01*
X127479977Y-84762756D01*
X127558995Y-84614922D01*
X127665341Y-84485341D01*
X127794922Y-84378995D01*
X127942756Y-84299977D01*
X127942759Y-84299976D01*
X127942761Y-84299975D01*
X128103175Y-84251314D01*
X128103176Y-84251314D01*
X128103179Y-84251313D01*
X128228196Y-84239000D01*
X128311804Y-84239000D01*
X128436821Y-84251313D01*
X128436821Y-84251313D01*
G37*
G36*
X115736821Y-84251313D02*
X115736824Y-84251314D01*
X115736825Y-84251314D01*
X115897239Y-84299975D01*
X115897241Y-84299976D01*
X115897244Y-84299977D01*
X116045078Y-84378995D01*
X116174659Y-84485341D01*
X116281005Y-84614922D01*
X116360023Y-84762756D01*
X116360024Y-84762759D01*
X116360025Y-84762761D01*
X116408686Y-84923175D01*
X116408687Y-84923179D01*
X116425117Y-85090000D01*
X116408687Y-85256821D01*
X116408686Y-85256824D01*
X116408686Y-85256825D01*
X116383993Y-85338228D01*
X116360023Y-85417244D01*
X116281005Y-85565078D01*
X116174659Y-85694659D01*
X116045078Y-85801005D01*
X115897244Y-85880023D01*
X115897241Y-85880024D01*
X115897239Y-85880025D01*
X115736825Y-85928686D01*
X115736824Y-85928686D01*
X115736821Y-85928687D01*
X115611804Y-85941000D01*
X115528196Y-85941000D01*
X115403179Y-85928687D01*
X115403176Y-85928686D01*
X115403175Y-85928686D01*
X115242761Y-85880025D01*
X115242759Y-85880024D01*
X115242756Y-85880023D01*
X115094922Y-85801005D01*
X114965341Y-85694659D01*
X114858995Y-85565078D01*
X114779977Y-85417244D01*
X114756008Y-85338228D01*
X114731314Y-85256825D01*
X114731314Y-85256824D01*
X114731313Y-85256821D01*
X114714883Y-85090000D01*
X114731313Y-84923179D01*
X114731314Y-84923175D01*
X114779975Y-84762761D01*
X114779976Y-84762759D01*
X114779977Y-84762756D01*
X114858995Y-84614922D01*
X114965341Y-84485341D01*
X115094922Y-84378995D01*
X115242756Y-84299977D01*
X115242759Y-84299976D01*
X115242761Y-84299975D01*
X115403175Y-84251314D01*
X115403176Y-84251314D01*
X115403179Y-84251313D01*
X115528196Y-84239000D01*
X115611804Y-84239000D01*
X115736821Y-84251313D01*
X115736821Y-84251313D01*
G37*
G36*
X130976821Y-84251313D02*
X130976824Y-84251314D01*
X130976825Y-84251314D01*
X131137239Y-84299975D01*
X131137241Y-84299976D01*
X131137244Y-84299977D01*
X131285078Y-84378995D01*
X131414659Y-84485341D01*
X131521005Y-84614922D01*
X131600023Y-84762756D01*
X131600024Y-84762759D01*
X131600025Y-84762761D01*
X131648686Y-84923175D01*
X131648687Y-84923179D01*
X131665117Y-85090000D01*
X131648687Y-85256821D01*
X131648686Y-85256824D01*
X131648686Y-85256825D01*
X131623993Y-85338228D01*
X131600023Y-85417244D01*
X131521005Y-85565078D01*
X131414659Y-85694659D01*
X131285078Y-85801005D01*
X131137244Y-85880023D01*
X131137241Y-85880024D01*
X131137239Y-85880025D01*
X130976825Y-85928686D01*
X130976824Y-85928686D01*
X130976821Y-85928687D01*
X130851804Y-85941000D01*
X130768196Y-85941000D01*
X130643179Y-85928687D01*
X130643176Y-85928686D01*
X130643175Y-85928686D01*
X130482761Y-85880025D01*
X130482759Y-85880024D01*
X130482756Y-85880023D01*
X130334922Y-85801005D01*
X130205341Y-85694659D01*
X130098995Y-85565078D01*
X130019977Y-85417244D01*
X129996008Y-85338228D01*
X129971314Y-85256825D01*
X129971314Y-85256824D01*
X129971313Y-85256821D01*
X129954883Y-85090000D01*
X129971313Y-84923179D01*
X129971314Y-84923175D01*
X130019975Y-84762761D01*
X130019976Y-84762759D01*
X130019977Y-84762756D01*
X130098995Y-84614922D01*
X130205341Y-84485341D01*
X130334922Y-84378995D01*
X130482756Y-84299977D01*
X130482759Y-84299976D01*
X130482761Y-84299975D01*
X130643175Y-84251314D01*
X130643176Y-84251314D01*
X130643179Y-84251313D01*
X130768196Y-84239000D01*
X130851804Y-84239000D01*
X130976821Y-84251313D01*
X130976821Y-84251313D01*
G37*
G36*
X101181000Y-80861000D02*
X99479000Y-80861000D01*
X99479000Y-79159000D01*
X101181000Y-79159000D01*
X101181000Y-80861000D01*
X101181000Y-80861000D01*
G37*
G36*
X103036821Y-79171313D02*
X103036824Y-79171314D01*
X103036825Y-79171314D01*
X103197239Y-79219975D01*
X103197241Y-79219976D01*
X103197244Y-79219977D01*
X103345078Y-79298995D01*
X103474659Y-79405341D01*
X103581005Y-79534922D01*
X103660023Y-79682756D01*
X103708687Y-79843179D01*
X103725117Y-80010000D01*
X103708687Y-80176821D01*
X103660023Y-80337244D01*
X103581005Y-80485078D01*
X103474659Y-80614659D01*
X103345078Y-80721005D01*
X103197244Y-80800023D01*
X103197241Y-80800024D01*
X103197239Y-80800025D01*
X103036825Y-80848686D01*
X103036824Y-80848686D01*
X103036821Y-80848687D01*
X102911804Y-80861000D01*
X102828196Y-80861000D01*
X102703179Y-80848687D01*
X102703176Y-80848686D01*
X102703175Y-80848686D01*
X102542761Y-80800025D01*
X102542759Y-80800024D01*
X102542756Y-80800023D01*
X102394922Y-80721005D01*
X102265341Y-80614659D01*
X102158995Y-80485078D01*
X102079977Y-80337244D01*
X102031313Y-80176821D01*
X102014883Y-80010000D01*
X102031313Y-79843179D01*
X102079977Y-79682756D01*
X102158995Y-79534922D01*
X102265341Y-79405341D01*
X102394922Y-79298995D01*
X102542756Y-79219977D01*
X102542759Y-79219976D01*
X102542761Y-79219975D01*
X102703175Y-79171314D01*
X102703176Y-79171314D01*
X102703179Y-79171313D01*
X102828196Y-79159000D01*
X102911804Y-79159000D01*
X103036821Y-79171313D01*
X103036821Y-79171313D01*
G37*
G36*
X136056821Y-79171313D02*
X136056824Y-79171314D01*
X136056825Y-79171314D01*
X136217239Y-79219975D01*
X136217241Y-79219976D01*
X136217244Y-79219977D01*
X136365078Y-79298995D01*
X136494659Y-79405341D01*
X136601005Y-79534922D01*
X136680023Y-79682756D01*
X136728687Y-79843179D01*
X136745117Y-80010000D01*
X136728687Y-80176821D01*
X136680023Y-80337244D01*
X136601005Y-80485078D01*
X136494659Y-80614659D01*
X136365078Y-80721005D01*
X136217244Y-80800023D01*
X136217241Y-80800024D01*
X136217239Y-80800025D01*
X136056825Y-80848686D01*
X136056824Y-80848686D01*
X136056821Y-80848687D01*
X135931804Y-80861000D01*
X135848196Y-80861000D01*
X135723179Y-80848687D01*
X135723176Y-80848686D01*
X135723175Y-80848686D01*
X135562761Y-80800025D01*
X135562759Y-80800024D01*
X135562756Y-80800023D01*
X135414922Y-80721005D01*
X135285341Y-80614659D01*
X135178995Y-80485078D01*
X135099977Y-80337244D01*
X135051313Y-80176821D01*
X135034883Y-80010000D01*
X135051313Y-79843179D01*
X135099977Y-79682756D01*
X135178995Y-79534922D01*
X135285341Y-79405341D01*
X135414922Y-79298995D01*
X135562756Y-79219977D01*
X135562759Y-79219976D01*
X135562761Y-79219975D01*
X135723175Y-79171314D01*
X135723176Y-79171314D01*
X135723179Y-79171313D01*
X135848196Y-79159000D01*
X135931804Y-79159000D01*
X136056821Y-79171313D01*
X136056821Y-79171313D01*
G37*
G36*
X133516821Y-79171313D02*
X133516824Y-79171314D01*
X133516825Y-79171314D01*
X133677239Y-79219975D01*
X133677241Y-79219976D01*
X133677244Y-79219977D01*
X133825078Y-79298995D01*
X133954659Y-79405341D01*
X134061005Y-79534922D01*
X134140023Y-79682756D01*
X134188687Y-79843179D01*
X134205117Y-80010000D01*
X134188687Y-80176821D01*
X134140023Y-80337244D01*
X134061005Y-80485078D01*
X133954659Y-80614659D01*
X133825078Y-80721005D01*
X133677244Y-80800023D01*
X133677241Y-80800024D01*
X133677239Y-80800025D01*
X133516825Y-80848686D01*
X133516824Y-80848686D01*
X133516821Y-80848687D01*
X133391804Y-80861000D01*
X133308196Y-80861000D01*
X133183179Y-80848687D01*
X133183176Y-80848686D01*
X133183175Y-80848686D01*
X133022761Y-80800025D01*
X133022759Y-80800024D01*
X133022756Y-80800023D01*
X132874922Y-80721005D01*
X132745341Y-80614659D01*
X132638995Y-80485078D01*
X132559977Y-80337244D01*
X132511313Y-80176821D01*
X132494883Y-80010000D01*
X132511313Y-79843179D01*
X132559977Y-79682756D01*
X132638995Y-79534922D01*
X132745341Y-79405341D01*
X132874922Y-79298995D01*
X133022756Y-79219977D01*
X133022759Y-79219976D01*
X133022761Y-79219975D01*
X133183175Y-79171314D01*
X133183176Y-79171314D01*
X133183179Y-79171313D01*
X133308196Y-79159000D01*
X133391804Y-79159000D01*
X133516821Y-79171313D01*
X133516821Y-79171313D01*
G37*
G36*
X108116821Y-79171313D02*
X108116824Y-79171314D01*
X108116825Y-79171314D01*
X108277239Y-79219975D01*
X108277241Y-79219976D01*
X108277244Y-79219977D01*
X108425078Y-79298995D01*
X108554659Y-79405341D01*
X108661005Y-79534922D01*
X108740023Y-79682756D01*
X108788687Y-79843179D01*
X108805117Y-80010000D01*
X108788687Y-80176821D01*
X108740023Y-80337244D01*
X108661005Y-80485078D01*
X108554659Y-80614659D01*
X108425078Y-80721005D01*
X108277244Y-80800023D01*
X108277241Y-80800024D01*
X108277239Y-80800025D01*
X108116825Y-80848686D01*
X108116824Y-80848686D01*
X108116821Y-80848687D01*
X107991804Y-80861000D01*
X107908196Y-80861000D01*
X107783179Y-80848687D01*
X107783176Y-80848686D01*
X107783175Y-80848686D01*
X107622761Y-80800025D01*
X107622759Y-80800024D01*
X107622756Y-80800023D01*
X107474922Y-80721005D01*
X107345341Y-80614659D01*
X107238995Y-80485078D01*
X107159977Y-80337244D01*
X107111313Y-80176821D01*
X107094883Y-80010000D01*
X107111313Y-79843179D01*
X107159977Y-79682756D01*
X107238995Y-79534922D01*
X107345341Y-79405341D01*
X107474922Y-79298995D01*
X107622756Y-79219977D01*
X107622759Y-79219976D01*
X107622761Y-79219975D01*
X107783175Y-79171314D01*
X107783176Y-79171314D01*
X107783179Y-79171313D01*
X107908196Y-79159000D01*
X107991804Y-79159000D01*
X108116821Y-79171313D01*
X108116821Y-79171313D01*
G37*
G36*
X110656821Y-79171313D02*
X110656824Y-79171314D01*
X110656825Y-79171314D01*
X110817239Y-79219975D01*
X110817241Y-79219976D01*
X110817244Y-79219977D01*
X110965078Y-79298995D01*
X111094659Y-79405341D01*
X111201005Y-79534922D01*
X111280023Y-79682756D01*
X111328687Y-79843179D01*
X111345117Y-80010000D01*
X111328687Y-80176821D01*
X111280023Y-80337244D01*
X111201005Y-80485078D01*
X111094659Y-80614659D01*
X110965078Y-80721005D01*
X110817244Y-80800023D01*
X110817241Y-80800024D01*
X110817239Y-80800025D01*
X110656825Y-80848686D01*
X110656824Y-80848686D01*
X110656821Y-80848687D01*
X110531804Y-80861000D01*
X110448196Y-80861000D01*
X110323179Y-80848687D01*
X110323176Y-80848686D01*
X110323175Y-80848686D01*
X110162761Y-80800025D01*
X110162759Y-80800024D01*
X110162756Y-80800023D01*
X110014922Y-80721005D01*
X109885341Y-80614659D01*
X109778995Y-80485078D01*
X109699977Y-80337244D01*
X109651313Y-80176821D01*
X109634883Y-80010000D01*
X109651313Y-79843179D01*
X109699977Y-79682756D01*
X109778995Y-79534922D01*
X109885341Y-79405341D01*
X110014922Y-79298995D01*
X110162756Y-79219977D01*
X110162759Y-79219976D01*
X110162761Y-79219975D01*
X110323175Y-79171314D01*
X110323176Y-79171314D01*
X110323179Y-79171313D01*
X110448196Y-79159000D01*
X110531804Y-79159000D01*
X110656821Y-79171313D01*
X110656821Y-79171313D01*
G37*
G36*
X113196821Y-79171313D02*
X113196824Y-79171314D01*
X113196825Y-79171314D01*
X113357239Y-79219975D01*
X113357241Y-79219976D01*
X113357244Y-79219977D01*
X113505078Y-79298995D01*
X113634659Y-79405341D01*
X113741005Y-79534922D01*
X113820023Y-79682756D01*
X113868687Y-79843179D01*
X113885117Y-80010000D01*
X113868687Y-80176821D01*
X113820023Y-80337244D01*
X113741005Y-80485078D01*
X113634659Y-80614659D01*
X113505078Y-80721005D01*
X113357244Y-80800023D01*
X113357241Y-80800024D01*
X113357239Y-80800025D01*
X113196825Y-80848686D01*
X113196824Y-80848686D01*
X113196821Y-80848687D01*
X113071804Y-80861000D01*
X112988196Y-80861000D01*
X112863179Y-80848687D01*
X112863176Y-80848686D01*
X112863175Y-80848686D01*
X112702761Y-80800025D01*
X112702759Y-80800024D01*
X112702756Y-80800023D01*
X112554922Y-80721005D01*
X112425341Y-80614659D01*
X112318995Y-80485078D01*
X112239977Y-80337244D01*
X112191313Y-80176821D01*
X112174883Y-80010000D01*
X112191313Y-79843179D01*
X112239977Y-79682756D01*
X112318995Y-79534922D01*
X112425341Y-79405341D01*
X112554922Y-79298995D01*
X112702756Y-79219977D01*
X112702759Y-79219976D01*
X112702761Y-79219975D01*
X112863175Y-79171314D01*
X112863176Y-79171314D01*
X112863179Y-79171313D01*
X112988196Y-79159000D01*
X113071804Y-79159000D01*
X113196821Y-79171313D01*
X113196821Y-79171313D01*
G37*
G36*
X118276821Y-79171313D02*
X118276824Y-79171314D01*
X118276825Y-79171314D01*
X118437239Y-79219975D01*
X118437241Y-79219976D01*
X118437244Y-79219977D01*
X118585078Y-79298995D01*
X118714659Y-79405341D01*
X118821005Y-79534922D01*
X118900023Y-79682756D01*
X118948687Y-79843179D01*
X118965117Y-80010000D01*
X118948687Y-80176821D01*
X118900023Y-80337244D01*
X118821005Y-80485078D01*
X118714659Y-80614659D01*
X118585078Y-80721005D01*
X118437244Y-80800023D01*
X118437241Y-80800024D01*
X118437239Y-80800025D01*
X118276825Y-80848686D01*
X118276824Y-80848686D01*
X118276821Y-80848687D01*
X118151804Y-80861000D01*
X118068196Y-80861000D01*
X117943179Y-80848687D01*
X117943176Y-80848686D01*
X117943175Y-80848686D01*
X117782761Y-80800025D01*
X117782759Y-80800024D01*
X117782756Y-80800023D01*
X117634922Y-80721005D01*
X117505341Y-80614659D01*
X117398995Y-80485078D01*
X117319977Y-80337244D01*
X117271313Y-80176821D01*
X117254883Y-80010000D01*
X117271313Y-79843179D01*
X117319977Y-79682756D01*
X117398995Y-79534922D01*
X117505341Y-79405341D01*
X117634922Y-79298995D01*
X117782756Y-79219977D01*
X117782759Y-79219976D01*
X117782761Y-79219975D01*
X117943175Y-79171314D01*
X117943176Y-79171314D01*
X117943179Y-79171313D01*
X118068196Y-79159000D01*
X118151804Y-79159000D01*
X118276821Y-79171313D01*
X118276821Y-79171313D01*
G37*
G36*
X115736821Y-79171313D02*
X115736824Y-79171314D01*
X115736825Y-79171314D01*
X115897239Y-79219975D01*
X115897241Y-79219976D01*
X115897244Y-79219977D01*
X116045078Y-79298995D01*
X116174659Y-79405341D01*
X116281005Y-79534922D01*
X116360023Y-79682756D01*
X116408687Y-79843179D01*
X116425117Y-80010000D01*
X116408687Y-80176821D01*
X116360023Y-80337244D01*
X116281005Y-80485078D01*
X116174659Y-80614659D01*
X116045078Y-80721005D01*
X115897244Y-80800023D01*
X115897241Y-80800024D01*
X115897239Y-80800025D01*
X115736825Y-80848686D01*
X115736824Y-80848686D01*
X115736821Y-80848687D01*
X115611804Y-80861000D01*
X115528196Y-80861000D01*
X115403179Y-80848687D01*
X115403176Y-80848686D01*
X115403175Y-80848686D01*
X115242761Y-80800025D01*
X115242759Y-80800024D01*
X115242756Y-80800023D01*
X115094922Y-80721005D01*
X114965341Y-80614659D01*
X114858995Y-80485078D01*
X114779977Y-80337244D01*
X114731313Y-80176821D01*
X114714883Y-80010000D01*
X114731313Y-79843179D01*
X114779977Y-79682756D01*
X114858995Y-79534922D01*
X114965341Y-79405341D01*
X115094922Y-79298995D01*
X115242756Y-79219977D01*
X115242759Y-79219976D01*
X115242761Y-79219975D01*
X115403175Y-79171314D01*
X115403176Y-79171314D01*
X115403179Y-79171313D01*
X115528196Y-79159000D01*
X115611804Y-79159000D01*
X115736821Y-79171313D01*
X115736821Y-79171313D01*
G37*
G36*
X130976821Y-79171313D02*
X130976824Y-79171314D01*
X130976825Y-79171314D01*
X131137239Y-79219975D01*
X131137241Y-79219976D01*
X131137244Y-79219977D01*
X131285078Y-79298995D01*
X131414659Y-79405341D01*
X131521005Y-79534922D01*
X131600023Y-79682756D01*
X131648687Y-79843179D01*
X131665117Y-80010000D01*
X131648687Y-80176821D01*
X131600023Y-80337244D01*
X131521005Y-80485078D01*
X131414659Y-80614659D01*
X131285078Y-80721005D01*
X131137244Y-80800023D01*
X131137241Y-80800024D01*
X131137239Y-80800025D01*
X130976825Y-80848686D01*
X130976824Y-80848686D01*
X130976821Y-80848687D01*
X130851804Y-80861000D01*
X130768196Y-80861000D01*
X130643179Y-80848687D01*
X130643176Y-80848686D01*
X130643175Y-80848686D01*
X130482761Y-80800025D01*
X130482759Y-80800024D01*
X130482756Y-80800023D01*
X130334922Y-80721005D01*
X130205341Y-80614659D01*
X130098995Y-80485078D01*
X130019977Y-80337244D01*
X129971313Y-80176821D01*
X129954883Y-80010000D01*
X129971313Y-79843179D01*
X130019977Y-79682756D01*
X130098995Y-79534922D01*
X130205341Y-79405341D01*
X130334922Y-79298995D01*
X130482756Y-79219977D01*
X130482759Y-79219976D01*
X130482761Y-79219975D01*
X130643175Y-79171314D01*
X130643176Y-79171314D01*
X130643179Y-79171313D01*
X130768196Y-79159000D01*
X130851804Y-79159000D01*
X130976821Y-79171313D01*
X130976821Y-79171313D01*
G37*
G36*
X105576821Y-79171313D02*
X105576824Y-79171314D01*
X105576825Y-79171314D01*
X105737239Y-79219975D01*
X105737241Y-79219976D01*
X105737244Y-79219977D01*
X105885078Y-79298995D01*
X106014659Y-79405341D01*
X106121005Y-79534922D01*
X106200023Y-79682756D01*
X106248687Y-79843179D01*
X106265117Y-80010000D01*
X106248687Y-80176821D01*
X106200023Y-80337244D01*
X106121005Y-80485078D01*
X106014659Y-80614659D01*
X105885078Y-80721005D01*
X105737244Y-80800023D01*
X105737241Y-80800024D01*
X105737239Y-80800025D01*
X105576825Y-80848686D01*
X105576824Y-80848686D01*
X105576821Y-80848687D01*
X105451804Y-80861000D01*
X105368196Y-80861000D01*
X105243179Y-80848687D01*
X105243176Y-80848686D01*
X105243175Y-80848686D01*
X105082761Y-80800025D01*
X105082759Y-80800024D01*
X105082756Y-80800023D01*
X104934922Y-80721005D01*
X104805341Y-80614659D01*
X104698995Y-80485078D01*
X104619977Y-80337244D01*
X104571313Y-80176821D01*
X104554883Y-80010000D01*
X104571313Y-79843179D01*
X104619977Y-79682756D01*
X104698995Y-79534922D01*
X104805341Y-79405341D01*
X104934922Y-79298995D01*
X105082756Y-79219977D01*
X105082759Y-79219976D01*
X105082761Y-79219975D01*
X105243175Y-79171314D01*
X105243176Y-79171314D01*
X105243179Y-79171313D01*
X105368196Y-79159000D01*
X105451804Y-79159000D01*
X105576821Y-79171313D01*
X105576821Y-79171313D01*
G37*
G36*
X128436821Y-79171313D02*
X128436824Y-79171314D01*
X128436825Y-79171314D01*
X128597239Y-79219975D01*
X128597241Y-79219976D01*
X128597244Y-79219977D01*
X128745078Y-79298995D01*
X128874659Y-79405341D01*
X128981005Y-79534922D01*
X129060023Y-79682756D01*
X129108687Y-79843179D01*
X129125117Y-80010000D01*
X129108687Y-80176821D01*
X129060023Y-80337244D01*
X128981005Y-80485078D01*
X128874659Y-80614659D01*
X128745078Y-80721005D01*
X128597244Y-80800023D01*
X128597241Y-80800024D01*
X128597239Y-80800025D01*
X128436825Y-80848686D01*
X128436824Y-80848686D01*
X128436821Y-80848687D01*
X128311804Y-80861000D01*
X128228196Y-80861000D01*
X128103179Y-80848687D01*
X128103176Y-80848686D01*
X128103175Y-80848686D01*
X127942761Y-80800025D01*
X127942759Y-80800024D01*
X127942756Y-80800023D01*
X127794922Y-80721005D01*
X127665341Y-80614659D01*
X127558995Y-80485078D01*
X127479977Y-80337244D01*
X127431313Y-80176821D01*
X127414883Y-80010000D01*
X127431313Y-79843179D01*
X127479977Y-79682756D01*
X127558995Y-79534922D01*
X127665341Y-79405341D01*
X127794922Y-79298995D01*
X127942756Y-79219977D01*
X127942759Y-79219976D01*
X127942761Y-79219975D01*
X128103175Y-79171314D01*
X128103176Y-79171314D01*
X128103179Y-79171313D01*
X128228196Y-79159000D01*
X128311804Y-79159000D01*
X128436821Y-79171313D01*
X128436821Y-79171313D01*
G37*
G36*
X123356821Y-79171313D02*
X123356824Y-79171314D01*
X123356825Y-79171314D01*
X123517239Y-79219975D01*
X123517241Y-79219976D01*
X123517244Y-79219977D01*
X123665078Y-79298995D01*
X123794659Y-79405341D01*
X123901005Y-79534922D01*
X123980023Y-79682756D01*
X124028687Y-79843179D01*
X124045117Y-80010000D01*
X124028687Y-80176821D01*
X123980023Y-80337244D01*
X123901005Y-80485078D01*
X123794659Y-80614659D01*
X123665078Y-80721005D01*
X123517244Y-80800023D01*
X123517241Y-80800024D01*
X123517239Y-80800025D01*
X123356825Y-80848686D01*
X123356824Y-80848686D01*
X123356821Y-80848687D01*
X123231804Y-80861000D01*
X123148196Y-80861000D01*
X123023179Y-80848687D01*
X123023176Y-80848686D01*
X123023175Y-80848686D01*
X122862761Y-80800025D01*
X122862759Y-80800024D01*
X122862756Y-80800023D01*
X122714922Y-80721005D01*
X122585341Y-80614659D01*
X122478995Y-80485078D01*
X122399977Y-80337244D01*
X122351313Y-80176821D01*
X122334883Y-80010000D01*
X122351313Y-79843179D01*
X122399977Y-79682756D01*
X122478995Y-79534922D01*
X122585341Y-79405341D01*
X122714922Y-79298995D01*
X122862756Y-79219977D01*
X122862759Y-79219976D01*
X122862761Y-79219975D01*
X123023175Y-79171314D01*
X123023176Y-79171314D01*
X123023179Y-79171313D01*
X123148196Y-79159000D01*
X123231804Y-79159000D01*
X123356821Y-79171313D01*
X123356821Y-79171313D01*
G37*
G36*
X120816821Y-79171313D02*
X120816824Y-79171314D01*
X120816825Y-79171314D01*
X120977239Y-79219975D01*
X120977241Y-79219976D01*
X120977244Y-79219977D01*
X121125078Y-79298995D01*
X121254659Y-79405341D01*
X121361005Y-79534922D01*
X121440023Y-79682756D01*
X121488687Y-79843179D01*
X121505117Y-80010000D01*
X121488687Y-80176821D01*
X121440023Y-80337244D01*
X121361005Y-80485078D01*
X121254659Y-80614659D01*
X121125078Y-80721005D01*
X120977244Y-80800023D01*
X120977241Y-80800024D01*
X120977239Y-80800025D01*
X120816825Y-80848686D01*
X120816824Y-80848686D01*
X120816821Y-80848687D01*
X120691804Y-80861000D01*
X120608196Y-80861000D01*
X120483179Y-80848687D01*
X120483176Y-80848686D01*
X120483175Y-80848686D01*
X120322761Y-80800025D01*
X120322759Y-80800024D01*
X120322756Y-80800023D01*
X120174922Y-80721005D01*
X120045341Y-80614659D01*
X119938995Y-80485078D01*
X119859977Y-80337244D01*
X119811313Y-80176821D01*
X119794883Y-80010000D01*
X119811313Y-79843179D01*
X119859977Y-79682756D01*
X119938995Y-79534922D01*
X120045341Y-79405341D01*
X120174922Y-79298995D01*
X120322756Y-79219977D01*
X120322759Y-79219976D01*
X120322761Y-79219975D01*
X120483175Y-79171314D01*
X120483176Y-79171314D01*
X120483179Y-79171313D01*
X120608196Y-79159000D01*
X120691804Y-79159000D01*
X120816821Y-79171313D01*
X120816821Y-79171313D01*
G37*
G36*
X125896821Y-79171313D02*
X125896824Y-79171314D01*
X125896825Y-79171314D01*
X126057239Y-79219975D01*
X126057241Y-79219976D01*
X126057244Y-79219977D01*
X126205078Y-79298995D01*
X126334659Y-79405341D01*
X126441005Y-79534922D01*
X126520023Y-79682756D01*
X126568687Y-79843179D01*
X126585117Y-80010000D01*
X126568687Y-80176821D01*
X126520023Y-80337244D01*
X126441005Y-80485078D01*
X126334659Y-80614659D01*
X126205078Y-80721005D01*
X126057244Y-80800023D01*
X126057241Y-80800024D01*
X126057239Y-80800025D01*
X125896825Y-80848686D01*
X125896824Y-80848686D01*
X125896821Y-80848687D01*
X125771804Y-80861000D01*
X125688196Y-80861000D01*
X125563179Y-80848687D01*
X125563176Y-80848686D01*
X125563175Y-80848686D01*
X125402761Y-80800025D01*
X125402759Y-80800024D01*
X125402756Y-80800023D01*
X125254922Y-80721005D01*
X125125341Y-80614659D01*
X125018995Y-80485078D01*
X124939977Y-80337244D01*
X124891313Y-80176821D01*
X124874883Y-80010000D01*
X124891313Y-79843179D01*
X124939977Y-79682756D01*
X125018995Y-79534922D01*
X125125341Y-79405341D01*
X125254922Y-79298995D01*
X125402756Y-79219977D01*
X125402759Y-79219976D01*
X125402761Y-79219975D01*
X125563175Y-79171314D01*
X125563176Y-79171314D01*
X125563179Y-79171313D01*
X125688196Y-79159000D01*
X125771804Y-79159000D01*
X125896821Y-79171313D01*
X125896821Y-79171313D01*
G37*
G36*
X115736821Y-63931313D02*
X115736824Y-63931314D01*
X115736825Y-63931314D01*
X115897239Y-63979975D01*
X115897241Y-63979976D01*
X115897244Y-63979977D01*
X116045078Y-64058995D01*
X116174659Y-64165341D01*
X116281005Y-64294922D01*
X116360023Y-64442756D01*
X116408687Y-64603179D01*
X116425117Y-64770000D01*
X116408687Y-64936821D01*
X116360023Y-65097244D01*
X116281005Y-65245078D01*
X116174659Y-65374659D01*
X116045078Y-65481005D01*
X115897244Y-65560023D01*
X115897241Y-65560024D01*
X115897239Y-65560025D01*
X115736825Y-65608686D01*
X115736824Y-65608686D01*
X115736821Y-65608687D01*
X115611804Y-65621000D01*
X115528196Y-65621000D01*
X115403179Y-65608687D01*
X115403176Y-65608686D01*
X115403175Y-65608686D01*
X115242761Y-65560025D01*
X115242759Y-65560024D01*
X115242756Y-65560023D01*
X115094922Y-65481005D01*
X114965341Y-65374659D01*
X114858995Y-65245078D01*
X114779977Y-65097244D01*
X114731313Y-64936821D01*
X114714883Y-64770000D01*
X114731313Y-64603179D01*
X114779977Y-64442756D01*
X114858995Y-64294922D01*
X114965341Y-64165341D01*
X115094922Y-64058995D01*
X115242756Y-63979977D01*
X115242759Y-63979976D01*
X115242761Y-63979975D01*
X115403175Y-63931314D01*
X115403176Y-63931314D01*
X115403179Y-63931313D01*
X115528196Y-63919000D01*
X115611804Y-63919000D01*
X115736821Y-63931313D01*
X115736821Y-63931313D01*
G37*
G36*
X136056821Y-63931313D02*
X136056824Y-63931314D01*
X136056825Y-63931314D01*
X136217239Y-63979975D01*
X136217241Y-63979976D01*
X136217244Y-63979977D01*
X136365078Y-64058995D01*
X136494659Y-64165341D01*
X136601005Y-64294922D01*
X136680023Y-64442756D01*
X136728687Y-64603179D01*
X136745117Y-64770000D01*
X136728687Y-64936821D01*
X136680023Y-65097244D01*
X136601005Y-65245078D01*
X136494659Y-65374659D01*
X136365078Y-65481005D01*
X136217244Y-65560023D01*
X136217241Y-65560024D01*
X136217239Y-65560025D01*
X136056825Y-65608686D01*
X136056824Y-65608686D01*
X136056821Y-65608687D01*
X135931804Y-65621000D01*
X135848196Y-65621000D01*
X135723179Y-65608687D01*
X135723176Y-65608686D01*
X135723175Y-65608686D01*
X135562761Y-65560025D01*
X135562759Y-65560024D01*
X135562756Y-65560023D01*
X135414922Y-65481005D01*
X135285341Y-65374659D01*
X135178995Y-65245078D01*
X135099977Y-65097244D01*
X135051313Y-64936821D01*
X135034883Y-64770000D01*
X135051313Y-64603179D01*
X135099977Y-64442756D01*
X135178995Y-64294922D01*
X135285341Y-64165341D01*
X135414922Y-64058995D01*
X135562756Y-63979977D01*
X135562759Y-63979976D01*
X135562761Y-63979975D01*
X135723175Y-63931314D01*
X135723176Y-63931314D01*
X135723179Y-63931313D01*
X135848196Y-63919000D01*
X135931804Y-63919000D01*
X136056821Y-63931313D01*
X136056821Y-63931313D01*
G37*
G36*
X133516821Y-63931313D02*
X133516824Y-63931314D01*
X133516825Y-63931314D01*
X133677239Y-63979975D01*
X133677241Y-63979976D01*
X133677244Y-63979977D01*
X133825078Y-64058995D01*
X133954659Y-64165341D01*
X134061005Y-64294922D01*
X134140023Y-64442756D01*
X134188687Y-64603179D01*
X134205117Y-64770000D01*
X134188687Y-64936821D01*
X134140023Y-65097244D01*
X134061005Y-65245078D01*
X133954659Y-65374659D01*
X133825078Y-65481005D01*
X133677244Y-65560023D01*
X133677241Y-65560024D01*
X133677239Y-65560025D01*
X133516825Y-65608686D01*
X133516824Y-65608686D01*
X133516821Y-65608687D01*
X133391804Y-65621000D01*
X133308196Y-65621000D01*
X133183179Y-65608687D01*
X133183176Y-65608686D01*
X133183175Y-65608686D01*
X133022761Y-65560025D01*
X133022759Y-65560024D01*
X133022756Y-65560023D01*
X132874922Y-65481005D01*
X132745341Y-65374659D01*
X132638995Y-65245078D01*
X132559977Y-65097244D01*
X132511313Y-64936821D01*
X132494883Y-64770000D01*
X132511313Y-64603179D01*
X132559977Y-64442756D01*
X132638995Y-64294922D01*
X132745341Y-64165341D01*
X132874922Y-64058995D01*
X133022756Y-63979977D01*
X133022759Y-63979976D01*
X133022761Y-63979975D01*
X133183175Y-63931314D01*
X133183176Y-63931314D01*
X133183179Y-63931313D01*
X133308196Y-63919000D01*
X133391804Y-63919000D01*
X133516821Y-63931313D01*
X133516821Y-63931313D01*
G37*
G36*
X130976821Y-63931313D02*
X130976824Y-63931314D01*
X130976825Y-63931314D01*
X131137239Y-63979975D01*
X131137241Y-63979976D01*
X131137244Y-63979977D01*
X131285078Y-64058995D01*
X131414659Y-64165341D01*
X131521005Y-64294922D01*
X131600023Y-64442756D01*
X131648687Y-64603179D01*
X131665117Y-64770000D01*
X131648687Y-64936821D01*
X131600023Y-65097244D01*
X131521005Y-65245078D01*
X131414659Y-65374659D01*
X131285078Y-65481005D01*
X131137244Y-65560023D01*
X131137241Y-65560024D01*
X131137239Y-65560025D01*
X130976825Y-65608686D01*
X130976824Y-65608686D01*
X130976821Y-65608687D01*
X130851804Y-65621000D01*
X130768196Y-65621000D01*
X130643179Y-65608687D01*
X130643176Y-65608686D01*
X130643175Y-65608686D01*
X130482761Y-65560025D01*
X130482759Y-65560024D01*
X130482756Y-65560023D01*
X130334922Y-65481005D01*
X130205341Y-65374659D01*
X130098995Y-65245078D01*
X130019977Y-65097244D01*
X129971313Y-64936821D01*
X129954883Y-64770000D01*
X129971313Y-64603179D01*
X130019977Y-64442756D01*
X130098995Y-64294922D01*
X130205341Y-64165341D01*
X130334922Y-64058995D01*
X130482756Y-63979977D01*
X130482759Y-63979976D01*
X130482761Y-63979975D01*
X130643175Y-63931314D01*
X130643176Y-63931314D01*
X130643179Y-63931313D01*
X130768196Y-63919000D01*
X130851804Y-63919000D01*
X130976821Y-63931313D01*
X130976821Y-63931313D01*
G37*
G36*
X108116821Y-63931313D02*
X108116824Y-63931314D01*
X108116825Y-63931314D01*
X108277239Y-63979975D01*
X108277241Y-63979976D01*
X108277244Y-63979977D01*
X108425078Y-64058995D01*
X108554659Y-64165341D01*
X108661005Y-64294922D01*
X108740023Y-64442756D01*
X108788687Y-64603179D01*
X108805117Y-64770000D01*
X108788687Y-64936821D01*
X108740023Y-65097244D01*
X108661005Y-65245078D01*
X108554659Y-65374659D01*
X108425078Y-65481005D01*
X108277244Y-65560023D01*
X108277241Y-65560024D01*
X108277239Y-65560025D01*
X108116825Y-65608686D01*
X108116824Y-65608686D01*
X108116821Y-65608687D01*
X107991804Y-65621000D01*
X107908196Y-65621000D01*
X107783179Y-65608687D01*
X107783176Y-65608686D01*
X107783175Y-65608686D01*
X107622761Y-65560025D01*
X107622759Y-65560024D01*
X107622756Y-65560023D01*
X107474922Y-65481005D01*
X107345341Y-65374659D01*
X107238995Y-65245078D01*
X107159977Y-65097244D01*
X107111313Y-64936821D01*
X107094883Y-64770000D01*
X107111313Y-64603179D01*
X107159977Y-64442756D01*
X107238995Y-64294922D01*
X107345341Y-64165341D01*
X107474922Y-64058995D01*
X107622756Y-63979977D01*
X107622759Y-63979976D01*
X107622761Y-63979975D01*
X107783175Y-63931314D01*
X107783176Y-63931314D01*
X107783179Y-63931313D01*
X107908196Y-63919000D01*
X107991804Y-63919000D01*
X108116821Y-63931313D01*
X108116821Y-63931313D01*
G37*
G36*
X125896821Y-63931313D02*
X125896824Y-63931314D01*
X125896825Y-63931314D01*
X126057239Y-63979975D01*
X126057241Y-63979976D01*
X126057244Y-63979977D01*
X126205078Y-64058995D01*
X126334659Y-64165341D01*
X126441005Y-64294922D01*
X126520023Y-64442756D01*
X126568687Y-64603179D01*
X126585117Y-64770000D01*
X126568687Y-64936821D01*
X126520023Y-65097244D01*
X126441005Y-65245078D01*
X126334659Y-65374659D01*
X126205078Y-65481005D01*
X126057244Y-65560023D01*
X126057241Y-65560024D01*
X126057239Y-65560025D01*
X125896825Y-65608686D01*
X125896824Y-65608686D01*
X125896821Y-65608687D01*
X125771804Y-65621000D01*
X125688196Y-65621000D01*
X125563179Y-65608687D01*
X125563176Y-65608686D01*
X125563175Y-65608686D01*
X125402761Y-65560025D01*
X125402759Y-65560024D01*
X125402756Y-65560023D01*
X125254922Y-65481005D01*
X125125341Y-65374659D01*
X125018995Y-65245078D01*
X124939977Y-65097244D01*
X124891313Y-64936821D01*
X124874883Y-64770000D01*
X124891313Y-64603179D01*
X124939977Y-64442756D01*
X125018995Y-64294922D01*
X125125341Y-64165341D01*
X125254922Y-64058995D01*
X125402756Y-63979977D01*
X125402759Y-63979976D01*
X125402761Y-63979975D01*
X125563175Y-63931314D01*
X125563176Y-63931314D01*
X125563179Y-63931313D01*
X125688196Y-63919000D01*
X125771804Y-63919000D01*
X125896821Y-63931313D01*
X125896821Y-63931313D01*
G37*
G36*
X123356821Y-63931313D02*
X123356824Y-63931314D01*
X123356825Y-63931314D01*
X123517239Y-63979975D01*
X123517241Y-63979976D01*
X123517244Y-63979977D01*
X123665078Y-64058995D01*
X123794659Y-64165341D01*
X123901005Y-64294922D01*
X123980023Y-64442756D01*
X124028687Y-64603179D01*
X124045117Y-64770000D01*
X124028687Y-64936821D01*
X123980023Y-65097244D01*
X123901005Y-65245078D01*
X123794659Y-65374659D01*
X123665078Y-65481005D01*
X123517244Y-65560023D01*
X123517241Y-65560024D01*
X123517239Y-65560025D01*
X123356825Y-65608686D01*
X123356824Y-65608686D01*
X123356821Y-65608687D01*
X123231804Y-65621000D01*
X123148196Y-65621000D01*
X123023179Y-65608687D01*
X123023176Y-65608686D01*
X123023175Y-65608686D01*
X122862761Y-65560025D01*
X122862759Y-65560024D01*
X122862756Y-65560023D01*
X122714922Y-65481005D01*
X122585341Y-65374659D01*
X122478995Y-65245078D01*
X122399977Y-65097244D01*
X122351313Y-64936821D01*
X122334883Y-64770000D01*
X122351313Y-64603179D01*
X122399977Y-64442756D01*
X122478995Y-64294922D01*
X122585341Y-64165341D01*
X122714922Y-64058995D01*
X122862756Y-63979977D01*
X122862759Y-63979976D01*
X122862761Y-63979975D01*
X123023175Y-63931314D01*
X123023176Y-63931314D01*
X123023179Y-63931313D01*
X123148196Y-63919000D01*
X123231804Y-63919000D01*
X123356821Y-63931313D01*
X123356821Y-63931313D01*
G37*
G36*
X120816821Y-63931313D02*
X120816824Y-63931314D01*
X120816825Y-63931314D01*
X120977239Y-63979975D01*
X120977241Y-63979976D01*
X120977244Y-63979977D01*
X121125078Y-64058995D01*
X121254659Y-64165341D01*
X121361005Y-64294922D01*
X121440023Y-64442756D01*
X121488687Y-64603179D01*
X121505117Y-64770000D01*
X121488687Y-64936821D01*
X121440023Y-65097244D01*
X121361005Y-65245078D01*
X121254659Y-65374659D01*
X121125078Y-65481005D01*
X120977244Y-65560023D01*
X120977241Y-65560024D01*
X120977239Y-65560025D01*
X120816825Y-65608686D01*
X120816824Y-65608686D01*
X120816821Y-65608687D01*
X120691804Y-65621000D01*
X120608196Y-65621000D01*
X120483179Y-65608687D01*
X120483176Y-65608686D01*
X120483175Y-65608686D01*
X120322761Y-65560025D01*
X120322759Y-65560024D01*
X120322756Y-65560023D01*
X120174922Y-65481005D01*
X120045341Y-65374659D01*
X119938995Y-65245078D01*
X119859977Y-65097244D01*
X119811313Y-64936821D01*
X119794883Y-64770000D01*
X119811313Y-64603179D01*
X119859977Y-64442756D01*
X119938995Y-64294922D01*
X120045341Y-64165341D01*
X120174922Y-64058995D01*
X120322756Y-63979977D01*
X120322759Y-63979976D01*
X120322761Y-63979975D01*
X120483175Y-63931314D01*
X120483176Y-63931314D01*
X120483179Y-63931313D01*
X120608196Y-63919000D01*
X120691804Y-63919000D01*
X120816821Y-63931313D01*
X120816821Y-63931313D01*
G37*
G36*
X118276821Y-63931313D02*
X118276824Y-63931314D01*
X118276825Y-63931314D01*
X118437239Y-63979975D01*
X118437241Y-63979976D01*
X118437244Y-63979977D01*
X118585078Y-64058995D01*
X118714659Y-64165341D01*
X118821005Y-64294922D01*
X118900023Y-64442756D01*
X118948687Y-64603179D01*
X118965117Y-64770000D01*
X118948687Y-64936821D01*
X118900023Y-65097244D01*
X118821005Y-65245078D01*
X118714659Y-65374659D01*
X118585078Y-65481005D01*
X118437244Y-65560023D01*
X118437241Y-65560024D01*
X118437239Y-65560025D01*
X118276825Y-65608686D01*
X118276824Y-65608686D01*
X118276821Y-65608687D01*
X118151804Y-65621000D01*
X118068196Y-65621000D01*
X117943179Y-65608687D01*
X117943176Y-65608686D01*
X117943175Y-65608686D01*
X117782761Y-65560025D01*
X117782759Y-65560024D01*
X117782756Y-65560023D01*
X117634922Y-65481005D01*
X117505341Y-65374659D01*
X117398995Y-65245078D01*
X117319977Y-65097244D01*
X117271313Y-64936821D01*
X117254883Y-64770000D01*
X117271313Y-64603179D01*
X117319977Y-64442756D01*
X117398995Y-64294922D01*
X117505341Y-64165341D01*
X117634922Y-64058995D01*
X117782756Y-63979977D01*
X117782759Y-63979976D01*
X117782761Y-63979975D01*
X117943175Y-63931314D01*
X117943176Y-63931314D01*
X117943179Y-63931313D01*
X118068196Y-63919000D01*
X118151804Y-63919000D01*
X118276821Y-63931313D01*
X118276821Y-63931313D01*
G37*
G36*
X113196821Y-63931313D02*
X113196824Y-63931314D01*
X113196825Y-63931314D01*
X113357239Y-63979975D01*
X113357241Y-63979976D01*
X113357244Y-63979977D01*
X113505078Y-64058995D01*
X113634659Y-64165341D01*
X113741005Y-64294922D01*
X113820023Y-64442756D01*
X113868687Y-64603179D01*
X113885117Y-64770000D01*
X113868687Y-64936821D01*
X113820023Y-65097244D01*
X113741005Y-65245078D01*
X113634659Y-65374659D01*
X113505078Y-65481005D01*
X113357244Y-65560023D01*
X113357241Y-65560024D01*
X113357239Y-65560025D01*
X113196825Y-65608686D01*
X113196824Y-65608686D01*
X113196821Y-65608687D01*
X113071804Y-65621000D01*
X112988196Y-65621000D01*
X112863179Y-65608687D01*
X112863176Y-65608686D01*
X112863175Y-65608686D01*
X112702761Y-65560025D01*
X112702759Y-65560024D01*
X112702756Y-65560023D01*
X112554922Y-65481005D01*
X112425341Y-65374659D01*
X112318995Y-65245078D01*
X112239977Y-65097244D01*
X112191313Y-64936821D01*
X112174883Y-64770000D01*
X112191313Y-64603179D01*
X112239977Y-64442756D01*
X112318995Y-64294922D01*
X112425341Y-64165341D01*
X112554922Y-64058995D01*
X112702756Y-63979977D01*
X112702759Y-63979976D01*
X112702761Y-63979975D01*
X112863175Y-63931314D01*
X112863176Y-63931314D01*
X112863179Y-63931313D01*
X112988196Y-63919000D01*
X113071804Y-63919000D01*
X113196821Y-63931313D01*
X113196821Y-63931313D01*
G37*
G36*
X110656821Y-63931313D02*
X110656824Y-63931314D01*
X110656825Y-63931314D01*
X110817239Y-63979975D01*
X110817241Y-63979976D01*
X110817244Y-63979977D01*
X110965078Y-64058995D01*
X111094659Y-64165341D01*
X111201005Y-64294922D01*
X111280023Y-64442756D01*
X111328687Y-64603179D01*
X111345117Y-64770000D01*
X111328687Y-64936821D01*
X111280023Y-65097244D01*
X111201005Y-65245078D01*
X111094659Y-65374659D01*
X110965078Y-65481005D01*
X110817244Y-65560023D01*
X110817241Y-65560024D01*
X110817239Y-65560025D01*
X110656825Y-65608686D01*
X110656824Y-65608686D01*
X110656821Y-65608687D01*
X110531804Y-65621000D01*
X110448196Y-65621000D01*
X110323179Y-65608687D01*
X110323176Y-65608686D01*
X110323175Y-65608686D01*
X110162761Y-65560025D01*
X110162759Y-65560024D01*
X110162756Y-65560023D01*
X110014922Y-65481005D01*
X109885341Y-65374659D01*
X109778995Y-65245078D01*
X109699977Y-65097244D01*
X109651313Y-64936821D01*
X109634883Y-64770000D01*
X109651313Y-64603179D01*
X109699977Y-64442756D01*
X109778995Y-64294922D01*
X109885341Y-64165341D01*
X110014922Y-64058995D01*
X110162756Y-63979977D01*
X110162759Y-63979976D01*
X110162761Y-63979975D01*
X110323175Y-63931314D01*
X110323176Y-63931314D01*
X110323179Y-63931313D01*
X110448196Y-63919000D01*
X110531804Y-63919000D01*
X110656821Y-63931313D01*
X110656821Y-63931313D01*
G37*
G36*
X105576821Y-63931313D02*
X105576824Y-63931314D01*
X105576825Y-63931314D01*
X105737239Y-63979975D01*
X105737241Y-63979976D01*
X105737244Y-63979977D01*
X105885078Y-64058995D01*
X106014659Y-64165341D01*
X106121005Y-64294922D01*
X106200023Y-64442756D01*
X106248687Y-64603179D01*
X106265117Y-64770000D01*
X106248687Y-64936821D01*
X106200023Y-65097244D01*
X106121005Y-65245078D01*
X106014659Y-65374659D01*
X105885078Y-65481005D01*
X105737244Y-65560023D01*
X105737241Y-65560024D01*
X105737239Y-65560025D01*
X105576825Y-65608686D01*
X105576824Y-65608686D01*
X105576821Y-65608687D01*
X105451804Y-65621000D01*
X105368196Y-65621000D01*
X105243179Y-65608687D01*
X105243176Y-65608686D01*
X105243175Y-65608686D01*
X105082761Y-65560025D01*
X105082759Y-65560024D01*
X105082756Y-65560023D01*
X104934922Y-65481005D01*
X104805341Y-65374659D01*
X104698995Y-65245078D01*
X104619977Y-65097244D01*
X104571313Y-64936821D01*
X104554883Y-64770000D01*
X104571313Y-64603179D01*
X104619977Y-64442756D01*
X104698995Y-64294922D01*
X104805341Y-64165341D01*
X104934922Y-64058995D01*
X105082756Y-63979977D01*
X105082759Y-63979976D01*
X105082761Y-63979975D01*
X105243175Y-63931314D01*
X105243176Y-63931314D01*
X105243179Y-63931313D01*
X105368196Y-63919000D01*
X105451804Y-63919000D01*
X105576821Y-63931313D01*
X105576821Y-63931313D01*
G37*
G36*
X103036821Y-63931313D02*
X103036824Y-63931314D01*
X103036825Y-63931314D01*
X103197239Y-63979975D01*
X103197241Y-63979976D01*
X103197244Y-63979977D01*
X103345078Y-64058995D01*
X103474659Y-64165341D01*
X103581005Y-64294922D01*
X103660023Y-64442756D01*
X103708687Y-64603179D01*
X103725117Y-64770000D01*
X103708687Y-64936821D01*
X103660023Y-65097244D01*
X103581005Y-65245078D01*
X103474659Y-65374659D01*
X103345078Y-65481005D01*
X103197244Y-65560023D01*
X103197241Y-65560024D01*
X103197239Y-65560025D01*
X103036825Y-65608686D01*
X103036824Y-65608686D01*
X103036821Y-65608687D01*
X102911804Y-65621000D01*
X102828196Y-65621000D01*
X102703179Y-65608687D01*
X102703176Y-65608686D01*
X102703175Y-65608686D01*
X102542761Y-65560025D01*
X102542759Y-65560024D01*
X102542756Y-65560023D01*
X102394922Y-65481005D01*
X102265341Y-65374659D01*
X102158995Y-65245078D01*
X102079977Y-65097244D01*
X102031313Y-64936821D01*
X102014883Y-64770000D01*
X102031313Y-64603179D01*
X102079977Y-64442756D01*
X102158995Y-64294922D01*
X102265341Y-64165341D01*
X102394922Y-64058995D01*
X102542756Y-63979977D01*
X102542759Y-63979976D01*
X102542761Y-63979975D01*
X102703175Y-63931314D01*
X102703176Y-63931314D01*
X102703179Y-63931313D01*
X102828196Y-63919000D01*
X102911804Y-63919000D01*
X103036821Y-63931313D01*
X103036821Y-63931313D01*
G37*
G36*
X100496821Y-63931313D02*
X100496824Y-63931314D01*
X100496825Y-63931314D01*
X100657239Y-63979975D01*
X100657241Y-63979976D01*
X100657244Y-63979977D01*
X100805078Y-64058995D01*
X100934659Y-64165341D01*
X101041005Y-64294922D01*
X101120023Y-64442756D01*
X101168687Y-64603179D01*
X101185117Y-64770000D01*
X101168687Y-64936821D01*
X101120023Y-65097244D01*
X101041005Y-65245078D01*
X100934659Y-65374659D01*
X100805078Y-65481005D01*
X100657244Y-65560023D01*
X100657241Y-65560024D01*
X100657239Y-65560025D01*
X100496825Y-65608686D01*
X100496824Y-65608686D01*
X100496821Y-65608687D01*
X100371804Y-65621000D01*
X100288196Y-65621000D01*
X100163179Y-65608687D01*
X100163176Y-65608686D01*
X100163175Y-65608686D01*
X100002761Y-65560025D01*
X100002759Y-65560024D01*
X100002756Y-65560023D01*
X99854922Y-65481005D01*
X99725341Y-65374659D01*
X99618995Y-65245078D01*
X99539977Y-65097244D01*
X99491313Y-64936821D01*
X99474883Y-64770000D01*
X99491313Y-64603179D01*
X99539977Y-64442756D01*
X99618995Y-64294922D01*
X99725341Y-64165341D01*
X99854922Y-64058995D01*
X100002756Y-63979977D01*
X100002759Y-63979976D01*
X100002761Y-63979975D01*
X100163175Y-63931314D01*
X100163176Y-63931314D01*
X100163179Y-63931313D01*
X100288196Y-63919000D01*
X100371804Y-63919000D01*
X100496821Y-63931313D01*
X100496821Y-63931313D01*
G37*
G36*
X128436821Y-63931313D02*
X128436824Y-63931314D01*
X128436825Y-63931314D01*
X128597239Y-63979975D01*
X128597241Y-63979976D01*
X128597244Y-63979977D01*
X128745078Y-64058995D01*
X128874659Y-64165341D01*
X128981005Y-64294922D01*
X129060023Y-64442756D01*
X129108687Y-64603179D01*
X129125117Y-64770000D01*
X129108687Y-64936821D01*
X129060023Y-65097244D01*
X128981005Y-65245078D01*
X128874659Y-65374659D01*
X128745078Y-65481005D01*
X128597244Y-65560023D01*
X128597241Y-65560024D01*
X128597239Y-65560025D01*
X128436825Y-65608686D01*
X128436824Y-65608686D01*
X128436821Y-65608687D01*
X128311804Y-65621000D01*
X128228196Y-65621000D01*
X128103179Y-65608687D01*
X128103176Y-65608686D01*
X128103175Y-65608686D01*
X127942761Y-65560025D01*
X127942759Y-65560024D01*
X127942756Y-65560023D01*
X127794922Y-65481005D01*
X127665341Y-65374659D01*
X127558995Y-65245078D01*
X127479977Y-65097244D01*
X127431313Y-64936821D01*
X127414883Y-64770000D01*
X127431313Y-64603179D01*
X127479977Y-64442756D01*
X127558995Y-64294922D01*
X127665341Y-64165341D01*
X127794922Y-64058995D01*
X127942756Y-63979977D01*
X127942759Y-63979976D01*
X127942761Y-63979975D01*
X128103175Y-63931314D01*
X128103176Y-63931314D01*
X128103179Y-63931313D01*
X128228196Y-63919000D01*
X128311804Y-63919000D01*
X128436821Y-63931313D01*
X128436821Y-63931313D01*
G37*
G36*
X100440443Y-57525519D02*
X100506627Y-57532037D01*
X100619853Y-57566384D01*
X100676467Y-57583557D01*
X100815087Y-57657652D01*
X100832991Y-57667222D01*
X100868729Y-57696552D01*
X100970186Y-57779814D01*
X101053448Y-57881271D01*
X101082778Y-57917009D01*
X101082779Y-57917011D01*
X101166443Y-58073533D01*
X101166443Y-58073534D01*
X101217963Y-58243373D01*
X101235359Y-58420000D01*
X101217963Y-58596627D01*
X101183616Y-58709853D01*
X101166443Y-58766467D01*
X101092348Y-58905087D01*
X101082778Y-58922991D01*
X101053448Y-58958729D01*
X100970186Y-59060186D01*
X100868729Y-59143448D01*
X100832991Y-59172778D01*
X100832989Y-59172779D01*
X100676467Y-59256443D01*
X100619853Y-59273616D01*
X100506627Y-59307963D01*
X100440442Y-59314482D01*
X100374260Y-59321000D01*
X100285740Y-59321000D01*
X100219558Y-59314482D01*
X100153373Y-59307963D01*
X100040147Y-59273616D01*
X99983533Y-59256443D01*
X99827011Y-59172779D01*
X99827009Y-59172778D01*
X99791271Y-59143448D01*
X99689814Y-59060186D01*
X99606552Y-58958729D01*
X99577222Y-58922991D01*
X99567652Y-58905087D01*
X99493557Y-58766467D01*
X99476384Y-58709853D01*
X99442037Y-58596627D01*
X99424641Y-58420000D01*
X99442037Y-58243373D01*
X99493557Y-58073534D01*
X99493557Y-58073533D01*
X99577221Y-57917011D01*
X99577222Y-57917009D01*
X99606552Y-57881271D01*
X99689814Y-57779814D01*
X99791271Y-57696552D01*
X99827009Y-57667222D01*
X99844913Y-57657652D01*
X99983533Y-57583557D01*
X100040147Y-57566384D01*
X100153373Y-57532037D01*
X100219557Y-57525519D01*
X100285740Y-57519000D01*
X100374260Y-57519000D01*
X100440443Y-57525519D01*
X100440443Y-57525519D01*
G37*
G36*
X97900443Y-57525519D02*
X97966627Y-57532037D01*
X98079853Y-57566384D01*
X98136467Y-57583557D01*
X98275087Y-57657652D01*
X98292991Y-57667222D01*
X98328729Y-57696552D01*
X98430186Y-57779814D01*
X98513448Y-57881271D01*
X98542778Y-57917009D01*
X98542779Y-57917011D01*
X98626443Y-58073533D01*
X98626443Y-58073534D01*
X98677963Y-58243373D01*
X98695359Y-58420000D01*
X98677963Y-58596627D01*
X98643616Y-58709853D01*
X98626443Y-58766467D01*
X98552348Y-58905087D01*
X98542778Y-58922991D01*
X98513448Y-58958729D01*
X98430186Y-59060186D01*
X98328729Y-59143448D01*
X98292991Y-59172778D01*
X98292989Y-59172779D01*
X98136467Y-59256443D01*
X98079853Y-59273616D01*
X97966627Y-59307963D01*
X97900442Y-59314482D01*
X97834260Y-59321000D01*
X97745740Y-59321000D01*
X97679558Y-59314482D01*
X97613373Y-59307963D01*
X97500147Y-59273616D01*
X97443533Y-59256443D01*
X97287011Y-59172779D01*
X97287009Y-59172778D01*
X97251271Y-59143448D01*
X97149814Y-59060186D01*
X97066552Y-58958729D01*
X97037222Y-58922991D01*
X97027652Y-58905087D01*
X96953557Y-58766467D01*
X96936384Y-58709853D01*
X96902037Y-58596627D01*
X96884641Y-58420000D01*
X96902037Y-58243373D01*
X96953557Y-58073534D01*
X96953557Y-58073533D01*
X97037221Y-57917011D01*
X97037222Y-57917009D01*
X97066552Y-57881271D01*
X97149814Y-57779814D01*
X97251271Y-57696552D01*
X97287009Y-57667222D01*
X97304913Y-57657652D01*
X97443533Y-57583557D01*
X97500147Y-57566384D01*
X97613373Y-57532037D01*
X97679557Y-57525519D01*
X97745740Y-57519000D01*
X97834260Y-57519000D01*
X97900443Y-57525519D01*
X97900443Y-57525519D01*
G37*
G36*
X103771000Y-59321000D02*
X101969000Y-59321000D01*
X101969000Y-57519000D01*
X103771000Y-57519000D01*
X103771000Y-59321000D01*
X103771000Y-59321000D01*
G37*
G36*
X102980443Y-54985519D02*
X103046627Y-54992037D01*
X103159853Y-55026384D01*
X103216467Y-55043557D01*
X103346363Y-55112989D01*
X103372991Y-55127222D01*
X103408729Y-55156552D01*
X103510186Y-55239814D01*
X103593448Y-55341271D01*
X103622778Y-55377009D01*
X103622779Y-55377011D01*
X103706443Y-55533533D01*
X103706443Y-55533534D01*
X103757963Y-55703373D01*
X103775359Y-55880000D01*
X103757963Y-56056627D01*
X103723616Y-56169853D01*
X103706443Y-56226467D01*
X103632348Y-56365087D01*
X103622778Y-56382991D01*
X103593448Y-56418729D01*
X103510186Y-56520186D01*
X103408729Y-56603448D01*
X103372991Y-56632778D01*
X103372989Y-56632779D01*
X103216467Y-56716443D01*
X103159853Y-56733616D01*
X103046627Y-56767963D01*
X102980443Y-56774481D01*
X102914260Y-56781000D01*
X102825740Y-56781000D01*
X102759557Y-56774481D01*
X102693373Y-56767963D01*
X102580147Y-56733616D01*
X102523533Y-56716443D01*
X102367011Y-56632779D01*
X102367009Y-56632778D01*
X102331271Y-56603448D01*
X102229814Y-56520186D01*
X102146552Y-56418729D01*
X102117222Y-56382991D01*
X102107652Y-56365087D01*
X102033557Y-56226467D01*
X102016384Y-56169853D01*
X101982037Y-56056627D01*
X101964641Y-55880000D01*
X101982037Y-55703373D01*
X102033557Y-55533534D01*
X102033557Y-55533533D01*
X102117221Y-55377011D01*
X102117222Y-55377009D01*
X102146552Y-55341271D01*
X102229814Y-55239814D01*
X102331271Y-55156552D01*
X102367009Y-55127222D01*
X102393637Y-55112989D01*
X102523533Y-55043557D01*
X102580147Y-55026384D01*
X102693373Y-54992037D01*
X102759557Y-54985519D01*
X102825740Y-54979000D01*
X102914260Y-54979000D01*
X102980443Y-54985519D01*
X102980443Y-54985519D01*
G37*
G36*
X97900443Y-54985519D02*
X97966627Y-54992037D01*
X98079853Y-55026384D01*
X98136467Y-55043557D01*
X98266363Y-55112989D01*
X98292991Y-55127222D01*
X98328729Y-55156552D01*
X98430186Y-55239814D01*
X98513448Y-55341271D01*
X98542778Y-55377009D01*
X98542779Y-55377011D01*
X98626443Y-55533533D01*
X98626443Y-55533534D01*
X98677963Y-55703373D01*
X98695359Y-55880000D01*
X98677963Y-56056627D01*
X98643616Y-56169853D01*
X98626443Y-56226467D01*
X98552348Y-56365087D01*
X98542778Y-56382991D01*
X98513448Y-56418729D01*
X98430186Y-56520186D01*
X98328729Y-56603448D01*
X98292991Y-56632778D01*
X98292989Y-56632779D01*
X98136467Y-56716443D01*
X98079853Y-56733616D01*
X97966627Y-56767963D01*
X97900443Y-56774481D01*
X97834260Y-56781000D01*
X97745740Y-56781000D01*
X97679557Y-56774481D01*
X97613373Y-56767963D01*
X97500147Y-56733616D01*
X97443533Y-56716443D01*
X97287011Y-56632779D01*
X97287009Y-56632778D01*
X97251271Y-56603448D01*
X97149814Y-56520186D01*
X97066552Y-56418729D01*
X97037222Y-56382991D01*
X97027652Y-56365087D01*
X96953557Y-56226467D01*
X96936384Y-56169853D01*
X96902037Y-56056627D01*
X96884641Y-55880000D01*
X96902037Y-55703373D01*
X96953557Y-55533534D01*
X96953557Y-55533533D01*
X97037221Y-55377011D01*
X97037222Y-55377009D01*
X97066552Y-55341271D01*
X97149814Y-55239814D01*
X97251271Y-55156552D01*
X97287009Y-55127222D01*
X97313637Y-55112989D01*
X97443533Y-55043557D01*
X97500147Y-55026384D01*
X97613373Y-54992037D01*
X97679557Y-54985519D01*
X97745740Y-54979000D01*
X97834260Y-54979000D01*
X97900443Y-54985519D01*
X97900443Y-54985519D01*
G37*
G36*
X100440443Y-54985519D02*
X100506627Y-54992037D01*
X100619853Y-55026384D01*
X100676467Y-55043557D01*
X100806363Y-55112989D01*
X100832991Y-55127222D01*
X100868729Y-55156552D01*
X100970186Y-55239814D01*
X101053448Y-55341271D01*
X101082778Y-55377009D01*
X101082779Y-55377011D01*
X101166443Y-55533533D01*
X101166443Y-55533534D01*
X101217963Y-55703373D01*
X101235359Y-55880000D01*
X101217963Y-56056627D01*
X101183616Y-56169853D01*
X101166443Y-56226467D01*
X101092348Y-56365087D01*
X101082778Y-56382991D01*
X101053448Y-56418729D01*
X100970186Y-56520186D01*
X100868729Y-56603448D01*
X100832991Y-56632778D01*
X100832989Y-56632779D01*
X100676467Y-56716443D01*
X100619853Y-56733616D01*
X100506627Y-56767963D01*
X100440443Y-56774481D01*
X100374260Y-56781000D01*
X100285740Y-56781000D01*
X100219557Y-56774481D01*
X100153373Y-56767963D01*
X100040147Y-56733616D01*
X99983533Y-56716443D01*
X99827011Y-56632779D01*
X99827009Y-56632778D01*
X99791271Y-56603448D01*
X99689814Y-56520186D01*
X99606552Y-56418729D01*
X99577222Y-56382991D01*
X99567652Y-56365087D01*
X99493557Y-56226467D01*
X99476384Y-56169853D01*
X99442037Y-56056627D01*
X99424641Y-55880000D01*
X99442037Y-55703373D01*
X99493557Y-55533534D01*
X99493557Y-55533533D01*
X99577221Y-55377011D01*
X99577222Y-55377009D01*
X99606552Y-55341271D01*
X99689814Y-55239814D01*
X99791271Y-55156552D01*
X99827009Y-55127222D01*
X99853637Y-55112989D01*
X99983533Y-55043557D01*
X100040147Y-55026384D01*
X100153373Y-54992037D01*
X100219557Y-54985519D01*
X100285740Y-54979000D01*
X100374260Y-54979000D01*
X100440443Y-54985519D01*
X100440443Y-54985519D01*
G37*
G36*
X141080442Y-53715518D02*
X141146627Y-53722037D01*
X141259853Y-53756384D01*
X141316467Y-53773557D01*
X141455087Y-53847652D01*
X141472991Y-53857222D01*
X141508729Y-53886552D01*
X141610186Y-53969814D01*
X141693448Y-54071271D01*
X141722778Y-54107009D01*
X141722779Y-54107011D01*
X141806443Y-54263533D01*
X141806443Y-54263534D01*
X141857963Y-54433373D01*
X141875359Y-54610000D01*
X141857963Y-54786627D01*
X141823616Y-54899853D01*
X141806443Y-54956467D01*
X141787430Y-54992037D01*
X141722778Y-55112991D01*
X141693448Y-55148729D01*
X141610186Y-55250186D01*
X141508729Y-55333448D01*
X141472991Y-55362778D01*
X141472989Y-55362779D01*
X141316467Y-55446443D01*
X141259853Y-55463616D01*
X141146627Y-55497963D01*
X141080442Y-55504482D01*
X141014260Y-55511000D01*
X140925740Y-55511000D01*
X140859558Y-55504482D01*
X140793373Y-55497963D01*
X140680147Y-55463616D01*
X140623533Y-55446443D01*
X140467011Y-55362779D01*
X140467009Y-55362778D01*
X140431271Y-55333448D01*
X140329814Y-55250186D01*
X140246552Y-55148729D01*
X140217222Y-55112991D01*
X140152570Y-54992037D01*
X140133557Y-54956467D01*
X140116384Y-54899853D01*
X140082037Y-54786627D01*
X140064641Y-54610000D01*
X140082037Y-54433373D01*
X140133557Y-54263534D01*
X140133557Y-54263533D01*
X140217221Y-54107011D01*
X140217222Y-54107009D01*
X140246552Y-54071271D01*
X140329814Y-53969814D01*
X140431271Y-53886552D01*
X140467009Y-53857222D01*
X140484913Y-53847652D01*
X140623533Y-53773557D01*
X140680147Y-53756384D01*
X140793373Y-53722037D01*
X140859558Y-53715518D01*
X140925740Y-53709000D01*
X141014260Y-53709000D01*
X141080442Y-53715518D01*
X141080442Y-53715518D01*
G37*
G36*
X139331000Y-55511000D02*
X137529000Y-55511000D01*
X137529000Y-53709000D01*
X139331000Y-53709000D01*
X139331000Y-55511000D01*
X139331000Y-55511000D01*
G37*
G36*
X134251000Y-55511000D02*
X132449000Y-55511000D01*
X132449000Y-53709000D01*
X134251000Y-53709000D01*
X134251000Y-55511000D01*
X134251000Y-55511000D01*
G37*
G36*
X133460443Y-51175519D02*
X133526627Y-51182037D01*
X133639853Y-51216384D01*
X133696467Y-51233557D01*
X133835087Y-51307652D01*
X133852991Y-51317222D01*
X133888729Y-51346552D01*
X133990186Y-51429814D01*
X134073448Y-51531271D01*
X134102778Y-51567009D01*
X134102779Y-51567011D01*
X134186443Y-51723533D01*
X134186443Y-51723534D01*
X134237963Y-51893373D01*
X134255359Y-52070000D01*
X134237963Y-52246627D01*
X134203616Y-52359853D01*
X134186443Y-52416467D01*
X134112348Y-52555087D01*
X134102778Y-52572991D01*
X134073448Y-52608729D01*
X133990186Y-52710186D01*
X133888729Y-52793448D01*
X133852991Y-52822778D01*
X133852989Y-52822779D01*
X133696467Y-52906443D01*
X133639853Y-52923616D01*
X133526627Y-52957963D01*
X133460442Y-52964482D01*
X133394260Y-52971000D01*
X133305740Y-52971000D01*
X133239558Y-52964482D01*
X133173373Y-52957963D01*
X133060147Y-52923616D01*
X133003533Y-52906443D01*
X132847011Y-52822779D01*
X132847009Y-52822778D01*
X132811271Y-52793448D01*
X132709814Y-52710186D01*
X132626552Y-52608729D01*
X132597222Y-52572991D01*
X132587652Y-52555087D01*
X132513557Y-52416467D01*
X132496384Y-52359853D01*
X132462037Y-52246627D01*
X132444641Y-52070000D01*
X132462037Y-51893373D01*
X132513557Y-51723534D01*
X132513557Y-51723533D01*
X132597221Y-51567011D01*
X132597222Y-51567009D01*
X132626552Y-51531271D01*
X132709814Y-51429814D01*
X132811271Y-51346552D01*
X132847009Y-51317222D01*
X132864913Y-51307652D01*
X133003533Y-51233557D01*
X133060147Y-51216384D01*
X133173373Y-51182037D01*
X133239557Y-51175519D01*
X133305740Y-51169000D01*
X133394260Y-51169000D01*
X133460443Y-51175519D01*
X133460443Y-51175519D01*
G37*
G36*
X141080443Y-51175519D02*
X141146627Y-51182037D01*
X141259853Y-51216384D01*
X141316467Y-51233557D01*
X141455087Y-51307652D01*
X141472991Y-51317222D01*
X141508729Y-51346552D01*
X141610186Y-51429814D01*
X141693448Y-51531271D01*
X141722778Y-51567009D01*
X141722779Y-51567011D01*
X141806443Y-51723533D01*
X141806443Y-51723534D01*
X141857963Y-51893373D01*
X141875359Y-52070000D01*
X141857963Y-52246627D01*
X141823616Y-52359853D01*
X141806443Y-52416467D01*
X141732348Y-52555087D01*
X141722778Y-52572991D01*
X141693448Y-52608729D01*
X141610186Y-52710186D01*
X141508729Y-52793448D01*
X141472991Y-52822778D01*
X141472989Y-52822779D01*
X141316467Y-52906443D01*
X141259853Y-52923616D01*
X141146627Y-52957963D01*
X141080442Y-52964482D01*
X141014260Y-52971000D01*
X140925740Y-52971000D01*
X140859558Y-52964482D01*
X140793373Y-52957963D01*
X140680147Y-52923616D01*
X140623533Y-52906443D01*
X140467011Y-52822779D01*
X140467009Y-52822778D01*
X140431271Y-52793448D01*
X140329814Y-52710186D01*
X140246552Y-52608729D01*
X140217222Y-52572991D01*
X140207652Y-52555087D01*
X140133557Y-52416467D01*
X140116384Y-52359853D01*
X140082037Y-52246627D01*
X140064641Y-52070000D01*
X140082037Y-51893373D01*
X140133557Y-51723534D01*
X140133557Y-51723533D01*
X140217221Y-51567011D01*
X140217222Y-51567009D01*
X140246552Y-51531271D01*
X140329814Y-51429814D01*
X140431271Y-51346552D01*
X140467009Y-51317222D01*
X140484913Y-51307652D01*
X140623533Y-51233557D01*
X140680147Y-51216384D01*
X140793373Y-51182037D01*
X140859557Y-51175519D01*
X140925740Y-51169000D01*
X141014260Y-51169000D01*
X141080443Y-51175519D01*
X141080443Y-51175519D01*
G37*
G36*
X138540443Y-51175519D02*
X138606627Y-51182037D01*
X138719853Y-51216384D01*
X138776467Y-51233557D01*
X138915087Y-51307652D01*
X138932991Y-51317222D01*
X138968729Y-51346552D01*
X139070186Y-51429814D01*
X139153448Y-51531271D01*
X139182778Y-51567009D01*
X139182779Y-51567011D01*
X139266443Y-51723533D01*
X139266443Y-51723534D01*
X139317963Y-51893373D01*
X139335359Y-52070000D01*
X139317963Y-52246627D01*
X139283616Y-52359853D01*
X139266443Y-52416467D01*
X139192348Y-52555087D01*
X139182778Y-52572991D01*
X139153448Y-52608729D01*
X139070186Y-52710186D01*
X138968729Y-52793448D01*
X138932991Y-52822778D01*
X138932989Y-52822779D01*
X138776467Y-52906443D01*
X138719853Y-52923616D01*
X138606627Y-52957963D01*
X138540442Y-52964482D01*
X138474260Y-52971000D01*
X138385740Y-52971000D01*
X138319558Y-52964482D01*
X138253373Y-52957963D01*
X138140147Y-52923616D01*
X138083533Y-52906443D01*
X137927011Y-52822779D01*
X137927009Y-52822778D01*
X137891271Y-52793448D01*
X137789814Y-52710186D01*
X137706552Y-52608729D01*
X137677222Y-52572991D01*
X137667652Y-52555087D01*
X137593557Y-52416467D01*
X137576384Y-52359853D01*
X137542037Y-52246627D01*
X137524641Y-52070000D01*
X137542037Y-51893373D01*
X137593557Y-51723534D01*
X137593557Y-51723533D01*
X137677221Y-51567011D01*
X137677222Y-51567009D01*
X137706552Y-51531271D01*
X137789814Y-51429814D01*
X137891271Y-51346552D01*
X137927009Y-51317222D01*
X137944913Y-51307652D01*
X138083533Y-51233557D01*
X138140147Y-51216384D01*
X138253373Y-51182037D01*
X138319557Y-51175519D01*
X138385740Y-51169000D01*
X138474260Y-51169000D01*
X138540443Y-51175519D01*
X138540443Y-51175519D01*
G37*
G36*
X133460443Y-48635519D02*
X133526627Y-48642037D01*
X133639853Y-48676384D01*
X133696467Y-48693557D01*
X133835087Y-48767652D01*
X133852991Y-48777222D01*
X133888729Y-48806552D01*
X133990186Y-48889814D01*
X134073448Y-48991271D01*
X134102778Y-49027009D01*
X134102779Y-49027011D01*
X134186443Y-49183533D01*
X134186443Y-49183534D01*
X134237963Y-49353373D01*
X134255359Y-49530000D01*
X134237963Y-49706627D01*
X134203616Y-49819853D01*
X134186443Y-49876467D01*
X134112348Y-50015087D01*
X134102778Y-50032991D01*
X134073448Y-50068729D01*
X133990186Y-50170186D01*
X133888729Y-50253448D01*
X133852991Y-50282778D01*
X133852989Y-50282779D01*
X133696467Y-50366443D01*
X133639853Y-50383616D01*
X133526627Y-50417963D01*
X133460443Y-50424481D01*
X133394260Y-50431000D01*
X133305740Y-50431000D01*
X133239558Y-50424482D01*
X133173373Y-50417963D01*
X133060147Y-50383616D01*
X133003533Y-50366443D01*
X132847011Y-50282779D01*
X132847009Y-50282778D01*
X132811271Y-50253448D01*
X132709814Y-50170186D01*
X132626552Y-50068729D01*
X132597222Y-50032991D01*
X132587652Y-50015087D01*
X132513557Y-49876467D01*
X132496384Y-49819853D01*
X132462037Y-49706627D01*
X132444641Y-49530000D01*
X132462037Y-49353373D01*
X132513557Y-49183534D01*
X132513557Y-49183533D01*
X132597221Y-49027011D01*
X132597222Y-49027009D01*
X132626552Y-48991271D01*
X132709814Y-48889814D01*
X132811271Y-48806552D01*
X132847009Y-48777222D01*
X132864913Y-48767652D01*
X133003533Y-48693557D01*
X133060147Y-48676384D01*
X133173373Y-48642037D01*
X133239557Y-48635519D01*
X133305740Y-48629000D01*
X133394260Y-48629000D01*
X133460443Y-48635519D01*
X133460443Y-48635519D01*
G37*
G36*
X141080443Y-48635519D02*
X141146627Y-48642037D01*
X141259853Y-48676384D01*
X141316467Y-48693557D01*
X141455087Y-48767652D01*
X141472991Y-48777222D01*
X141508729Y-48806552D01*
X141610186Y-48889814D01*
X141693448Y-48991271D01*
X141722778Y-49027009D01*
X141722779Y-49027011D01*
X141806443Y-49183533D01*
X141806443Y-49183534D01*
X141857963Y-49353373D01*
X141875359Y-49530000D01*
X141857963Y-49706627D01*
X141823616Y-49819853D01*
X141806443Y-49876467D01*
X141732348Y-50015087D01*
X141722778Y-50032991D01*
X141693448Y-50068729D01*
X141610186Y-50170186D01*
X141508729Y-50253448D01*
X141472991Y-50282778D01*
X141472989Y-50282779D01*
X141316467Y-50366443D01*
X141259853Y-50383616D01*
X141146627Y-50417963D01*
X141080443Y-50424481D01*
X141014260Y-50431000D01*
X140925740Y-50431000D01*
X140859558Y-50424482D01*
X140793373Y-50417963D01*
X140680147Y-50383616D01*
X140623533Y-50366443D01*
X140467011Y-50282779D01*
X140467009Y-50282778D01*
X140431271Y-50253448D01*
X140329814Y-50170186D01*
X140246552Y-50068729D01*
X140217222Y-50032991D01*
X140207652Y-50015087D01*
X140133557Y-49876467D01*
X140116384Y-49819853D01*
X140082037Y-49706627D01*
X140064641Y-49530000D01*
X140082037Y-49353373D01*
X140133557Y-49183534D01*
X140133557Y-49183533D01*
X140217221Y-49027011D01*
X140217222Y-49027009D01*
X140246552Y-48991271D01*
X140329814Y-48889814D01*
X140431271Y-48806552D01*
X140467009Y-48777222D01*
X140484913Y-48767652D01*
X140623533Y-48693557D01*
X140680147Y-48676384D01*
X140793373Y-48642037D01*
X140859557Y-48635519D01*
X140925740Y-48629000D01*
X141014260Y-48629000D01*
X141080443Y-48635519D01*
X141080443Y-48635519D01*
G37*
G36*
X138540443Y-48635519D02*
X138606627Y-48642037D01*
X138719853Y-48676384D01*
X138776467Y-48693557D01*
X138915087Y-48767652D01*
X138932991Y-48777222D01*
X138968729Y-48806552D01*
X139070186Y-48889814D01*
X139153448Y-48991271D01*
X139182778Y-49027009D01*
X139182779Y-49027011D01*
X139266443Y-49183533D01*
X139266443Y-49183534D01*
X139317963Y-49353373D01*
X139335359Y-49530000D01*
X139317963Y-49706627D01*
X139283616Y-49819853D01*
X139266443Y-49876467D01*
X139192348Y-50015087D01*
X139182778Y-50032991D01*
X139153448Y-50068729D01*
X139070186Y-50170186D01*
X138968729Y-50253448D01*
X138932991Y-50282778D01*
X138932989Y-50282779D01*
X138776467Y-50366443D01*
X138719853Y-50383616D01*
X138606627Y-50417963D01*
X138540443Y-50424481D01*
X138474260Y-50431000D01*
X138385740Y-50431000D01*
X138319558Y-50424482D01*
X138253373Y-50417963D01*
X138140147Y-50383616D01*
X138083533Y-50366443D01*
X137927011Y-50282779D01*
X137927009Y-50282778D01*
X137891271Y-50253448D01*
X137789814Y-50170186D01*
X137706552Y-50068729D01*
X137677222Y-50032991D01*
X137667652Y-50015087D01*
X137593557Y-49876467D01*
X137576384Y-49819853D01*
X137542037Y-49706627D01*
X137524641Y-49530000D01*
X137542037Y-49353373D01*
X137593557Y-49183534D01*
X137593557Y-49183533D01*
X137677221Y-49027011D01*
X137677222Y-49027009D01*
X137706552Y-48991271D01*
X137789814Y-48889814D01*
X137891271Y-48806552D01*
X137927009Y-48777222D01*
X137944913Y-48767652D01*
X138083533Y-48693557D01*
X138140147Y-48676384D01*
X138253373Y-48642037D01*
X138319557Y-48635519D01*
X138385740Y-48629000D01*
X138474260Y-48629000D01*
X138540443Y-48635519D01*
X138540443Y-48635519D01*
G37*
G36*
X103771000Y-47891000D02*
X101969000Y-47891000D01*
X101969000Y-46089000D01*
X103771000Y-46089000D01*
X103771000Y-47891000D01*
X103771000Y-47891000D01*
G37*
G36*
X105520442Y-46095518D02*
X105586627Y-46102037D01*
X105699853Y-46136384D01*
X105756467Y-46153557D01*
X105895087Y-46227652D01*
X105912991Y-46237222D01*
X105948729Y-46266552D01*
X106050186Y-46349814D01*
X106133448Y-46451271D01*
X106162778Y-46487009D01*
X106162779Y-46487011D01*
X106246443Y-46643533D01*
X106246443Y-46643534D01*
X106297963Y-46813373D01*
X106315359Y-46990000D01*
X106297963Y-47166627D01*
X106263616Y-47279853D01*
X106246443Y-47336467D01*
X106172348Y-47475087D01*
X106162778Y-47492991D01*
X106133448Y-47528729D01*
X106050186Y-47630186D01*
X105948729Y-47713448D01*
X105912991Y-47742778D01*
X105912989Y-47742779D01*
X105756467Y-47826443D01*
X105699853Y-47843616D01*
X105586627Y-47877963D01*
X105520443Y-47884481D01*
X105454260Y-47891000D01*
X105365740Y-47891000D01*
X105299557Y-47884481D01*
X105233373Y-47877963D01*
X105120147Y-47843616D01*
X105063533Y-47826443D01*
X104907011Y-47742779D01*
X104907009Y-47742778D01*
X104871271Y-47713448D01*
X104769814Y-47630186D01*
X104686552Y-47528729D01*
X104657222Y-47492991D01*
X104647652Y-47475087D01*
X104573557Y-47336467D01*
X104556384Y-47279853D01*
X104522037Y-47166627D01*
X104504641Y-46990000D01*
X104522037Y-46813373D01*
X104573557Y-46643534D01*
X104573557Y-46643533D01*
X104657221Y-46487011D01*
X104657222Y-46487009D01*
X104686552Y-46451271D01*
X104769814Y-46349814D01*
X104871271Y-46266552D01*
X104907009Y-46237222D01*
X104924913Y-46227652D01*
X105063533Y-46153557D01*
X105120147Y-46136384D01*
X105233373Y-46102037D01*
X105299558Y-46095518D01*
X105365740Y-46089000D01*
X105454260Y-46089000D01*
X105520442Y-46095518D01*
X105520442Y-46095518D01*
G37*
G36*
X120760442Y-46095518D02*
X120826627Y-46102037D01*
X120939853Y-46136384D01*
X120996467Y-46153557D01*
X121135087Y-46227652D01*
X121152991Y-46237222D01*
X121188729Y-46266552D01*
X121290186Y-46349814D01*
X121373448Y-46451271D01*
X121402778Y-46487009D01*
X121402779Y-46487011D01*
X121486443Y-46643533D01*
X121486443Y-46643534D01*
X121537963Y-46813373D01*
X121555359Y-46990000D01*
X121537963Y-47166627D01*
X121503616Y-47279853D01*
X121486443Y-47336467D01*
X121412348Y-47475087D01*
X121402778Y-47492991D01*
X121373448Y-47528729D01*
X121290186Y-47630186D01*
X121188729Y-47713448D01*
X121152991Y-47742778D01*
X121152989Y-47742779D01*
X120996467Y-47826443D01*
X120939853Y-47843616D01*
X120826627Y-47877963D01*
X120760443Y-47884481D01*
X120694260Y-47891000D01*
X120605740Y-47891000D01*
X120539557Y-47884481D01*
X120473373Y-47877963D01*
X120360147Y-47843616D01*
X120303533Y-47826443D01*
X120147011Y-47742779D01*
X120147009Y-47742778D01*
X120111271Y-47713448D01*
X120009814Y-47630186D01*
X119926552Y-47528729D01*
X119897222Y-47492991D01*
X119887652Y-47475087D01*
X119813557Y-47336467D01*
X119796384Y-47279853D01*
X119762037Y-47166627D01*
X119744641Y-46990000D01*
X119762037Y-46813373D01*
X119813557Y-46643534D01*
X119813557Y-46643533D01*
X119897221Y-46487011D01*
X119897222Y-46487009D01*
X119926552Y-46451271D01*
X120009814Y-46349814D01*
X120111271Y-46266552D01*
X120147009Y-46237222D01*
X120164913Y-46227652D01*
X120303533Y-46153557D01*
X120360147Y-46136384D01*
X120473373Y-46102037D01*
X120539558Y-46095518D01*
X120605740Y-46089000D01*
X120694260Y-46089000D01*
X120760442Y-46095518D01*
X120760442Y-46095518D01*
G37*
G36*
X110600442Y-46095518D02*
X110666627Y-46102037D01*
X110779853Y-46136384D01*
X110836467Y-46153557D01*
X110975087Y-46227652D01*
X110992991Y-46237222D01*
X111028729Y-46266552D01*
X111130186Y-46349814D01*
X111213448Y-46451271D01*
X111242778Y-46487009D01*
X111242779Y-46487011D01*
X111326443Y-46643533D01*
X111326443Y-46643534D01*
X111377963Y-46813373D01*
X111395359Y-46990000D01*
X111377963Y-47166627D01*
X111343616Y-47279853D01*
X111326443Y-47336467D01*
X111252348Y-47475087D01*
X111242778Y-47492991D01*
X111213448Y-47528729D01*
X111130186Y-47630186D01*
X111028729Y-47713448D01*
X110992991Y-47742778D01*
X110992989Y-47742779D01*
X110836467Y-47826443D01*
X110779853Y-47843616D01*
X110666627Y-47877963D01*
X110600443Y-47884481D01*
X110534260Y-47891000D01*
X110445740Y-47891000D01*
X110379557Y-47884481D01*
X110313373Y-47877963D01*
X110200147Y-47843616D01*
X110143533Y-47826443D01*
X109987011Y-47742779D01*
X109987009Y-47742778D01*
X109951271Y-47713448D01*
X109849814Y-47630186D01*
X109766552Y-47528729D01*
X109737222Y-47492991D01*
X109727652Y-47475087D01*
X109653557Y-47336467D01*
X109636384Y-47279853D01*
X109602037Y-47166627D01*
X109584641Y-46990000D01*
X109602037Y-46813373D01*
X109653557Y-46643534D01*
X109653557Y-46643533D01*
X109737221Y-46487011D01*
X109737222Y-46487009D01*
X109766552Y-46451271D01*
X109849814Y-46349814D01*
X109951271Y-46266552D01*
X109987009Y-46237222D01*
X110004913Y-46227652D01*
X110143533Y-46153557D01*
X110200147Y-46136384D01*
X110313373Y-46102037D01*
X110379558Y-46095518D01*
X110445740Y-46089000D01*
X110534260Y-46089000D01*
X110600442Y-46095518D01*
X110600442Y-46095518D01*
G37*
G36*
X113140442Y-46095518D02*
X113206627Y-46102037D01*
X113319853Y-46136384D01*
X113376467Y-46153557D01*
X113515087Y-46227652D01*
X113532991Y-46237222D01*
X113568729Y-46266552D01*
X113670186Y-46349814D01*
X113753448Y-46451271D01*
X113782778Y-46487009D01*
X113782779Y-46487011D01*
X113866443Y-46643533D01*
X113866443Y-46643534D01*
X113917963Y-46813373D01*
X113935359Y-46990000D01*
X113917963Y-47166627D01*
X113883616Y-47279853D01*
X113866443Y-47336467D01*
X113792348Y-47475087D01*
X113782778Y-47492991D01*
X113753448Y-47528729D01*
X113670186Y-47630186D01*
X113568729Y-47713448D01*
X113532991Y-47742778D01*
X113532989Y-47742779D01*
X113376467Y-47826443D01*
X113319853Y-47843616D01*
X113206627Y-47877963D01*
X113140443Y-47884481D01*
X113074260Y-47891000D01*
X112985740Y-47891000D01*
X112919557Y-47884481D01*
X112853373Y-47877963D01*
X112740147Y-47843616D01*
X112683533Y-47826443D01*
X112527011Y-47742779D01*
X112527009Y-47742778D01*
X112491271Y-47713448D01*
X112389814Y-47630186D01*
X112306552Y-47528729D01*
X112277222Y-47492991D01*
X112267652Y-47475087D01*
X112193557Y-47336467D01*
X112176384Y-47279853D01*
X112142037Y-47166627D01*
X112124641Y-46990000D01*
X112142037Y-46813373D01*
X112193557Y-46643534D01*
X112193557Y-46643533D01*
X112277221Y-46487011D01*
X112277222Y-46487009D01*
X112306552Y-46451271D01*
X112389814Y-46349814D01*
X112491271Y-46266552D01*
X112527009Y-46237222D01*
X112544913Y-46227652D01*
X112683533Y-46153557D01*
X112740147Y-46136384D01*
X112853373Y-46102037D01*
X112919558Y-46095518D01*
X112985740Y-46089000D01*
X113074260Y-46089000D01*
X113140442Y-46095518D01*
X113140442Y-46095518D01*
G37*
G36*
X115680442Y-46095518D02*
X115746627Y-46102037D01*
X115859853Y-46136384D01*
X115916467Y-46153557D01*
X116055087Y-46227652D01*
X116072991Y-46237222D01*
X116108729Y-46266552D01*
X116210186Y-46349814D01*
X116293448Y-46451271D01*
X116322778Y-46487009D01*
X116322779Y-46487011D01*
X116406443Y-46643533D01*
X116406443Y-46643534D01*
X116457963Y-46813373D01*
X116475359Y-46990000D01*
X116457963Y-47166627D01*
X116423616Y-47279853D01*
X116406443Y-47336467D01*
X116332348Y-47475087D01*
X116322778Y-47492991D01*
X116293448Y-47528729D01*
X116210186Y-47630186D01*
X116108729Y-47713448D01*
X116072991Y-47742778D01*
X116072989Y-47742779D01*
X115916467Y-47826443D01*
X115859853Y-47843616D01*
X115746627Y-47877963D01*
X115680443Y-47884481D01*
X115614260Y-47891000D01*
X115525740Y-47891000D01*
X115459557Y-47884481D01*
X115393373Y-47877963D01*
X115280147Y-47843616D01*
X115223533Y-47826443D01*
X115067011Y-47742779D01*
X115067009Y-47742778D01*
X115031271Y-47713448D01*
X114929814Y-47630186D01*
X114846552Y-47528729D01*
X114817222Y-47492991D01*
X114807652Y-47475087D01*
X114733557Y-47336467D01*
X114716384Y-47279853D01*
X114682037Y-47166627D01*
X114664641Y-46990000D01*
X114682037Y-46813373D01*
X114733557Y-46643534D01*
X114733557Y-46643533D01*
X114817221Y-46487011D01*
X114817222Y-46487009D01*
X114846552Y-46451271D01*
X114929814Y-46349814D01*
X115031271Y-46266552D01*
X115067009Y-46237222D01*
X115084913Y-46227652D01*
X115223533Y-46153557D01*
X115280147Y-46136384D01*
X115393373Y-46102037D01*
X115459558Y-46095518D01*
X115525740Y-46089000D01*
X115614260Y-46089000D01*
X115680442Y-46095518D01*
X115680442Y-46095518D01*
G37*
G36*
X118220442Y-46095518D02*
X118286627Y-46102037D01*
X118399853Y-46136384D01*
X118456467Y-46153557D01*
X118595087Y-46227652D01*
X118612991Y-46237222D01*
X118648729Y-46266552D01*
X118750186Y-46349814D01*
X118833448Y-46451271D01*
X118862778Y-46487009D01*
X118862779Y-46487011D01*
X118946443Y-46643533D01*
X118946443Y-46643534D01*
X118997963Y-46813373D01*
X119015359Y-46990000D01*
X118997963Y-47166627D01*
X118963616Y-47279853D01*
X118946443Y-47336467D01*
X118872348Y-47475087D01*
X118862778Y-47492991D01*
X118833448Y-47528729D01*
X118750186Y-47630186D01*
X118648729Y-47713448D01*
X118612991Y-47742778D01*
X118612989Y-47742779D01*
X118456467Y-47826443D01*
X118399853Y-47843616D01*
X118286627Y-47877963D01*
X118220443Y-47884481D01*
X118154260Y-47891000D01*
X118065740Y-47891000D01*
X117999557Y-47884481D01*
X117933373Y-47877963D01*
X117820147Y-47843616D01*
X117763533Y-47826443D01*
X117607011Y-47742779D01*
X117607009Y-47742778D01*
X117571271Y-47713448D01*
X117469814Y-47630186D01*
X117386552Y-47528729D01*
X117357222Y-47492991D01*
X117347652Y-47475087D01*
X117273557Y-47336467D01*
X117256384Y-47279853D01*
X117222037Y-47166627D01*
X117204641Y-46990000D01*
X117222037Y-46813373D01*
X117273557Y-46643534D01*
X117273557Y-46643533D01*
X117357221Y-46487011D01*
X117357222Y-46487009D01*
X117386552Y-46451271D01*
X117469814Y-46349814D01*
X117571271Y-46266552D01*
X117607009Y-46237222D01*
X117624913Y-46227652D01*
X117763533Y-46153557D01*
X117820147Y-46136384D01*
X117933373Y-46102037D01*
X117999558Y-46095518D01*
X118065740Y-46089000D01*
X118154260Y-46089000D01*
X118220442Y-46095518D01*
X118220442Y-46095518D01*
G37*
G36*
X129171000Y-47891000D02*
X127369000Y-47891000D01*
X127369000Y-46089000D01*
X129171000Y-46089000D01*
X129171000Y-47891000D01*
X129171000Y-47891000D01*
G37*
G36*
X125840442Y-46095518D02*
X125906627Y-46102037D01*
X126019853Y-46136384D01*
X126076467Y-46153557D01*
X126215087Y-46227652D01*
X126232991Y-46237222D01*
X126268729Y-46266552D01*
X126370186Y-46349814D01*
X126453448Y-46451271D01*
X126482778Y-46487009D01*
X126482779Y-46487011D01*
X126566443Y-46643533D01*
X126566443Y-46643534D01*
X126617963Y-46813373D01*
X126635359Y-46990000D01*
X126617963Y-47166627D01*
X126583616Y-47279853D01*
X126566443Y-47336467D01*
X126492348Y-47475087D01*
X126482778Y-47492991D01*
X126453448Y-47528729D01*
X126370186Y-47630186D01*
X126268729Y-47713448D01*
X126232991Y-47742778D01*
X126232989Y-47742779D01*
X126076467Y-47826443D01*
X126019853Y-47843616D01*
X125906627Y-47877963D01*
X125840443Y-47884481D01*
X125774260Y-47891000D01*
X125685740Y-47891000D01*
X125619557Y-47884481D01*
X125553373Y-47877963D01*
X125440147Y-47843616D01*
X125383533Y-47826443D01*
X125227011Y-47742779D01*
X125227009Y-47742778D01*
X125191271Y-47713448D01*
X125089814Y-47630186D01*
X125006552Y-47528729D01*
X124977222Y-47492991D01*
X124967652Y-47475087D01*
X124893557Y-47336467D01*
X124876384Y-47279853D01*
X124842037Y-47166627D01*
X124824641Y-46990000D01*
X124842037Y-46813373D01*
X124893557Y-46643534D01*
X124893557Y-46643533D01*
X124977221Y-46487011D01*
X124977222Y-46487009D01*
X125006552Y-46451271D01*
X125089814Y-46349814D01*
X125191271Y-46266552D01*
X125227009Y-46237222D01*
X125244913Y-46227652D01*
X125383533Y-46153557D01*
X125440147Y-46136384D01*
X125553373Y-46102037D01*
X125619558Y-46095518D01*
X125685740Y-46089000D01*
X125774260Y-46089000D01*
X125840442Y-46095518D01*
X125840442Y-46095518D01*
G37*
G36*
X123300442Y-46095518D02*
X123366627Y-46102037D01*
X123479853Y-46136384D01*
X123536467Y-46153557D01*
X123675087Y-46227652D01*
X123692991Y-46237222D01*
X123728729Y-46266552D01*
X123830186Y-46349814D01*
X123913448Y-46451271D01*
X123942778Y-46487009D01*
X123942779Y-46487011D01*
X124026443Y-46643533D01*
X124026443Y-46643534D01*
X124077963Y-46813373D01*
X124095359Y-46990000D01*
X124077963Y-47166627D01*
X124043616Y-47279853D01*
X124026443Y-47336467D01*
X123952348Y-47475087D01*
X123942778Y-47492991D01*
X123913448Y-47528729D01*
X123830186Y-47630186D01*
X123728729Y-47713448D01*
X123692991Y-47742778D01*
X123692989Y-47742779D01*
X123536467Y-47826443D01*
X123479853Y-47843616D01*
X123366627Y-47877963D01*
X123300443Y-47884481D01*
X123234260Y-47891000D01*
X123145740Y-47891000D01*
X123079557Y-47884481D01*
X123013373Y-47877963D01*
X122900147Y-47843616D01*
X122843533Y-47826443D01*
X122687011Y-47742779D01*
X122687009Y-47742778D01*
X122651271Y-47713448D01*
X122549814Y-47630186D01*
X122466552Y-47528729D01*
X122437222Y-47492991D01*
X122427652Y-47475087D01*
X122353557Y-47336467D01*
X122336384Y-47279853D01*
X122302037Y-47166627D01*
X122284641Y-46990000D01*
X122302037Y-46813373D01*
X122353557Y-46643534D01*
X122353557Y-46643533D01*
X122437221Y-46487011D01*
X122437222Y-46487009D01*
X122466552Y-46451271D01*
X122549814Y-46349814D01*
X122651271Y-46266552D01*
X122687009Y-46237222D01*
X122704913Y-46227652D01*
X122843533Y-46153557D01*
X122900147Y-46136384D01*
X123013373Y-46102037D01*
X123079558Y-46095518D01*
X123145740Y-46089000D01*
X123234260Y-46089000D01*
X123300442Y-46095518D01*
X123300442Y-46095518D01*
G37*
G36*
X97485734Y-42653232D02*
X97695202Y-42739996D01*
X97883723Y-42865962D01*
X98044038Y-43026277D01*
X98170004Y-43214798D01*
X98256768Y-43424266D01*
X98301000Y-43646635D01*
X98301000Y-43873365D01*
X98256768Y-44095734D01*
X98170004Y-44305202D01*
X98044038Y-44493723D01*
X97883723Y-44654038D01*
X97695202Y-44780004D01*
X97485734Y-44866768D01*
X97263365Y-44911000D01*
X97036635Y-44911000D01*
X96814266Y-44866768D01*
X96604798Y-44780004D01*
X96416277Y-44654038D01*
X96255962Y-44493723D01*
X96129996Y-44305202D01*
X96043232Y-44095734D01*
X95999000Y-43873365D01*
X95999000Y-43646635D01*
X96043232Y-43424266D01*
X96129996Y-43214798D01*
X96255962Y-43026277D01*
X96416277Y-42865962D01*
X96604798Y-42739996D01*
X96814266Y-42653232D01*
X97036635Y-42609000D01*
X97263365Y-42609000D01*
X97485734Y-42653232D01*
X97485734Y-42653232D01*
G37*
G36*
X143485734Y-42643232D02*
X143695202Y-42729996D01*
X143883723Y-42855962D01*
X144044038Y-43016277D01*
X144170004Y-43204798D01*
X144256768Y-43414266D01*
X144301000Y-43636635D01*
X144301000Y-43863365D01*
X144256768Y-44085734D01*
X144170004Y-44295202D01*
X144044038Y-44483723D01*
X143883723Y-44644038D01*
X143695202Y-44770004D01*
X143485734Y-44856768D01*
X143263365Y-44901000D01*
X143036635Y-44901000D01*
X142814266Y-44856768D01*
X142604798Y-44770004D01*
X142416277Y-44644038D01*
X142255962Y-44483723D01*
X142129996Y-44295202D01*
X142043232Y-44085734D01*
X141999000Y-43863365D01*
X141999000Y-43636635D01*
X142043232Y-43414266D01*
X142129996Y-43204798D01*
X142255962Y-43016277D01*
X142416277Y-42855962D01*
X142604798Y-42729996D01*
X142814266Y-42643232D01*
X143036635Y-42599000D01*
X143263365Y-42599000D01*
X143485734Y-42643232D01*
X143485734Y-42643232D01*
G37*
M02*
