G04 #@! TF.GenerationSoftware,KiCad,Pcbnew,5.0.2+dfsg1-1~bpo9+1*
G04 #@! TF.CreationDate,2019-05-23T13:43:39+01:00*
G04 #@! TF.ProjectId,pcb01,70636230-312e-46b6-9963-61645f706362,rev?*
G04 #@! TF.SameCoordinates,Original*
G04 #@! TF.FileFunction,Copper,L1,Top*
G04 #@! TF.FilePolarity,Positive*
%FSLAX46Y46*%
G04 Gerber Fmt 4.6, Leading zero omitted, Abs format (unit mm)*
G04 Created by KiCad (PCBNEW 5.0.2+dfsg1-1~bpo9+1) date Thu 23 May 2019 13:43:39 BST*
%MOMM*%
%LPD*%
G01*
G04 APERTURE LIST*
G04 #@! TA.AperFunction,ComponentPad*
%ADD10R,1.600000X1.600000*%
G04 #@! TD*
G04 #@! TA.AperFunction,ComponentPad*
%ADD11O,1.600000X1.600000*%
G04 #@! TD*
G04 #@! TA.AperFunction,ComponentPad*
%ADD12C,1.600000*%
G04 #@! TD*
G04 #@! TA.AperFunction,ComponentPad*
%ADD13O,1.700000X1.700000*%
G04 #@! TD*
G04 #@! TA.AperFunction,ComponentPad*
%ADD14R,1.700000X1.700000*%
G04 #@! TD*
G04 #@! TA.AperFunction,Conductor*
%ADD15C,0.500000*%
G04 #@! TD*
G04 #@! TA.AperFunction,Conductor*
%ADD16C,0.250000*%
G04 #@! TD*
G04 #@! TA.AperFunction,Conductor*
%ADD17C,0.254000*%
G04 #@! TD*
G04 APERTURE END LIST*
D10*
G04 #@! TO.P,TB2,1*
G04 #@! TO.N,Net-(SW2-Pad1)*
X100330000Y-80010000D03*
D11*
G04 #@! TO.P,TB2,17*
G04 #@! TO.N,Net-(TB2-Pad17)*
X133350000Y-64770000D03*
G04 #@! TO.P,TB2,2*
G04 #@! TO.N,Net-(SW2-Pad4)*
X102870000Y-80010000D03*
G04 #@! TO.P,TB2,18*
G04 #@! TO.N,Net-(TB2-Pad18)*
X130810000Y-64770000D03*
G04 #@! TO.P,TB2,3*
G04 #@! TO.N,N/C*
X105410000Y-80010000D03*
G04 #@! TO.P,TB2,19*
G04 #@! TO.N,Net-(R4-Pad1)*
X128270000Y-64770000D03*
G04 #@! TO.P,TB2,4*
G04 #@! TO.N,COM/GND*
X107950000Y-80010000D03*
G04 #@! TO.P,TB2,20*
G04 #@! TO.N,Net-(TB2-Pad20)*
X125730000Y-64770000D03*
G04 #@! TO.P,TB2,5*
G04 #@! TO.N,Net-(TB2-Pad5)*
X110490000Y-80010000D03*
G04 #@! TO.P,TB2,21*
G04 #@! TO.N,Net-(SW2-Pad3)*
X123190000Y-64770000D03*
G04 #@! TO.P,TB2,6*
G04 #@! TO.N,Net-(TB1-Pad16)*
X113030000Y-80010000D03*
G04 #@! TO.P,TB2,22*
G04 #@! TO.N,Net-(SW2-Pad6)*
X120650000Y-64770000D03*
G04 #@! TO.P,TB2,7*
G04 #@! TO.N,Net-(TB1-Pad15)*
X115570000Y-80010000D03*
G04 #@! TO.P,TB2,23*
G04 #@! TO.N,Net-(TB2-Pad23)*
X118110000Y-64770000D03*
G04 #@! TO.P,TB2,8*
G04 #@! TO.N,Net-(TB1-Pad14)*
X118110000Y-80010000D03*
G04 #@! TO.P,TB2,24*
G04 #@! TO.N,Net-(TB2-Pad24)*
X115570000Y-64770000D03*
G04 #@! TO.P,TB2,9*
G04 #@! TO.N,Net-(TB1-Pad13)*
X120650000Y-80010000D03*
G04 #@! TO.P,TB2,25*
G04 #@! TO.N,Net-(TB2-Pad25)*
X113030000Y-64770000D03*
G04 #@! TO.P,TB2,10*
G04 #@! TO.N,Net-(TB1-Pad12)*
X123190000Y-80010000D03*
G04 #@! TO.P,TB2,26*
G04 #@! TO.N,Net-(TB2-Pad26)*
X110490000Y-64770000D03*
G04 #@! TO.P,TB2,11*
G04 #@! TO.N,Net-(TB1-Pad11)*
X125730000Y-80010000D03*
G04 #@! TO.P,TB2,27*
G04 #@! TO.N,+5V*
X107950000Y-64770000D03*
G04 #@! TO.P,TB2,12*
G04 #@! TO.N,Net-(TB1-Pad10)*
X128270000Y-80010000D03*
G04 #@! TO.P,TB2,28*
G04 #@! TO.N,Net-(TB2-Pad28)*
X105410000Y-64770000D03*
G04 #@! TO.P,TB2,13*
G04 #@! TO.N,Net-(TB2-Pad13)*
X130810000Y-80010000D03*
G04 #@! TO.P,TB2,29*
G04 #@! TO.N,COM/GND*
X102870000Y-64770000D03*
G04 #@! TO.P,TB2,14*
G04 #@! TO.N,Net-(TB2-Pad14)*
X133350000Y-80010000D03*
G04 #@! TO.P,TB2,30*
G04 #@! TO.N,Net-(J2-Pad1)*
X100330000Y-64770000D03*
G04 #@! TO.P,TB2,15*
G04 #@! TO.N,Net-(TB2-Pad15)*
X135890000Y-80010000D03*
G04 #@! TO.P,TB2,16*
G04 #@! TO.N,Net-(TB2-Pad16)*
X135890000Y-64770000D03*
G04 #@! TD*
D12*
G04 #@! TO.P,C1,1*
G04 #@! TO.N,Net-(C1-Pad1)*
X101600000Y-105410000D03*
G04 #@! TO.P,C1,2*
G04 #@! TO.N,COM/GND*
X106600000Y-105410000D03*
G04 #@! TD*
D13*
G04 #@! TO.P,J1,4*
G04 #@! TO.N,Net-(J1-Pad4)*
X128270000Y-106680000D03*
G04 #@! TO.P,J1,3*
G04 #@! TO.N,Net-(J1-Pad3)*
X125730000Y-106680000D03*
G04 #@! TO.P,J1,2*
G04 #@! TO.N,Net-(J1-Pad2)*
X123190000Y-106680000D03*
D14*
G04 #@! TO.P,J1,1*
G04 #@! TO.N,Net-(J1-Pad1)*
X120650000Y-106680000D03*
G04 #@! TD*
G04 #@! TO.P,J3,1*
G04 #@! TO.N,/VBatt*
X102870000Y-46990000D03*
D13*
G04 #@! TO.P,J3,2*
G04 #@! TO.N,COM/GND*
X105410000Y-46990000D03*
G04 #@! TD*
D10*
G04 #@! TO.P,TB1,1*
G04 #@! TO.N,Net-(C1-Pad1)*
X113030000Y-100330000D03*
D11*
G04 #@! TO.P,TB1,9*
G04 #@! TO.N,COM/GND*
X130810000Y-85090000D03*
G04 #@! TO.P,TB1,2*
G04 #@! TO.N,+5V*
X115570000Y-100330000D03*
G04 #@! TO.P,TB1,10*
G04 #@! TO.N,Net-(TB1-Pad10)*
X128270000Y-85090000D03*
G04 #@! TO.P,TB1,3*
G04 #@! TO.N,COM/GND*
X118110000Y-100330000D03*
G04 #@! TO.P,TB1,11*
G04 #@! TO.N,Net-(TB1-Pad11)*
X125730000Y-85090000D03*
G04 #@! TO.P,TB1,4*
G04 #@! TO.N,Net-(J1-Pad1)*
X120650000Y-100330000D03*
G04 #@! TO.P,TB1,12*
G04 #@! TO.N,Net-(TB1-Pad12)*
X123190000Y-85090000D03*
G04 #@! TO.P,TB1,5*
G04 #@! TO.N,Net-(J1-Pad2)*
X123190000Y-100330000D03*
G04 #@! TO.P,TB1,13*
G04 #@! TO.N,Net-(TB1-Pad13)*
X120650000Y-85090000D03*
G04 #@! TO.P,TB1,6*
G04 #@! TO.N,Net-(J1-Pad3)*
X125730000Y-100330000D03*
G04 #@! TO.P,TB1,14*
G04 #@! TO.N,Net-(TB1-Pad14)*
X118110000Y-85090000D03*
G04 #@! TO.P,TB1,7*
G04 #@! TO.N,Net-(J1-Pad4)*
X128270000Y-100330000D03*
G04 #@! TO.P,TB1,15*
G04 #@! TO.N,Net-(TB1-Pad15)*
X115570000Y-85090000D03*
G04 #@! TO.P,TB1,8*
G04 #@! TO.N,COM/GND*
X130810000Y-100330000D03*
G04 #@! TO.P,TB1,16*
G04 #@! TO.N,Net-(TB1-Pad16)*
X113030000Y-85090000D03*
G04 #@! TD*
D13*
G04 #@! TO.P,U1,8*
G04 #@! TO.N,Net-(TB2-Pad5)*
X110490000Y-46990000D03*
G04 #@! TO.P,U1,7*
G04 #@! TO.N,Net-(U1-Pad7)*
X113030000Y-46990000D03*
G04 #@! TO.P,U1,6*
G04 #@! TO.N,Net-(U1-Pad6)*
X115570000Y-46990000D03*
G04 #@! TO.P,U1,5*
G04 #@! TO.N,Net-(U1-Pad5)*
X118110000Y-46990000D03*
G04 #@! TO.P,U1,4*
G04 #@! TO.N,Net-(TB2-Pad23)*
X120650000Y-46990000D03*
G04 #@! TO.P,U1,3*
G04 #@! TO.N,Net-(TB2-Pad24)*
X123190000Y-46990000D03*
G04 #@! TO.P,U1,2*
G04 #@! TO.N,COM/GND*
X125730000Y-46990000D03*
D14*
G04 #@! TO.P,U1,1*
G04 #@! TO.N,+5V*
X128270000Y-46990000D03*
G04 #@! TD*
G04 #@! TO.P,J2,1*
G04 #@! TO.N,Net-(J2-Pad1)*
X133350000Y-54610000D03*
D13*
G04 #@! TO.P,J2,2*
G04 #@! TO.N,Net-(C1-Pad1)*
X133350000Y-52070000D03*
G04 #@! TO.P,J2,3*
G04 #@! TO.N,+5V*
X133350000Y-49530000D03*
G04 #@! TD*
D14*
G04 #@! TO.P,SW2,1*
G04 #@! TO.N,Net-(SW2-Pad1)*
X138430000Y-54610000D03*
D13*
G04 #@! TO.P,SW2,2*
G04 #@! TO.N,Net-(R1-Pad1)*
X138430000Y-52070000D03*
G04 #@! TO.P,SW2,3*
G04 #@! TO.N,Net-(SW2-Pad3)*
X138430000Y-49530000D03*
G04 #@! TO.P,SW2,4*
G04 #@! TO.N,Net-(SW2-Pad4)*
X140970000Y-54610000D03*
G04 #@! TO.P,SW2,5*
G04 #@! TO.N,Net-(SW2-Pad5)*
X140970000Y-52070000D03*
G04 #@! TO.P,SW2,6*
G04 #@! TO.N,Net-(SW2-Pad6)*
X140970000Y-49530000D03*
G04 #@! TD*
D14*
G04 #@! TO.P,SW1,1*
G04 #@! TO.N,/VBatt*
X102870000Y-58420000D03*
D13*
G04 #@! TO.P,SW1,2*
G04 #@! TO.N,Net-(C1-Pad1)*
X100330000Y-58420000D03*
G04 #@! TO.P,SW1,3*
G04 #@! TO.N,Net-(SW1-Pad3)*
X97790000Y-58420000D03*
G04 #@! TO.P,SW1,4*
G04 #@! TO.N,N/C*
X102870000Y-55880000D03*
G04 #@! TO.P,SW1,5*
X100330000Y-55880000D03*
G04 #@! TO.P,SW1,6*
X97790000Y-55880000D03*
G04 #@! TD*
D11*
G04 #@! TO.P,R1,2*
G04 #@! TO.N,COM/GND*
X138430000Y-107950000D03*
D12*
G04 #@! TO.P,R1,1*
G04 #@! TO.N,Net-(R1-Pad1)*
X138430000Y-97790000D03*
G04 #@! TD*
G04 #@! TO.P,R2,1*
G04 #@! TO.N,Net-(R2-Pad1)*
X138430000Y-85090000D03*
D11*
G04 #@! TO.P,R2,2*
G04 #@! TO.N,Net-(R1-Pad1)*
X138430000Y-95250000D03*
G04 #@! TD*
D14*
G04 #@! TO.P,U2,1*
G04 #@! TO.N,Net-(U2-Pad1)*
X142240000Y-85090000D03*
D13*
G04 #@! TO.P,U2,2*
G04 #@! TO.N,Net-(R2-Pad1)*
X142240000Y-87630000D03*
G04 #@! TO.P,U2,3*
G04 #@! TO.N,Net-(SW2-Pad5)*
X142240000Y-90170000D03*
G04 #@! TO.P,U2,4*
G04 #@! TO.N,COM/GND*
X142240000Y-92710000D03*
G04 #@! TO.P,U2,5*
G04 #@! TO.N,+5V*
X142240000Y-95250000D03*
G04 #@! TO.P,U2,6*
G04 #@! TO.N,Net-(U2-Pad6)*
X142240000Y-97790000D03*
G04 #@! TD*
D11*
G04 #@! TO.P,R3,2*
G04 #@! TO.N,COM/GND*
X134620000Y-107950000D03*
D12*
G04 #@! TO.P,R3,1*
G04 #@! TO.N,Net-(C1-Pad1)*
X134620000Y-97790000D03*
G04 #@! TD*
G04 #@! TO.P,R4,1*
G04 #@! TO.N,Net-(R4-Pad1)*
X134620000Y-85090000D03*
D11*
G04 #@! TO.P,R4,2*
G04 #@! TO.N,Net-(C1-Pad1)*
X134620000Y-95250000D03*
G04 #@! TD*
D15*
G04 #@! TO.N,/VBatt*
X104170001Y-49640001D02*
X104170001Y-57119999D01*
X104170001Y-57119999D02*
X102870000Y-58420000D01*
X102870000Y-48340000D02*
X104170001Y-49640001D01*
X102870000Y-46990000D02*
X102870000Y-48340000D01*
D16*
G04 #@! TO.N,Net-(SW2-Pad6)*
X139700000Y-48260000D02*
X140970000Y-49530000D01*
X120650000Y-64770000D02*
X121920000Y-63500000D01*
X121920000Y-63500000D02*
X121920000Y-58420000D01*
X132080000Y-48260000D02*
X139700000Y-48260000D01*
X121920000Y-58420000D02*
X132080000Y-48260000D01*
G04 #@! TO.N,Net-(SW2-Pad5)*
X142240000Y-90170000D02*
X143510000Y-88900000D01*
X143510000Y-54610000D02*
X140970000Y-52070000D01*
X143510000Y-88900000D02*
X143510000Y-54610000D01*
G04 #@! TO.N,Net-(SW2-Pad4)*
X102870000Y-77470000D02*
X102870000Y-80010000D01*
X109220000Y-71120000D02*
X102870000Y-77470000D01*
X121045002Y-71120000D02*
X109220000Y-71120000D01*
X126855001Y-65310001D02*
X121045002Y-71120000D01*
X126855001Y-64229999D02*
X126855001Y-65310001D01*
X124910010Y-62285008D02*
X126855001Y-64229999D01*
X124910010Y-57972810D02*
X124910010Y-62285008D01*
X140970000Y-54610000D02*
X139700000Y-55880000D01*
X127002820Y-55880000D02*
X124910010Y-57972810D01*
X139700000Y-55880000D02*
X127002820Y-55880000D01*
G04 #@! TO.N,Net-(SW2-Pad3)*
X138430000Y-49530000D02*
X137065001Y-50894999D01*
X137065001Y-50894999D02*
X131985001Y-50894999D01*
X123190000Y-59690000D02*
X123190000Y-64770000D01*
X131985001Y-50894999D02*
X130715001Y-50894999D01*
X130715001Y-50894999D02*
X123190000Y-58420000D01*
X123190000Y-58420000D02*
X123190000Y-59690000D01*
G04 #@! TO.N,Net-(SW2-Pad1)*
X100330000Y-78960000D02*
X100330000Y-80010000D01*
X119830010Y-70669990D02*
X108620010Y-70669990D01*
X124460000Y-66040000D02*
X119830010Y-70669990D01*
X108620010Y-70669990D02*
X100330000Y-78960000D01*
X124460000Y-57786410D02*
X124460000Y-66040000D01*
X128811411Y-53434999D02*
X124460000Y-57786410D01*
X136154999Y-53434999D02*
X128811411Y-53434999D01*
X138430000Y-54610000D02*
X137330000Y-54610000D01*
X137330000Y-54610000D02*
X136154999Y-53434999D01*
G04 #@! TO.N,Net-(TB2-Pad5)*
X110490000Y-83820000D02*
X110490000Y-80010000D01*
X109220000Y-85090000D02*
X110490000Y-83820000D01*
X97790000Y-85090000D02*
X109220000Y-85090000D01*
X95914989Y-83214989D02*
X97790000Y-85090000D01*
X110490000Y-46990000D02*
X107950000Y-44450000D01*
X107950000Y-44450000D02*
X101600000Y-44450000D01*
X95914989Y-50135011D02*
X95914989Y-83214989D01*
X101600000Y-44450000D02*
X95914989Y-50135011D01*
G04 #@! TO.N,Net-(R4-Pad1)*
X139700000Y-76200000D02*
X128270000Y-64770000D01*
X139700000Y-80010000D02*
X134620000Y-85090000D01*
X139700000Y-76200000D02*
X139700000Y-80010000D01*
G04 #@! TO.N,Net-(TB2-Pad23)*
X120650000Y-46990000D02*
X120650000Y-48260000D01*
X117310001Y-65569999D02*
X118110000Y-64770000D01*
X116984999Y-65895001D02*
X117310001Y-65569999D01*
X115029999Y-65895001D02*
X116984999Y-65895001D01*
X114300000Y-65165002D02*
X115029999Y-65895001D01*
X114300000Y-54610000D02*
X114300000Y-65165002D01*
X120650000Y-48260000D02*
X114300000Y-54610000D01*
G04 #@! TO.N,Net-(TB2-Pad24)*
X115570000Y-54610000D02*
X115570000Y-64770000D01*
X123190000Y-46990000D02*
X115570000Y-54610000D01*
G04 #@! TD*
D17*
G04 #@! TO.N,COM/GND*
G36*
X141679138Y-42767201D02*
X141415000Y-43404887D01*
X141415000Y-44095113D01*
X141679138Y-44732799D01*
X142167201Y-45220862D01*
X142804887Y-45485000D01*
X143495113Y-45485000D01*
X144132799Y-45220862D01*
X144440000Y-44913661D01*
X144440001Y-108596340D01*
X144132799Y-108289138D01*
X143495113Y-108025000D01*
X142804887Y-108025000D01*
X142167201Y-108289138D01*
X141679138Y-108777201D01*
X141415000Y-109414887D01*
X141415000Y-110105113D01*
X141679138Y-110742799D01*
X141986339Y-111050000D01*
X98313661Y-111050000D01*
X98620862Y-110742799D01*
X98885000Y-110105113D01*
X98885000Y-109414887D01*
X98620862Y-108777201D01*
X98142702Y-108299041D01*
X133228086Y-108299041D01*
X133467611Y-108805134D01*
X133882577Y-109181041D01*
X134270961Y-109341904D01*
X134493000Y-109219915D01*
X134493000Y-108077000D01*
X134747000Y-108077000D01*
X134747000Y-109219915D01*
X134969039Y-109341904D01*
X135357423Y-109181041D01*
X135772389Y-108805134D01*
X136011914Y-108299041D01*
X137038086Y-108299041D01*
X137277611Y-108805134D01*
X137692577Y-109181041D01*
X138080961Y-109341904D01*
X138303000Y-109219915D01*
X138303000Y-108077000D01*
X138557000Y-108077000D01*
X138557000Y-109219915D01*
X138779039Y-109341904D01*
X139167423Y-109181041D01*
X139582389Y-108805134D01*
X139821914Y-108299041D01*
X139700629Y-108077000D01*
X138557000Y-108077000D01*
X138303000Y-108077000D01*
X137159371Y-108077000D01*
X137038086Y-108299041D01*
X136011914Y-108299041D01*
X135890629Y-108077000D01*
X134747000Y-108077000D01*
X134493000Y-108077000D01*
X133349371Y-108077000D01*
X133228086Y-108299041D01*
X98142702Y-108299041D01*
X98132799Y-108289138D01*
X97495113Y-108025000D01*
X96804887Y-108025000D01*
X96167201Y-108289138D01*
X95860000Y-108596339D01*
X95860000Y-105124561D01*
X100165000Y-105124561D01*
X100165000Y-105695439D01*
X100383466Y-106222862D01*
X100787138Y-106626534D01*
X101314561Y-106845000D01*
X101885439Y-106845000D01*
X102412862Y-106626534D01*
X102621651Y-106417745D01*
X105771861Y-106417745D01*
X105845995Y-106663864D01*
X106383223Y-106856965D01*
X106953454Y-106829778D01*
X107354005Y-106663864D01*
X107428139Y-106417745D01*
X106600000Y-105589605D01*
X105771861Y-106417745D01*
X102621651Y-106417745D01*
X102816534Y-106222862D01*
X103035000Y-105695439D01*
X103035000Y-105193223D01*
X105153035Y-105193223D01*
X105180222Y-105763454D01*
X105346136Y-106164005D01*
X105592255Y-106238139D01*
X106420395Y-105410000D01*
X106779605Y-105410000D01*
X107607745Y-106238139D01*
X107853864Y-106164005D01*
X107973918Y-105830000D01*
X119152560Y-105830000D01*
X119152560Y-107530000D01*
X119201843Y-107777765D01*
X119342191Y-107987809D01*
X119552235Y-108128157D01*
X119800000Y-108177440D01*
X121500000Y-108177440D01*
X121747765Y-108128157D01*
X121957809Y-107987809D01*
X122098157Y-107777765D01*
X122107184Y-107732381D01*
X122119375Y-107750625D01*
X122610582Y-108078839D01*
X123043744Y-108165000D01*
X123336256Y-108165000D01*
X123769418Y-108078839D01*
X124260625Y-107750625D01*
X124460000Y-107452239D01*
X124659375Y-107750625D01*
X125150582Y-108078839D01*
X125583744Y-108165000D01*
X125876256Y-108165000D01*
X126309418Y-108078839D01*
X126800625Y-107750625D01*
X127000000Y-107452239D01*
X127199375Y-107750625D01*
X127690582Y-108078839D01*
X128123744Y-108165000D01*
X128416256Y-108165000D01*
X128849418Y-108078839D01*
X129340625Y-107750625D01*
X129440628Y-107600959D01*
X133228086Y-107600959D01*
X133349371Y-107823000D01*
X134493000Y-107823000D01*
X134493000Y-106680085D01*
X134747000Y-106680085D01*
X134747000Y-107823000D01*
X135890629Y-107823000D01*
X136011914Y-107600959D01*
X137038086Y-107600959D01*
X137159371Y-107823000D01*
X138303000Y-107823000D01*
X138303000Y-106680085D01*
X138557000Y-106680085D01*
X138557000Y-107823000D01*
X139700629Y-107823000D01*
X139821914Y-107600959D01*
X139582389Y-107094866D01*
X139167423Y-106718959D01*
X138779039Y-106558096D01*
X138557000Y-106680085D01*
X138303000Y-106680085D01*
X138080961Y-106558096D01*
X137692577Y-106718959D01*
X137277611Y-107094866D01*
X137038086Y-107600959D01*
X136011914Y-107600959D01*
X135772389Y-107094866D01*
X135357423Y-106718959D01*
X134969039Y-106558096D01*
X134747000Y-106680085D01*
X134493000Y-106680085D01*
X134270961Y-106558096D01*
X133882577Y-106718959D01*
X133467611Y-107094866D01*
X133228086Y-107600959D01*
X129440628Y-107600959D01*
X129668839Y-107259418D01*
X129784092Y-106680000D01*
X129668839Y-106100582D01*
X129340625Y-105609375D01*
X128849418Y-105281161D01*
X128416256Y-105195000D01*
X128123744Y-105195000D01*
X127690582Y-105281161D01*
X127199375Y-105609375D01*
X127000000Y-105907761D01*
X126800625Y-105609375D01*
X126309418Y-105281161D01*
X125876256Y-105195000D01*
X125583744Y-105195000D01*
X125150582Y-105281161D01*
X124659375Y-105609375D01*
X124460000Y-105907761D01*
X124260625Y-105609375D01*
X123769418Y-105281161D01*
X123336256Y-105195000D01*
X123043744Y-105195000D01*
X122610582Y-105281161D01*
X122119375Y-105609375D01*
X122107184Y-105627619D01*
X122098157Y-105582235D01*
X121957809Y-105372191D01*
X121747765Y-105231843D01*
X121500000Y-105182560D01*
X119800000Y-105182560D01*
X119552235Y-105231843D01*
X119342191Y-105372191D01*
X119201843Y-105582235D01*
X119152560Y-105830000D01*
X107973918Y-105830000D01*
X108046965Y-105626777D01*
X108019778Y-105056546D01*
X107853864Y-104655995D01*
X107607745Y-104581861D01*
X106779605Y-105410000D01*
X106420395Y-105410000D01*
X105592255Y-104581861D01*
X105346136Y-104655995D01*
X105153035Y-105193223D01*
X103035000Y-105193223D01*
X103035000Y-105124561D01*
X102816534Y-104597138D01*
X102621651Y-104402255D01*
X105771861Y-104402255D01*
X106600000Y-105230395D01*
X107428139Y-104402255D01*
X107354005Y-104156136D01*
X106816777Y-103963035D01*
X106246546Y-103990222D01*
X105845995Y-104156136D01*
X105771861Y-104402255D01*
X102621651Y-104402255D01*
X102412862Y-104193466D01*
X101885439Y-103975000D01*
X101314561Y-103975000D01*
X100787138Y-104193466D01*
X100383466Y-104597138D01*
X100165000Y-105124561D01*
X95860000Y-105124561D01*
X95860000Y-99530000D01*
X111582560Y-99530000D01*
X111582560Y-101130000D01*
X111631843Y-101377765D01*
X111772191Y-101587809D01*
X111982235Y-101728157D01*
X112230000Y-101777440D01*
X113830000Y-101777440D01*
X114077765Y-101728157D01*
X114287809Y-101587809D01*
X114428157Y-101377765D01*
X114454785Y-101243894D01*
X114535423Y-101364577D01*
X115010091Y-101681740D01*
X115428667Y-101765000D01*
X115711333Y-101765000D01*
X116129909Y-101681740D01*
X116604577Y-101364577D01*
X116860947Y-100980892D01*
X116957611Y-101185134D01*
X117372577Y-101561041D01*
X117760961Y-101721904D01*
X117983000Y-101599915D01*
X117983000Y-100457000D01*
X117963000Y-100457000D01*
X117963000Y-100203000D01*
X117983000Y-100203000D01*
X117983000Y-99060085D01*
X118237000Y-99060085D01*
X118237000Y-100203000D01*
X118257000Y-100203000D01*
X118257000Y-100457000D01*
X118237000Y-100457000D01*
X118237000Y-101599915D01*
X118459039Y-101721904D01*
X118847423Y-101561041D01*
X119262389Y-101185134D01*
X119359053Y-100980892D01*
X119615423Y-101364577D01*
X120090091Y-101681740D01*
X120508667Y-101765000D01*
X120791333Y-101765000D01*
X121209909Y-101681740D01*
X121684577Y-101364577D01*
X121920000Y-101012242D01*
X122155423Y-101364577D01*
X122630091Y-101681740D01*
X123048667Y-101765000D01*
X123331333Y-101765000D01*
X123749909Y-101681740D01*
X124224577Y-101364577D01*
X124460000Y-101012242D01*
X124695423Y-101364577D01*
X125170091Y-101681740D01*
X125588667Y-101765000D01*
X125871333Y-101765000D01*
X126289909Y-101681740D01*
X126764577Y-101364577D01*
X127000000Y-101012242D01*
X127235423Y-101364577D01*
X127710091Y-101681740D01*
X128128667Y-101765000D01*
X128411333Y-101765000D01*
X128829909Y-101681740D01*
X129304577Y-101364577D01*
X129560947Y-100980892D01*
X129657611Y-101185134D01*
X130072577Y-101561041D01*
X130460961Y-101721904D01*
X130683000Y-101599915D01*
X130683000Y-100457000D01*
X130937000Y-100457000D01*
X130937000Y-101599915D01*
X131159039Y-101721904D01*
X131547423Y-101561041D01*
X131962389Y-101185134D01*
X132201914Y-100679041D01*
X132080629Y-100457000D01*
X130937000Y-100457000D01*
X130683000Y-100457000D01*
X130663000Y-100457000D01*
X130663000Y-100203000D01*
X130683000Y-100203000D01*
X130683000Y-99060085D01*
X130937000Y-99060085D01*
X130937000Y-100203000D01*
X132080629Y-100203000D01*
X132201914Y-99980959D01*
X131962389Y-99474866D01*
X131547423Y-99098959D01*
X131159039Y-98938096D01*
X130937000Y-99060085D01*
X130683000Y-99060085D01*
X130460961Y-98938096D01*
X130072577Y-99098959D01*
X129657611Y-99474866D01*
X129560947Y-99679108D01*
X129304577Y-99295423D01*
X128829909Y-98978260D01*
X128411333Y-98895000D01*
X128128667Y-98895000D01*
X127710091Y-98978260D01*
X127235423Y-99295423D01*
X127000000Y-99647758D01*
X126764577Y-99295423D01*
X126289909Y-98978260D01*
X125871333Y-98895000D01*
X125588667Y-98895000D01*
X125170091Y-98978260D01*
X124695423Y-99295423D01*
X124460000Y-99647758D01*
X124224577Y-99295423D01*
X123749909Y-98978260D01*
X123331333Y-98895000D01*
X123048667Y-98895000D01*
X122630091Y-98978260D01*
X122155423Y-99295423D01*
X121920000Y-99647758D01*
X121684577Y-99295423D01*
X121209909Y-98978260D01*
X120791333Y-98895000D01*
X120508667Y-98895000D01*
X120090091Y-98978260D01*
X119615423Y-99295423D01*
X119359053Y-99679108D01*
X119262389Y-99474866D01*
X118847423Y-99098959D01*
X118459039Y-98938096D01*
X118237000Y-99060085D01*
X117983000Y-99060085D01*
X117760961Y-98938096D01*
X117372577Y-99098959D01*
X116957611Y-99474866D01*
X116860947Y-99679108D01*
X116604577Y-99295423D01*
X116129909Y-98978260D01*
X115711333Y-98895000D01*
X115428667Y-98895000D01*
X115010091Y-98978260D01*
X114535423Y-99295423D01*
X114454785Y-99416106D01*
X114428157Y-99282235D01*
X114287809Y-99072191D01*
X114077765Y-98931843D01*
X113830000Y-98882560D01*
X112230000Y-98882560D01*
X111982235Y-98931843D01*
X111772191Y-99072191D01*
X111631843Y-99282235D01*
X111582560Y-99530000D01*
X95860000Y-99530000D01*
X95860000Y-95250000D01*
X133156887Y-95250000D01*
X133268260Y-95809909D01*
X133585423Y-96284577D01*
X133937168Y-96519606D01*
X133807138Y-96573466D01*
X133403466Y-96977138D01*
X133185000Y-97504561D01*
X133185000Y-98075439D01*
X133403466Y-98602862D01*
X133807138Y-99006534D01*
X134334561Y-99225000D01*
X134905439Y-99225000D01*
X135432862Y-99006534D01*
X135836534Y-98602862D01*
X136055000Y-98075439D01*
X136055000Y-97504561D01*
X135836534Y-96977138D01*
X135432862Y-96573466D01*
X135302832Y-96519606D01*
X135654577Y-96284577D01*
X135971740Y-95809909D01*
X136083113Y-95250000D01*
X136966887Y-95250000D01*
X137078260Y-95809909D01*
X137395423Y-96284577D01*
X137747168Y-96519606D01*
X137617138Y-96573466D01*
X137213466Y-96977138D01*
X136995000Y-97504561D01*
X136995000Y-98075439D01*
X137213466Y-98602862D01*
X137617138Y-99006534D01*
X138144561Y-99225000D01*
X138715439Y-99225000D01*
X139242862Y-99006534D01*
X139646534Y-98602862D01*
X139865000Y-98075439D01*
X139865000Y-97504561D01*
X139646534Y-96977138D01*
X139242862Y-96573466D01*
X139112832Y-96519606D01*
X139464577Y-96284577D01*
X139781740Y-95809909D01*
X139893113Y-95250000D01*
X140725908Y-95250000D01*
X140841161Y-95829418D01*
X141169375Y-96320625D01*
X141467761Y-96520000D01*
X141169375Y-96719375D01*
X140841161Y-97210582D01*
X140725908Y-97790000D01*
X140841161Y-98369418D01*
X141169375Y-98860625D01*
X141660582Y-99188839D01*
X142093744Y-99275000D01*
X142386256Y-99275000D01*
X142819418Y-99188839D01*
X143310625Y-98860625D01*
X143638839Y-98369418D01*
X143754092Y-97790000D01*
X143638839Y-97210582D01*
X143310625Y-96719375D01*
X143012239Y-96520000D01*
X143310625Y-96320625D01*
X143638839Y-95829418D01*
X143754092Y-95250000D01*
X143638839Y-94670582D01*
X143310625Y-94179375D01*
X142991522Y-93966157D01*
X143121358Y-93905183D01*
X143511645Y-93476924D01*
X143681476Y-93066890D01*
X143560155Y-92837000D01*
X142367000Y-92837000D01*
X142367000Y-92857000D01*
X142113000Y-92857000D01*
X142113000Y-92837000D01*
X140919845Y-92837000D01*
X140798524Y-93066890D01*
X140968355Y-93476924D01*
X141358642Y-93905183D01*
X141488478Y-93966157D01*
X141169375Y-94179375D01*
X140841161Y-94670582D01*
X140725908Y-95250000D01*
X139893113Y-95250000D01*
X139781740Y-94690091D01*
X139464577Y-94215423D01*
X138989909Y-93898260D01*
X138571333Y-93815000D01*
X138288667Y-93815000D01*
X137870091Y-93898260D01*
X137395423Y-94215423D01*
X137078260Y-94690091D01*
X136966887Y-95250000D01*
X136083113Y-95250000D01*
X135971740Y-94690091D01*
X135654577Y-94215423D01*
X135179909Y-93898260D01*
X134761333Y-93815000D01*
X134478667Y-93815000D01*
X134060091Y-93898260D01*
X133585423Y-94215423D01*
X133268260Y-94690091D01*
X133156887Y-95250000D01*
X95860000Y-95250000D01*
X95860000Y-84234801D01*
X97199671Y-85574473D01*
X97242071Y-85637929D01*
X97493463Y-85805904D01*
X97715148Y-85850000D01*
X97715153Y-85850000D01*
X97790000Y-85864888D01*
X97864847Y-85850000D01*
X109145153Y-85850000D01*
X109220000Y-85864888D01*
X109294847Y-85850000D01*
X109294852Y-85850000D01*
X109516537Y-85805904D01*
X109767929Y-85637929D01*
X109810331Y-85574470D01*
X110294801Y-85090000D01*
X111566887Y-85090000D01*
X111678260Y-85649909D01*
X111995423Y-86124577D01*
X112470091Y-86441740D01*
X112888667Y-86525000D01*
X113171333Y-86525000D01*
X113589909Y-86441740D01*
X114064577Y-86124577D01*
X114300000Y-85772242D01*
X114535423Y-86124577D01*
X115010091Y-86441740D01*
X115428667Y-86525000D01*
X115711333Y-86525000D01*
X116129909Y-86441740D01*
X116604577Y-86124577D01*
X116840000Y-85772242D01*
X117075423Y-86124577D01*
X117550091Y-86441740D01*
X117968667Y-86525000D01*
X118251333Y-86525000D01*
X118669909Y-86441740D01*
X119144577Y-86124577D01*
X119380000Y-85772242D01*
X119615423Y-86124577D01*
X120090091Y-86441740D01*
X120508667Y-86525000D01*
X120791333Y-86525000D01*
X121209909Y-86441740D01*
X121684577Y-86124577D01*
X121920000Y-85772242D01*
X122155423Y-86124577D01*
X122630091Y-86441740D01*
X123048667Y-86525000D01*
X123331333Y-86525000D01*
X123749909Y-86441740D01*
X124224577Y-86124577D01*
X124460000Y-85772242D01*
X124695423Y-86124577D01*
X125170091Y-86441740D01*
X125588667Y-86525000D01*
X125871333Y-86525000D01*
X126289909Y-86441740D01*
X126764577Y-86124577D01*
X127000000Y-85772242D01*
X127235423Y-86124577D01*
X127710091Y-86441740D01*
X128128667Y-86525000D01*
X128411333Y-86525000D01*
X128829909Y-86441740D01*
X129304577Y-86124577D01*
X129560947Y-85740892D01*
X129657611Y-85945134D01*
X130072577Y-86321041D01*
X130460961Y-86481904D01*
X130683000Y-86359915D01*
X130683000Y-85217000D01*
X130937000Y-85217000D01*
X130937000Y-86359915D01*
X131159039Y-86481904D01*
X131547423Y-86321041D01*
X131962389Y-85945134D01*
X132201914Y-85439041D01*
X132080629Y-85217000D01*
X130937000Y-85217000D01*
X130683000Y-85217000D01*
X130663000Y-85217000D01*
X130663000Y-84963000D01*
X130683000Y-84963000D01*
X130683000Y-83820085D01*
X130937000Y-83820085D01*
X130937000Y-84963000D01*
X132080629Y-84963000D01*
X132201914Y-84740959D01*
X131962389Y-84234866D01*
X131547423Y-83858959D01*
X131159039Y-83698096D01*
X130937000Y-83820085D01*
X130683000Y-83820085D01*
X130460961Y-83698096D01*
X130072577Y-83858959D01*
X129657611Y-84234866D01*
X129560947Y-84439108D01*
X129304577Y-84055423D01*
X128829909Y-83738260D01*
X128411333Y-83655000D01*
X128128667Y-83655000D01*
X127710091Y-83738260D01*
X127235423Y-84055423D01*
X127000000Y-84407758D01*
X126764577Y-84055423D01*
X126289909Y-83738260D01*
X125871333Y-83655000D01*
X125588667Y-83655000D01*
X125170091Y-83738260D01*
X124695423Y-84055423D01*
X124460000Y-84407758D01*
X124224577Y-84055423D01*
X123749909Y-83738260D01*
X123331333Y-83655000D01*
X123048667Y-83655000D01*
X122630091Y-83738260D01*
X122155423Y-84055423D01*
X121920000Y-84407758D01*
X121684577Y-84055423D01*
X121209909Y-83738260D01*
X120791333Y-83655000D01*
X120508667Y-83655000D01*
X120090091Y-83738260D01*
X119615423Y-84055423D01*
X119380000Y-84407758D01*
X119144577Y-84055423D01*
X118669909Y-83738260D01*
X118251333Y-83655000D01*
X117968667Y-83655000D01*
X117550091Y-83738260D01*
X117075423Y-84055423D01*
X116840000Y-84407758D01*
X116604577Y-84055423D01*
X116129909Y-83738260D01*
X115711333Y-83655000D01*
X115428667Y-83655000D01*
X115010091Y-83738260D01*
X114535423Y-84055423D01*
X114300000Y-84407758D01*
X114064577Y-84055423D01*
X113589909Y-83738260D01*
X113171333Y-83655000D01*
X112888667Y-83655000D01*
X112470091Y-83738260D01*
X111995423Y-84055423D01*
X111678260Y-84530091D01*
X111566887Y-85090000D01*
X110294801Y-85090000D01*
X110974473Y-84410329D01*
X111037929Y-84367929D01*
X111205904Y-84116537D01*
X111250000Y-83894852D01*
X111250000Y-83894848D01*
X111264888Y-83820001D01*
X111250000Y-83745154D01*
X111250000Y-81228043D01*
X111524577Y-81044577D01*
X111760000Y-80692242D01*
X111995423Y-81044577D01*
X112470091Y-81361740D01*
X112888667Y-81445000D01*
X113171333Y-81445000D01*
X113589909Y-81361740D01*
X114064577Y-81044577D01*
X114300000Y-80692242D01*
X114535423Y-81044577D01*
X115010091Y-81361740D01*
X115428667Y-81445000D01*
X115711333Y-81445000D01*
X116129909Y-81361740D01*
X116604577Y-81044577D01*
X116840000Y-80692242D01*
X117075423Y-81044577D01*
X117550091Y-81361740D01*
X117968667Y-81445000D01*
X118251333Y-81445000D01*
X118669909Y-81361740D01*
X119144577Y-81044577D01*
X119380000Y-80692242D01*
X119615423Y-81044577D01*
X120090091Y-81361740D01*
X120508667Y-81445000D01*
X120791333Y-81445000D01*
X121209909Y-81361740D01*
X121684577Y-81044577D01*
X121920000Y-80692242D01*
X122155423Y-81044577D01*
X122630091Y-81361740D01*
X123048667Y-81445000D01*
X123331333Y-81445000D01*
X123749909Y-81361740D01*
X124224577Y-81044577D01*
X124460000Y-80692242D01*
X124695423Y-81044577D01*
X125170091Y-81361740D01*
X125588667Y-81445000D01*
X125871333Y-81445000D01*
X126289909Y-81361740D01*
X126764577Y-81044577D01*
X127000000Y-80692242D01*
X127235423Y-81044577D01*
X127710091Y-81361740D01*
X128128667Y-81445000D01*
X128411333Y-81445000D01*
X128829909Y-81361740D01*
X129304577Y-81044577D01*
X129540000Y-80692242D01*
X129775423Y-81044577D01*
X130250091Y-81361740D01*
X130668667Y-81445000D01*
X130951333Y-81445000D01*
X131369909Y-81361740D01*
X131844577Y-81044577D01*
X132080000Y-80692242D01*
X132315423Y-81044577D01*
X132790091Y-81361740D01*
X133208667Y-81445000D01*
X133491333Y-81445000D01*
X133909909Y-81361740D01*
X134384577Y-81044577D01*
X134620000Y-80692242D01*
X134855423Y-81044577D01*
X135330091Y-81361740D01*
X135748667Y-81445000D01*
X136031333Y-81445000D01*
X136449909Y-81361740D01*
X136924577Y-81044577D01*
X137241740Y-80569909D01*
X137353113Y-80010000D01*
X137241740Y-79450091D01*
X136924577Y-78975423D01*
X136449909Y-78658260D01*
X136031333Y-78575000D01*
X135748667Y-78575000D01*
X135330091Y-78658260D01*
X134855423Y-78975423D01*
X134620000Y-79327758D01*
X134384577Y-78975423D01*
X133909909Y-78658260D01*
X133491333Y-78575000D01*
X133208667Y-78575000D01*
X132790091Y-78658260D01*
X132315423Y-78975423D01*
X132080000Y-79327758D01*
X131844577Y-78975423D01*
X131369909Y-78658260D01*
X130951333Y-78575000D01*
X130668667Y-78575000D01*
X130250091Y-78658260D01*
X129775423Y-78975423D01*
X129540000Y-79327758D01*
X129304577Y-78975423D01*
X128829909Y-78658260D01*
X128411333Y-78575000D01*
X128128667Y-78575000D01*
X127710091Y-78658260D01*
X127235423Y-78975423D01*
X127000000Y-79327758D01*
X126764577Y-78975423D01*
X126289909Y-78658260D01*
X125871333Y-78575000D01*
X125588667Y-78575000D01*
X125170091Y-78658260D01*
X124695423Y-78975423D01*
X124460000Y-79327758D01*
X124224577Y-78975423D01*
X123749909Y-78658260D01*
X123331333Y-78575000D01*
X123048667Y-78575000D01*
X122630091Y-78658260D01*
X122155423Y-78975423D01*
X121920000Y-79327758D01*
X121684577Y-78975423D01*
X121209909Y-78658260D01*
X120791333Y-78575000D01*
X120508667Y-78575000D01*
X120090091Y-78658260D01*
X119615423Y-78975423D01*
X119380000Y-79327758D01*
X119144577Y-78975423D01*
X118669909Y-78658260D01*
X118251333Y-78575000D01*
X117968667Y-78575000D01*
X117550091Y-78658260D01*
X117075423Y-78975423D01*
X116840000Y-79327758D01*
X116604577Y-78975423D01*
X116129909Y-78658260D01*
X115711333Y-78575000D01*
X115428667Y-78575000D01*
X115010091Y-78658260D01*
X114535423Y-78975423D01*
X114300000Y-79327758D01*
X114064577Y-78975423D01*
X113589909Y-78658260D01*
X113171333Y-78575000D01*
X112888667Y-78575000D01*
X112470091Y-78658260D01*
X111995423Y-78975423D01*
X111760000Y-79327758D01*
X111524577Y-78975423D01*
X111049909Y-78658260D01*
X110631333Y-78575000D01*
X110348667Y-78575000D01*
X109930091Y-78658260D01*
X109455423Y-78975423D01*
X109199053Y-79359108D01*
X109102389Y-79154866D01*
X108687423Y-78778959D01*
X108299039Y-78618096D01*
X108077000Y-78740085D01*
X108077000Y-79883000D01*
X108097000Y-79883000D01*
X108097000Y-80137000D01*
X108077000Y-80137000D01*
X108077000Y-81279915D01*
X108299039Y-81401904D01*
X108687423Y-81241041D01*
X109102389Y-80865134D01*
X109199053Y-80660892D01*
X109455423Y-81044577D01*
X109730001Y-81228044D01*
X109730000Y-83505198D01*
X108905199Y-84330000D01*
X98104802Y-84330000D01*
X96674989Y-82900188D01*
X96674989Y-64770000D01*
X98866887Y-64770000D01*
X98978260Y-65329909D01*
X99295423Y-65804577D01*
X99770091Y-66121740D01*
X100188667Y-66205000D01*
X100471333Y-66205000D01*
X100889909Y-66121740D01*
X101364577Y-65804577D01*
X101620947Y-65420892D01*
X101717611Y-65625134D01*
X102132577Y-66001041D01*
X102520961Y-66161904D01*
X102743000Y-66039915D01*
X102743000Y-64897000D01*
X102723000Y-64897000D01*
X102723000Y-64643000D01*
X102743000Y-64643000D01*
X102743000Y-63500085D01*
X102520961Y-63378096D01*
X102132577Y-63538959D01*
X101717611Y-63914866D01*
X101620947Y-64119108D01*
X101364577Y-63735423D01*
X100889909Y-63418260D01*
X100471333Y-63335000D01*
X100188667Y-63335000D01*
X99770091Y-63418260D01*
X99295423Y-63735423D01*
X98978260Y-64210091D01*
X98866887Y-64770000D01*
X96674989Y-64770000D01*
X96674989Y-59424197D01*
X96719375Y-59490625D01*
X97210582Y-59818839D01*
X97643744Y-59905000D01*
X97936256Y-59905000D01*
X98369418Y-59818839D01*
X98860625Y-59490625D01*
X99060000Y-59192239D01*
X99259375Y-59490625D01*
X99750582Y-59818839D01*
X100183744Y-59905000D01*
X100476256Y-59905000D01*
X100909418Y-59818839D01*
X101400625Y-59490625D01*
X101412816Y-59472381D01*
X101421843Y-59517765D01*
X101562191Y-59727809D01*
X101772235Y-59868157D01*
X102020000Y-59917440D01*
X103720000Y-59917440D01*
X103967765Y-59868157D01*
X104177809Y-59727809D01*
X104318157Y-59517765D01*
X104367440Y-59270000D01*
X104367440Y-58174139D01*
X104734157Y-57807422D01*
X104808050Y-57758048D01*
X104883513Y-57645111D01*
X104933700Y-57570000D01*
X105003653Y-57465309D01*
X105055001Y-57207164D01*
X105055001Y-57207159D01*
X105072338Y-57120000D01*
X105055001Y-57032840D01*
X105055001Y-49727160D01*
X105072338Y-49640000D01*
X105055001Y-49552841D01*
X105055001Y-49552836D01*
X105003653Y-49294691D01*
X104808050Y-49001952D01*
X104734157Y-48952578D01*
X104118810Y-48337231D01*
X104177809Y-48297809D01*
X104318157Y-48087765D01*
X104338739Y-47984292D01*
X104643076Y-48261645D01*
X105053110Y-48431476D01*
X105283000Y-48310155D01*
X105283000Y-47117000D01*
X105537000Y-47117000D01*
X105537000Y-48310155D01*
X105766890Y-48431476D01*
X106176924Y-48261645D01*
X106605183Y-47871358D01*
X106851486Y-47346892D01*
X106730819Y-47117000D01*
X105537000Y-47117000D01*
X105283000Y-47117000D01*
X105263000Y-47117000D01*
X105263000Y-46863000D01*
X105283000Y-46863000D01*
X105283000Y-45669845D01*
X105537000Y-45669845D01*
X105537000Y-46863000D01*
X106730819Y-46863000D01*
X106851486Y-46633108D01*
X106605183Y-46108642D01*
X106176924Y-45718355D01*
X105766890Y-45548524D01*
X105537000Y-45669845D01*
X105283000Y-45669845D01*
X105053110Y-45548524D01*
X104643076Y-45718355D01*
X104338739Y-45995708D01*
X104318157Y-45892235D01*
X104177809Y-45682191D01*
X103967765Y-45541843D01*
X103720000Y-45492560D01*
X102020000Y-45492560D01*
X101772235Y-45541843D01*
X101562191Y-45682191D01*
X101421843Y-45892235D01*
X101372560Y-46140000D01*
X101372560Y-47840000D01*
X101421843Y-48087765D01*
X101562191Y-48297809D01*
X101772235Y-48438157D01*
X101996042Y-48482675D01*
X102036348Y-48685309D01*
X102182576Y-48904154D01*
X102182578Y-48904156D01*
X102231952Y-48978049D01*
X102305845Y-49027423D01*
X103285001Y-50006580D01*
X103285002Y-54448457D01*
X103016256Y-54395000D01*
X102723744Y-54395000D01*
X102290582Y-54481161D01*
X101799375Y-54809375D01*
X101600000Y-55107761D01*
X101400625Y-54809375D01*
X100909418Y-54481161D01*
X100476256Y-54395000D01*
X100183744Y-54395000D01*
X99750582Y-54481161D01*
X99259375Y-54809375D01*
X99060000Y-55107761D01*
X98860625Y-54809375D01*
X98369418Y-54481161D01*
X97936256Y-54395000D01*
X97643744Y-54395000D01*
X97210582Y-54481161D01*
X96719375Y-54809375D01*
X96674989Y-54875803D01*
X96674989Y-50449812D01*
X101914802Y-45210000D01*
X107635199Y-45210000D01*
X109048791Y-46623593D01*
X108975908Y-46990000D01*
X109091161Y-47569418D01*
X109419375Y-48060625D01*
X109910582Y-48388839D01*
X110343744Y-48475000D01*
X110636256Y-48475000D01*
X111069418Y-48388839D01*
X111560625Y-48060625D01*
X111760000Y-47762239D01*
X111959375Y-48060625D01*
X112450582Y-48388839D01*
X112883744Y-48475000D01*
X113176256Y-48475000D01*
X113609418Y-48388839D01*
X114100625Y-48060625D01*
X114300000Y-47762239D01*
X114499375Y-48060625D01*
X114990582Y-48388839D01*
X115423744Y-48475000D01*
X115716256Y-48475000D01*
X116149418Y-48388839D01*
X116640625Y-48060625D01*
X116840000Y-47762239D01*
X117039375Y-48060625D01*
X117530582Y-48388839D01*
X117963744Y-48475000D01*
X118256256Y-48475000D01*
X118689418Y-48388839D01*
X119180625Y-48060625D01*
X119380000Y-47762239D01*
X119579375Y-48060625D01*
X119696388Y-48138810D01*
X113815530Y-54019669D01*
X113752071Y-54062071D01*
X113584096Y-54313464D01*
X113540000Y-54535149D01*
X113540000Y-54535153D01*
X113525112Y-54610000D01*
X113540000Y-54684847D01*
X113540001Y-63408333D01*
X113171333Y-63335000D01*
X112888667Y-63335000D01*
X112470091Y-63418260D01*
X111995423Y-63735423D01*
X111760000Y-64087758D01*
X111524577Y-63735423D01*
X111049909Y-63418260D01*
X110631333Y-63335000D01*
X110348667Y-63335000D01*
X109930091Y-63418260D01*
X109455423Y-63735423D01*
X109220000Y-64087758D01*
X108984577Y-63735423D01*
X108509909Y-63418260D01*
X108091333Y-63335000D01*
X107808667Y-63335000D01*
X107390091Y-63418260D01*
X106915423Y-63735423D01*
X106680000Y-64087758D01*
X106444577Y-63735423D01*
X105969909Y-63418260D01*
X105551333Y-63335000D01*
X105268667Y-63335000D01*
X104850091Y-63418260D01*
X104375423Y-63735423D01*
X104119053Y-64119108D01*
X104022389Y-63914866D01*
X103607423Y-63538959D01*
X103219039Y-63378096D01*
X102997000Y-63500085D01*
X102997000Y-64643000D01*
X103017000Y-64643000D01*
X103017000Y-64897000D01*
X102997000Y-64897000D01*
X102997000Y-66039915D01*
X103219039Y-66161904D01*
X103607423Y-66001041D01*
X104022389Y-65625134D01*
X104119053Y-65420892D01*
X104375423Y-65804577D01*
X104850091Y-66121740D01*
X105268667Y-66205000D01*
X105551333Y-66205000D01*
X105969909Y-66121740D01*
X106444577Y-65804577D01*
X106680000Y-65452242D01*
X106915423Y-65804577D01*
X107390091Y-66121740D01*
X107808667Y-66205000D01*
X108091333Y-66205000D01*
X108509909Y-66121740D01*
X108984577Y-65804577D01*
X109220000Y-65452242D01*
X109455423Y-65804577D01*
X109930091Y-66121740D01*
X110348667Y-66205000D01*
X110631333Y-66205000D01*
X111049909Y-66121740D01*
X111524577Y-65804577D01*
X111760000Y-65452242D01*
X111995423Y-65804577D01*
X112470091Y-66121740D01*
X112888667Y-66205000D01*
X113171333Y-66205000D01*
X113589909Y-66121740D01*
X113944804Y-65884607D01*
X114439671Y-66379476D01*
X114482070Y-66442930D01*
X114545523Y-66485328D01*
X114545525Y-66485330D01*
X114670901Y-66569103D01*
X114733462Y-66610905D01*
X114955147Y-66655001D01*
X114955151Y-66655001D01*
X115029998Y-66669889D01*
X115104845Y-66655001D01*
X116910152Y-66655001D01*
X116984999Y-66669889D01*
X117059846Y-66655001D01*
X117059851Y-66655001D01*
X117281536Y-66610905D01*
X117532928Y-66442930D01*
X117575330Y-66379471D01*
X117786113Y-66168688D01*
X117968667Y-66205000D01*
X118251333Y-66205000D01*
X118669909Y-66121740D01*
X119144577Y-65804577D01*
X119380000Y-65452242D01*
X119615423Y-65804577D01*
X120090091Y-66121740D01*
X120508667Y-66205000D01*
X120791333Y-66205000D01*
X121209909Y-66121740D01*
X121684577Y-65804577D01*
X121920000Y-65452242D01*
X122155423Y-65804577D01*
X122630091Y-66121740D01*
X123048667Y-66205000D01*
X123220198Y-66205000D01*
X119515209Y-69909990D01*
X108694858Y-69909990D01*
X108620010Y-69895102D01*
X108545162Y-69909990D01*
X108545158Y-69909990D01*
X108323473Y-69954086D01*
X108072081Y-70122061D01*
X108029681Y-70185517D01*
X99845530Y-78369669D01*
X99782071Y-78412071D01*
X99681518Y-78562560D01*
X99530000Y-78562560D01*
X99282235Y-78611843D01*
X99072191Y-78752191D01*
X98931843Y-78962235D01*
X98882560Y-79210000D01*
X98882560Y-80810000D01*
X98931843Y-81057765D01*
X99072191Y-81267809D01*
X99282235Y-81408157D01*
X99530000Y-81457440D01*
X101130000Y-81457440D01*
X101377765Y-81408157D01*
X101587809Y-81267809D01*
X101728157Y-81057765D01*
X101754785Y-80923894D01*
X101835423Y-81044577D01*
X102310091Y-81361740D01*
X102728667Y-81445000D01*
X103011333Y-81445000D01*
X103429909Y-81361740D01*
X103904577Y-81044577D01*
X104140000Y-80692242D01*
X104375423Y-81044577D01*
X104850091Y-81361740D01*
X105268667Y-81445000D01*
X105551333Y-81445000D01*
X105969909Y-81361740D01*
X106444577Y-81044577D01*
X106700947Y-80660892D01*
X106797611Y-80865134D01*
X107212577Y-81241041D01*
X107600961Y-81401904D01*
X107823000Y-81279915D01*
X107823000Y-80137000D01*
X107803000Y-80137000D01*
X107803000Y-79883000D01*
X107823000Y-79883000D01*
X107823000Y-78740085D01*
X107600961Y-78618096D01*
X107212577Y-78778959D01*
X106797611Y-79154866D01*
X106700947Y-79359108D01*
X106444577Y-78975423D01*
X105969909Y-78658260D01*
X105551333Y-78575000D01*
X105268667Y-78575000D01*
X104850091Y-78658260D01*
X104375423Y-78975423D01*
X104140000Y-79327758D01*
X103904577Y-78975423D01*
X103630000Y-78791957D01*
X103630000Y-77784801D01*
X109534802Y-71880000D01*
X120970155Y-71880000D01*
X121045002Y-71894888D01*
X121119849Y-71880000D01*
X121119854Y-71880000D01*
X121341539Y-71835904D01*
X121592931Y-71667929D01*
X121635333Y-71604470D01*
X127339477Y-65900328D01*
X127359101Y-65887216D01*
X127710091Y-66121740D01*
X128128667Y-66205000D01*
X128411333Y-66205000D01*
X128593887Y-66168688D01*
X138940000Y-76514802D01*
X138940001Y-79695197D01*
X134958302Y-83676897D01*
X134905439Y-83655000D01*
X134334561Y-83655000D01*
X133807138Y-83873466D01*
X133403466Y-84277138D01*
X133185000Y-84804561D01*
X133185000Y-85375439D01*
X133403466Y-85902862D01*
X133807138Y-86306534D01*
X134334561Y-86525000D01*
X134905439Y-86525000D01*
X135432862Y-86306534D01*
X135836534Y-85902862D01*
X136055000Y-85375439D01*
X136055000Y-84804561D01*
X136995000Y-84804561D01*
X136995000Y-85375439D01*
X137213466Y-85902862D01*
X137617138Y-86306534D01*
X138144561Y-86525000D01*
X138715439Y-86525000D01*
X139242862Y-86306534D01*
X139646534Y-85902862D01*
X139865000Y-85375439D01*
X139865000Y-84804561D01*
X139646534Y-84277138D01*
X139242862Y-83873466D01*
X138715439Y-83655000D01*
X138144561Y-83655000D01*
X137617138Y-83873466D01*
X137213466Y-84277138D01*
X136995000Y-84804561D01*
X136055000Y-84804561D01*
X136033103Y-84751698D01*
X140184473Y-80600329D01*
X140247929Y-80557929D01*
X140415904Y-80306537D01*
X140460000Y-80084852D01*
X140460000Y-80084847D01*
X140474888Y-80010000D01*
X140460000Y-79935153D01*
X140460000Y-76274846D01*
X140474888Y-76199999D01*
X140460000Y-76125152D01*
X140460000Y-76125148D01*
X140415904Y-75903463D01*
X140247929Y-75652071D01*
X140184473Y-75609671D01*
X130779801Y-66205000D01*
X130951333Y-66205000D01*
X131369909Y-66121740D01*
X131844577Y-65804577D01*
X132080000Y-65452242D01*
X132315423Y-65804577D01*
X132790091Y-66121740D01*
X133208667Y-66205000D01*
X133491333Y-66205000D01*
X133909909Y-66121740D01*
X134384577Y-65804577D01*
X134620000Y-65452242D01*
X134855423Y-65804577D01*
X135330091Y-66121740D01*
X135748667Y-66205000D01*
X136031333Y-66205000D01*
X136449909Y-66121740D01*
X136924577Y-65804577D01*
X137241740Y-65329909D01*
X137353113Y-64770000D01*
X137241740Y-64210091D01*
X136924577Y-63735423D01*
X136449909Y-63418260D01*
X136031333Y-63335000D01*
X135748667Y-63335000D01*
X135330091Y-63418260D01*
X134855423Y-63735423D01*
X134620000Y-64087758D01*
X134384577Y-63735423D01*
X133909909Y-63418260D01*
X133491333Y-63335000D01*
X133208667Y-63335000D01*
X132790091Y-63418260D01*
X132315423Y-63735423D01*
X132080000Y-64087758D01*
X131844577Y-63735423D01*
X131369909Y-63418260D01*
X130951333Y-63335000D01*
X130668667Y-63335000D01*
X130250091Y-63418260D01*
X129775423Y-63735423D01*
X129540000Y-64087758D01*
X129304577Y-63735423D01*
X128829909Y-63418260D01*
X128411333Y-63335000D01*
X128128667Y-63335000D01*
X127710091Y-63418260D01*
X127359101Y-63652784D01*
X127339474Y-63639670D01*
X125670010Y-61970207D01*
X125670010Y-58287611D01*
X127317622Y-56640000D01*
X139625153Y-56640000D01*
X139700000Y-56654888D01*
X139774847Y-56640000D01*
X139774852Y-56640000D01*
X139996537Y-56595904D01*
X140247929Y-56427929D01*
X140290331Y-56364470D01*
X140603592Y-56051209D01*
X140823744Y-56095000D01*
X141116256Y-56095000D01*
X141549418Y-56008839D01*
X142040625Y-55680625D01*
X142368839Y-55189418D01*
X142475980Y-54650782D01*
X142750001Y-54924804D01*
X142750000Y-83592560D01*
X141390000Y-83592560D01*
X141142235Y-83641843D01*
X140932191Y-83782191D01*
X140791843Y-83992235D01*
X140742560Y-84240000D01*
X140742560Y-85940000D01*
X140791843Y-86187765D01*
X140932191Y-86397809D01*
X141142235Y-86538157D01*
X141187619Y-86547184D01*
X141169375Y-86559375D01*
X140841161Y-87050582D01*
X140725908Y-87630000D01*
X140841161Y-88209418D01*
X141169375Y-88700625D01*
X141467761Y-88900000D01*
X141169375Y-89099375D01*
X140841161Y-89590582D01*
X140725908Y-90170000D01*
X140841161Y-90749418D01*
X141169375Y-91240625D01*
X141488478Y-91453843D01*
X141358642Y-91514817D01*
X140968355Y-91943076D01*
X140798524Y-92353110D01*
X140919845Y-92583000D01*
X142113000Y-92583000D01*
X142113000Y-92563000D01*
X142367000Y-92563000D01*
X142367000Y-92583000D01*
X143560155Y-92583000D01*
X143681476Y-92353110D01*
X143511645Y-91943076D01*
X143121358Y-91514817D01*
X142991522Y-91453843D01*
X143310625Y-91240625D01*
X143638839Y-90749418D01*
X143754092Y-90170000D01*
X143681209Y-89803592D01*
X143994473Y-89490329D01*
X144057929Y-89447929D01*
X144225904Y-89196537D01*
X144270000Y-88974852D01*
X144270000Y-88974848D01*
X144284888Y-88900001D01*
X144270000Y-88825154D01*
X144270000Y-54684846D01*
X144284888Y-54609999D01*
X144270000Y-54535152D01*
X144270000Y-54535148D01*
X144225904Y-54313463D01*
X144100330Y-54125528D01*
X144100329Y-54125526D01*
X144100327Y-54125524D01*
X144057929Y-54062071D01*
X143994476Y-54019673D01*
X142411209Y-52436408D01*
X142484092Y-52070000D01*
X142368839Y-51490582D01*
X142040625Y-50999375D01*
X141742239Y-50800000D01*
X142040625Y-50600625D01*
X142368839Y-50109418D01*
X142484092Y-49530000D01*
X142368839Y-48950582D01*
X142040625Y-48459375D01*
X141549418Y-48131161D01*
X141116256Y-48045000D01*
X140823744Y-48045000D01*
X140603592Y-48088791D01*
X140290331Y-47775530D01*
X140247929Y-47712071D01*
X139996537Y-47544096D01*
X139774852Y-47500000D01*
X139774847Y-47500000D01*
X139700000Y-47485112D01*
X139625153Y-47500000D01*
X132154848Y-47500000D01*
X132080000Y-47485112D01*
X132005152Y-47500000D01*
X132005148Y-47500000D01*
X131831605Y-47534520D01*
X131783462Y-47544096D01*
X131621111Y-47652576D01*
X131532071Y-47712071D01*
X131489671Y-47775527D01*
X121435528Y-57829671D01*
X121372072Y-57872071D01*
X121329672Y-57935527D01*
X121329671Y-57935528D01*
X121204097Y-58123463D01*
X121145112Y-58420000D01*
X121160001Y-58494852D01*
X121160000Y-63185198D01*
X120973886Y-63371312D01*
X120791333Y-63335000D01*
X120508667Y-63335000D01*
X120090091Y-63418260D01*
X119615423Y-63735423D01*
X119380000Y-64087758D01*
X119144577Y-63735423D01*
X118669909Y-63418260D01*
X118251333Y-63335000D01*
X117968667Y-63335000D01*
X117550091Y-63418260D01*
X117075423Y-63735423D01*
X116840000Y-64087758D01*
X116604577Y-63735423D01*
X116330000Y-63551957D01*
X116330000Y-54924801D01*
X122823593Y-48431209D01*
X123043744Y-48475000D01*
X123336256Y-48475000D01*
X123769418Y-48388839D01*
X124260625Y-48060625D01*
X124473843Y-47741522D01*
X124534817Y-47871358D01*
X124963076Y-48261645D01*
X125373110Y-48431476D01*
X125603000Y-48310155D01*
X125603000Y-47117000D01*
X125583000Y-47117000D01*
X125583000Y-46863000D01*
X125603000Y-46863000D01*
X125603000Y-45669845D01*
X125857000Y-45669845D01*
X125857000Y-46863000D01*
X125877000Y-46863000D01*
X125877000Y-47117000D01*
X125857000Y-47117000D01*
X125857000Y-48310155D01*
X126086890Y-48431476D01*
X126496924Y-48261645D01*
X126801261Y-47984292D01*
X126821843Y-48087765D01*
X126962191Y-48297809D01*
X127172235Y-48438157D01*
X127420000Y-48487440D01*
X129120000Y-48487440D01*
X129367765Y-48438157D01*
X129577809Y-48297809D01*
X129718157Y-48087765D01*
X129767440Y-47840000D01*
X129767440Y-46140000D01*
X129718157Y-45892235D01*
X129577809Y-45682191D01*
X129367765Y-45541843D01*
X129120000Y-45492560D01*
X127420000Y-45492560D01*
X127172235Y-45541843D01*
X126962191Y-45682191D01*
X126821843Y-45892235D01*
X126801261Y-45995708D01*
X126496924Y-45718355D01*
X126086890Y-45548524D01*
X125857000Y-45669845D01*
X125603000Y-45669845D01*
X125373110Y-45548524D01*
X124963076Y-45718355D01*
X124534817Y-46108642D01*
X124473843Y-46238478D01*
X124260625Y-45919375D01*
X123769418Y-45591161D01*
X123336256Y-45505000D01*
X123043744Y-45505000D01*
X122610582Y-45591161D01*
X122119375Y-45919375D01*
X121920000Y-46217761D01*
X121720625Y-45919375D01*
X121229418Y-45591161D01*
X120796256Y-45505000D01*
X120503744Y-45505000D01*
X120070582Y-45591161D01*
X119579375Y-45919375D01*
X119380000Y-46217761D01*
X119180625Y-45919375D01*
X118689418Y-45591161D01*
X118256256Y-45505000D01*
X117963744Y-45505000D01*
X117530582Y-45591161D01*
X117039375Y-45919375D01*
X116840000Y-46217761D01*
X116640625Y-45919375D01*
X116149418Y-45591161D01*
X115716256Y-45505000D01*
X115423744Y-45505000D01*
X114990582Y-45591161D01*
X114499375Y-45919375D01*
X114300000Y-46217761D01*
X114100625Y-45919375D01*
X113609418Y-45591161D01*
X113176256Y-45505000D01*
X112883744Y-45505000D01*
X112450582Y-45591161D01*
X111959375Y-45919375D01*
X111760000Y-46217761D01*
X111560625Y-45919375D01*
X111069418Y-45591161D01*
X110636256Y-45505000D01*
X110343744Y-45505000D01*
X110123593Y-45548791D01*
X108540331Y-43965530D01*
X108497929Y-43902071D01*
X108246537Y-43734096D01*
X108024852Y-43690000D01*
X108024847Y-43690000D01*
X107950000Y-43675112D01*
X107875153Y-43690000D01*
X101674848Y-43690000D01*
X101600000Y-43675112D01*
X101525152Y-43690000D01*
X101525148Y-43690000D01*
X101351605Y-43724520D01*
X101303462Y-43734096D01*
X101116418Y-43859076D01*
X101052071Y-43902071D01*
X101009671Y-43965527D01*
X95860000Y-49115199D01*
X95860000Y-44923661D01*
X96167201Y-45230862D01*
X96804887Y-45495000D01*
X97495113Y-45495000D01*
X98132799Y-45230862D01*
X98620862Y-44742799D01*
X98885000Y-44105113D01*
X98885000Y-43414887D01*
X98620862Y-42777201D01*
X98313661Y-42470000D01*
X141976339Y-42470000D01*
X141679138Y-42767201D01*
X141679138Y-42767201D01*
G37*
X141679138Y-42767201D02*
X141415000Y-43404887D01*
X141415000Y-44095113D01*
X141679138Y-44732799D01*
X142167201Y-45220862D01*
X142804887Y-45485000D01*
X143495113Y-45485000D01*
X144132799Y-45220862D01*
X144440000Y-44913661D01*
X144440001Y-108596340D01*
X144132799Y-108289138D01*
X143495113Y-108025000D01*
X142804887Y-108025000D01*
X142167201Y-108289138D01*
X141679138Y-108777201D01*
X141415000Y-109414887D01*
X141415000Y-110105113D01*
X141679138Y-110742799D01*
X141986339Y-111050000D01*
X98313661Y-111050000D01*
X98620862Y-110742799D01*
X98885000Y-110105113D01*
X98885000Y-109414887D01*
X98620862Y-108777201D01*
X98142702Y-108299041D01*
X133228086Y-108299041D01*
X133467611Y-108805134D01*
X133882577Y-109181041D01*
X134270961Y-109341904D01*
X134493000Y-109219915D01*
X134493000Y-108077000D01*
X134747000Y-108077000D01*
X134747000Y-109219915D01*
X134969039Y-109341904D01*
X135357423Y-109181041D01*
X135772389Y-108805134D01*
X136011914Y-108299041D01*
X137038086Y-108299041D01*
X137277611Y-108805134D01*
X137692577Y-109181041D01*
X138080961Y-109341904D01*
X138303000Y-109219915D01*
X138303000Y-108077000D01*
X138557000Y-108077000D01*
X138557000Y-109219915D01*
X138779039Y-109341904D01*
X139167423Y-109181041D01*
X139582389Y-108805134D01*
X139821914Y-108299041D01*
X139700629Y-108077000D01*
X138557000Y-108077000D01*
X138303000Y-108077000D01*
X137159371Y-108077000D01*
X137038086Y-108299041D01*
X136011914Y-108299041D01*
X135890629Y-108077000D01*
X134747000Y-108077000D01*
X134493000Y-108077000D01*
X133349371Y-108077000D01*
X133228086Y-108299041D01*
X98142702Y-108299041D01*
X98132799Y-108289138D01*
X97495113Y-108025000D01*
X96804887Y-108025000D01*
X96167201Y-108289138D01*
X95860000Y-108596339D01*
X95860000Y-105124561D01*
X100165000Y-105124561D01*
X100165000Y-105695439D01*
X100383466Y-106222862D01*
X100787138Y-106626534D01*
X101314561Y-106845000D01*
X101885439Y-106845000D01*
X102412862Y-106626534D01*
X102621651Y-106417745D01*
X105771861Y-106417745D01*
X105845995Y-106663864D01*
X106383223Y-106856965D01*
X106953454Y-106829778D01*
X107354005Y-106663864D01*
X107428139Y-106417745D01*
X106600000Y-105589605D01*
X105771861Y-106417745D01*
X102621651Y-106417745D01*
X102816534Y-106222862D01*
X103035000Y-105695439D01*
X103035000Y-105193223D01*
X105153035Y-105193223D01*
X105180222Y-105763454D01*
X105346136Y-106164005D01*
X105592255Y-106238139D01*
X106420395Y-105410000D01*
X106779605Y-105410000D01*
X107607745Y-106238139D01*
X107853864Y-106164005D01*
X107973918Y-105830000D01*
X119152560Y-105830000D01*
X119152560Y-107530000D01*
X119201843Y-107777765D01*
X119342191Y-107987809D01*
X119552235Y-108128157D01*
X119800000Y-108177440D01*
X121500000Y-108177440D01*
X121747765Y-108128157D01*
X121957809Y-107987809D01*
X122098157Y-107777765D01*
X122107184Y-107732381D01*
X122119375Y-107750625D01*
X122610582Y-108078839D01*
X123043744Y-108165000D01*
X123336256Y-108165000D01*
X123769418Y-108078839D01*
X124260625Y-107750625D01*
X124460000Y-107452239D01*
X124659375Y-107750625D01*
X125150582Y-108078839D01*
X125583744Y-108165000D01*
X125876256Y-108165000D01*
X126309418Y-108078839D01*
X126800625Y-107750625D01*
X127000000Y-107452239D01*
X127199375Y-107750625D01*
X127690582Y-108078839D01*
X128123744Y-108165000D01*
X128416256Y-108165000D01*
X128849418Y-108078839D01*
X129340625Y-107750625D01*
X129440628Y-107600959D01*
X133228086Y-107600959D01*
X133349371Y-107823000D01*
X134493000Y-107823000D01*
X134493000Y-106680085D01*
X134747000Y-106680085D01*
X134747000Y-107823000D01*
X135890629Y-107823000D01*
X136011914Y-107600959D01*
X137038086Y-107600959D01*
X137159371Y-107823000D01*
X138303000Y-107823000D01*
X138303000Y-106680085D01*
X138557000Y-106680085D01*
X138557000Y-107823000D01*
X139700629Y-107823000D01*
X139821914Y-107600959D01*
X139582389Y-107094866D01*
X139167423Y-106718959D01*
X138779039Y-106558096D01*
X138557000Y-106680085D01*
X138303000Y-106680085D01*
X138080961Y-106558096D01*
X137692577Y-106718959D01*
X137277611Y-107094866D01*
X137038086Y-107600959D01*
X136011914Y-107600959D01*
X135772389Y-107094866D01*
X135357423Y-106718959D01*
X134969039Y-106558096D01*
X134747000Y-106680085D01*
X134493000Y-106680085D01*
X134270961Y-106558096D01*
X133882577Y-106718959D01*
X133467611Y-107094866D01*
X133228086Y-107600959D01*
X129440628Y-107600959D01*
X129668839Y-107259418D01*
X129784092Y-106680000D01*
X129668839Y-106100582D01*
X129340625Y-105609375D01*
X128849418Y-105281161D01*
X128416256Y-105195000D01*
X128123744Y-105195000D01*
X127690582Y-105281161D01*
X127199375Y-105609375D01*
X127000000Y-105907761D01*
X126800625Y-105609375D01*
X126309418Y-105281161D01*
X125876256Y-105195000D01*
X125583744Y-105195000D01*
X125150582Y-105281161D01*
X124659375Y-105609375D01*
X124460000Y-105907761D01*
X124260625Y-105609375D01*
X123769418Y-105281161D01*
X123336256Y-105195000D01*
X123043744Y-105195000D01*
X122610582Y-105281161D01*
X122119375Y-105609375D01*
X122107184Y-105627619D01*
X122098157Y-105582235D01*
X121957809Y-105372191D01*
X121747765Y-105231843D01*
X121500000Y-105182560D01*
X119800000Y-105182560D01*
X119552235Y-105231843D01*
X119342191Y-105372191D01*
X119201843Y-105582235D01*
X119152560Y-105830000D01*
X107973918Y-105830000D01*
X108046965Y-105626777D01*
X108019778Y-105056546D01*
X107853864Y-104655995D01*
X107607745Y-104581861D01*
X106779605Y-105410000D01*
X106420395Y-105410000D01*
X105592255Y-104581861D01*
X105346136Y-104655995D01*
X105153035Y-105193223D01*
X103035000Y-105193223D01*
X103035000Y-105124561D01*
X102816534Y-104597138D01*
X102621651Y-104402255D01*
X105771861Y-104402255D01*
X106600000Y-105230395D01*
X107428139Y-104402255D01*
X107354005Y-104156136D01*
X106816777Y-103963035D01*
X106246546Y-103990222D01*
X105845995Y-104156136D01*
X105771861Y-104402255D01*
X102621651Y-104402255D01*
X102412862Y-104193466D01*
X101885439Y-103975000D01*
X101314561Y-103975000D01*
X100787138Y-104193466D01*
X100383466Y-104597138D01*
X100165000Y-105124561D01*
X95860000Y-105124561D01*
X95860000Y-99530000D01*
X111582560Y-99530000D01*
X111582560Y-101130000D01*
X111631843Y-101377765D01*
X111772191Y-101587809D01*
X111982235Y-101728157D01*
X112230000Y-101777440D01*
X113830000Y-101777440D01*
X114077765Y-101728157D01*
X114287809Y-101587809D01*
X114428157Y-101377765D01*
X114454785Y-101243894D01*
X114535423Y-101364577D01*
X115010091Y-101681740D01*
X115428667Y-101765000D01*
X115711333Y-101765000D01*
X116129909Y-101681740D01*
X116604577Y-101364577D01*
X116860947Y-100980892D01*
X116957611Y-101185134D01*
X117372577Y-101561041D01*
X117760961Y-101721904D01*
X117983000Y-101599915D01*
X117983000Y-100457000D01*
X117963000Y-100457000D01*
X117963000Y-100203000D01*
X117983000Y-100203000D01*
X117983000Y-99060085D01*
X118237000Y-99060085D01*
X118237000Y-100203000D01*
X118257000Y-100203000D01*
X118257000Y-100457000D01*
X118237000Y-100457000D01*
X118237000Y-101599915D01*
X118459039Y-101721904D01*
X118847423Y-101561041D01*
X119262389Y-101185134D01*
X119359053Y-100980892D01*
X119615423Y-101364577D01*
X120090091Y-101681740D01*
X120508667Y-101765000D01*
X120791333Y-101765000D01*
X121209909Y-101681740D01*
X121684577Y-101364577D01*
X121920000Y-101012242D01*
X122155423Y-101364577D01*
X122630091Y-101681740D01*
X123048667Y-101765000D01*
X123331333Y-101765000D01*
X123749909Y-101681740D01*
X124224577Y-101364577D01*
X124460000Y-101012242D01*
X124695423Y-101364577D01*
X125170091Y-101681740D01*
X125588667Y-101765000D01*
X125871333Y-101765000D01*
X126289909Y-101681740D01*
X126764577Y-101364577D01*
X127000000Y-101012242D01*
X127235423Y-101364577D01*
X127710091Y-101681740D01*
X128128667Y-101765000D01*
X128411333Y-101765000D01*
X128829909Y-101681740D01*
X129304577Y-101364577D01*
X129560947Y-100980892D01*
X129657611Y-101185134D01*
X130072577Y-101561041D01*
X130460961Y-101721904D01*
X130683000Y-101599915D01*
X130683000Y-100457000D01*
X130937000Y-100457000D01*
X130937000Y-101599915D01*
X131159039Y-101721904D01*
X131547423Y-101561041D01*
X131962389Y-101185134D01*
X132201914Y-100679041D01*
X132080629Y-100457000D01*
X130937000Y-100457000D01*
X130683000Y-100457000D01*
X130663000Y-100457000D01*
X130663000Y-100203000D01*
X130683000Y-100203000D01*
X130683000Y-99060085D01*
X130937000Y-99060085D01*
X130937000Y-100203000D01*
X132080629Y-100203000D01*
X132201914Y-99980959D01*
X131962389Y-99474866D01*
X131547423Y-99098959D01*
X131159039Y-98938096D01*
X130937000Y-99060085D01*
X130683000Y-99060085D01*
X130460961Y-98938096D01*
X130072577Y-99098959D01*
X129657611Y-99474866D01*
X129560947Y-99679108D01*
X129304577Y-99295423D01*
X128829909Y-98978260D01*
X128411333Y-98895000D01*
X128128667Y-98895000D01*
X127710091Y-98978260D01*
X127235423Y-99295423D01*
X127000000Y-99647758D01*
X126764577Y-99295423D01*
X126289909Y-98978260D01*
X125871333Y-98895000D01*
X125588667Y-98895000D01*
X125170091Y-98978260D01*
X124695423Y-99295423D01*
X124460000Y-99647758D01*
X124224577Y-99295423D01*
X123749909Y-98978260D01*
X123331333Y-98895000D01*
X123048667Y-98895000D01*
X122630091Y-98978260D01*
X122155423Y-99295423D01*
X121920000Y-99647758D01*
X121684577Y-99295423D01*
X121209909Y-98978260D01*
X120791333Y-98895000D01*
X120508667Y-98895000D01*
X120090091Y-98978260D01*
X119615423Y-99295423D01*
X119359053Y-99679108D01*
X119262389Y-99474866D01*
X118847423Y-99098959D01*
X118459039Y-98938096D01*
X118237000Y-99060085D01*
X117983000Y-99060085D01*
X117760961Y-98938096D01*
X117372577Y-99098959D01*
X116957611Y-99474866D01*
X116860947Y-99679108D01*
X116604577Y-99295423D01*
X116129909Y-98978260D01*
X115711333Y-98895000D01*
X115428667Y-98895000D01*
X115010091Y-98978260D01*
X114535423Y-99295423D01*
X114454785Y-99416106D01*
X114428157Y-99282235D01*
X114287809Y-99072191D01*
X114077765Y-98931843D01*
X113830000Y-98882560D01*
X112230000Y-98882560D01*
X111982235Y-98931843D01*
X111772191Y-99072191D01*
X111631843Y-99282235D01*
X111582560Y-99530000D01*
X95860000Y-99530000D01*
X95860000Y-95250000D01*
X133156887Y-95250000D01*
X133268260Y-95809909D01*
X133585423Y-96284577D01*
X133937168Y-96519606D01*
X133807138Y-96573466D01*
X133403466Y-96977138D01*
X133185000Y-97504561D01*
X133185000Y-98075439D01*
X133403466Y-98602862D01*
X133807138Y-99006534D01*
X134334561Y-99225000D01*
X134905439Y-99225000D01*
X135432862Y-99006534D01*
X135836534Y-98602862D01*
X136055000Y-98075439D01*
X136055000Y-97504561D01*
X135836534Y-96977138D01*
X135432862Y-96573466D01*
X135302832Y-96519606D01*
X135654577Y-96284577D01*
X135971740Y-95809909D01*
X136083113Y-95250000D01*
X136966887Y-95250000D01*
X137078260Y-95809909D01*
X137395423Y-96284577D01*
X137747168Y-96519606D01*
X137617138Y-96573466D01*
X137213466Y-96977138D01*
X136995000Y-97504561D01*
X136995000Y-98075439D01*
X137213466Y-98602862D01*
X137617138Y-99006534D01*
X138144561Y-99225000D01*
X138715439Y-99225000D01*
X139242862Y-99006534D01*
X139646534Y-98602862D01*
X139865000Y-98075439D01*
X139865000Y-97504561D01*
X139646534Y-96977138D01*
X139242862Y-96573466D01*
X139112832Y-96519606D01*
X139464577Y-96284577D01*
X139781740Y-95809909D01*
X139893113Y-95250000D01*
X140725908Y-95250000D01*
X140841161Y-95829418D01*
X141169375Y-96320625D01*
X141467761Y-96520000D01*
X141169375Y-96719375D01*
X140841161Y-97210582D01*
X140725908Y-97790000D01*
X140841161Y-98369418D01*
X141169375Y-98860625D01*
X141660582Y-99188839D01*
X142093744Y-99275000D01*
X142386256Y-99275000D01*
X142819418Y-99188839D01*
X143310625Y-98860625D01*
X143638839Y-98369418D01*
X143754092Y-97790000D01*
X143638839Y-97210582D01*
X143310625Y-96719375D01*
X143012239Y-96520000D01*
X143310625Y-96320625D01*
X143638839Y-95829418D01*
X143754092Y-95250000D01*
X143638839Y-94670582D01*
X143310625Y-94179375D01*
X142991522Y-93966157D01*
X143121358Y-93905183D01*
X143511645Y-93476924D01*
X143681476Y-93066890D01*
X143560155Y-92837000D01*
X142367000Y-92837000D01*
X142367000Y-92857000D01*
X142113000Y-92857000D01*
X142113000Y-92837000D01*
X140919845Y-92837000D01*
X140798524Y-93066890D01*
X140968355Y-93476924D01*
X141358642Y-93905183D01*
X141488478Y-93966157D01*
X141169375Y-94179375D01*
X140841161Y-94670582D01*
X140725908Y-95250000D01*
X139893113Y-95250000D01*
X139781740Y-94690091D01*
X139464577Y-94215423D01*
X138989909Y-93898260D01*
X138571333Y-93815000D01*
X138288667Y-93815000D01*
X137870091Y-93898260D01*
X137395423Y-94215423D01*
X137078260Y-94690091D01*
X136966887Y-95250000D01*
X136083113Y-95250000D01*
X135971740Y-94690091D01*
X135654577Y-94215423D01*
X135179909Y-93898260D01*
X134761333Y-93815000D01*
X134478667Y-93815000D01*
X134060091Y-93898260D01*
X133585423Y-94215423D01*
X133268260Y-94690091D01*
X133156887Y-95250000D01*
X95860000Y-95250000D01*
X95860000Y-84234801D01*
X97199671Y-85574473D01*
X97242071Y-85637929D01*
X97493463Y-85805904D01*
X97715148Y-85850000D01*
X97715153Y-85850000D01*
X97790000Y-85864888D01*
X97864847Y-85850000D01*
X109145153Y-85850000D01*
X109220000Y-85864888D01*
X109294847Y-85850000D01*
X109294852Y-85850000D01*
X109516537Y-85805904D01*
X109767929Y-85637929D01*
X109810331Y-85574470D01*
X110294801Y-85090000D01*
X111566887Y-85090000D01*
X111678260Y-85649909D01*
X111995423Y-86124577D01*
X112470091Y-86441740D01*
X112888667Y-86525000D01*
X113171333Y-86525000D01*
X113589909Y-86441740D01*
X114064577Y-86124577D01*
X114300000Y-85772242D01*
X114535423Y-86124577D01*
X115010091Y-86441740D01*
X115428667Y-86525000D01*
X115711333Y-86525000D01*
X116129909Y-86441740D01*
X116604577Y-86124577D01*
X116840000Y-85772242D01*
X117075423Y-86124577D01*
X117550091Y-86441740D01*
X117968667Y-86525000D01*
X118251333Y-86525000D01*
X118669909Y-86441740D01*
X119144577Y-86124577D01*
X119380000Y-85772242D01*
X119615423Y-86124577D01*
X120090091Y-86441740D01*
X120508667Y-86525000D01*
X120791333Y-86525000D01*
X121209909Y-86441740D01*
X121684577Y-86124577D01*
X121920000Y-85772242D01*
X122155423Y-86124577D01*
X122630091Y-86441740D01*
X123048667Y-86525000D01*
X123331333Y-86525000D01*
X123749909Y-86441740D01*
X124224577Y-86124577D01*
X124460000Y-85772242D01*
X124695423Y-86124577D01*
X125170091Y-86441740D01*
X125588667Y-86525000D01*
X125871333Y-86525000D01*
X126289909Y-86441740D01*
X126764577Y-86124577D01*
X127000000Y-85772242D01*
X127235423Y-86124577D01*
X127710091Y-86441740D01*
X128128667Y-86525000D01*
X128411333Y-86525000D01*
X128829909Y-86441740D01*
X129304577Y-86124577D01*
X129560947Y-85740892D01*
X129657611Y-85945134D01*
X130072577Y-86321041D01*
X130460961Y-86481904D01*
X130683000Y-86359915D01*
X130683000Y-85217000D01*
X130937000Y-85217000D01*
X130937000Y-86359915D01*
X131159039Y-86481904D01*
X131547423Y-86321041D01*
X131962389Y-85945134D01*
X132201914Y-85439041D01*
X132080629Y-85217000D01*
X130937000Y-85217000D01*
X130683000Y-85217000D01*
X130663000Y-85217000D01*
X130663000Y-84963000D01*
X130683000Y-84963000D01*
X130683000Y-83820085D01*
X130937000Y-83820085D01*
X130937000Y-84963000D01*
X132080629Y-84963000D01*
X132201914Y-84740959D01*
X131962389Y-84234866D01*
X131547423Y-83858959D01*
X131159039Y-83698096D01*
X130937000Y-83820085D01*
X130683000Y-83820085D01*
X130460961Y-83698096D01*
X130072577Y-83858959D01*
X129657611Y-84234866D01*
X129560947Y-84439108D01*
X129304577Y-84055423D01*
X128829909Y-83738260D01*
X128411333Y-83655000D01*
X128128667Y-83655000D01*
X127710091Y-83738260D01*
X127235423Y-84055423D01*
X127000000Y-84407758D01*
X126764577Y-84055423D01*
X126289909Y-83738260D01*
X125871333Y-83655000D01*
X125588667Y-83655000D01*
X125170091Y-83738260D01*
X124695423Y-84055423D01*
X124460000Y-84407758D01*
X124224577Y-84055423D01*
X123749909Y-83738260D01*
X123331333Y-83655000D01*
X123048667Y-83655000D01*
X122630091Y-83738260D01*
X122155423Y-84055423D01*
X121920000Y-84407758D01*
X121684577Y-84055423D01*
X121209909Y-83738260D01*
X120791333Y-83655000D01*
X120508667Y-83655000D01*
X120090091Y-83738260D01*
X119615423Y-84055423D01*
X119380000Y-84407758D01*
X119144577Y-84055423D01*
X118669909Y-83738260D01*
X118251333Y-83655000D01*
X117968667Y-83655000D01*
X117550091Y-83738260D01*
X117075423Y-84055423D01*
X116840000Y-84407758D01*
X116604577Y-84055423D01*
X116129909Y-83738260D01*
X115711333Y-83655000D01*
X115428667Y-83655000D01*
X115010091Y-83738260D01*
X114535423Y-84055423D01*
X114300000Y-84407758D01*
X114064577Y-84055423D01*
X113589909Y-83738260D01*
X113171333Y-83655000D01*
X112888667Y-83655000D01*
X112470091Y-83738260D01*
X111995423Y-84055423D01*
X111678260Y-84530091D01*
X111566887Y-85090000D01*
X110294801Y-85090000D01*
X110974473Y-84410329D01*
X111037929Y-84367929D01*
X111205904Y-84116537D01*
X111250000Y-83894852D01*
X111250000Y-83894848D01*
X111264888Y-83820001D01*
X111250000Y-83745154D01*
X111250000Y-81228043D01*
X111524577Y-81044577D01*
X111760000Y-80692242D01*
X111995423Y-81044577D01*
X112470091Y-81361740D01*
X112888667Y-81445000D01*
X113171333Y-81445000D01*
X113589909Y-81361740D01*
X114064577Y-81044577D01*
X114300000Y-80692242D01*
X114535423Y-81044577D01*
X115010091Y-81361740D01*
X115428667Y-81445000D01*
X115711333Y-81445000D01*
X116129909Y-81361740D01*
X116604577Y-81044577D01*
X116840000Y-80692242D01*
X117075423Y-81044577D01*
X117550091Y-81361740D01*
X117968667Y-81445000D01*
X118251333Y-81445000D01*
X118669909Y-81361740D01*
X119144577Y-81044577D01*
X119380000Y-80692242D01*
X119615423Y-81044577D01*
X120090091Y-81361740D01*
X120508667Y-81445000D01*
X120791333Y-81445000D01*
X121209909Y-81361740D01*
X121684577Y-81044577D01*
X121920000Y-80692242D01*
X122155423Y-81044577D01*
X122630091Y-81361740D01*
X123048667Y-81445000D01*
X123331333Y-81445000D01*
X123749909Y-81361740D01*
X124224577Y-81044577D01*
X124460000Y-80692242D01*
X124695423Y-81044577D01*
X125170091Y-81361740D01*
X125588667Y-81445000D01*
X125871333Y-81445000D01*
X126289909Y-81361740D01*
X126764577Y-81044577D01*
X127000000Y-80692242D01*
X127235423Y-81044577D01*
X127710091Y-81361740D01*
X128128667Y-81445000D01*
X128411333Y-81445000D01*
X128829909Y-81361740D01*
X129304577Y-81044577D01*
X129540000Y-80692242D01*
X129775423Y-81044577D01*
X130250091Y-81361740D01*
X130668667Y-81445000D01*
X130951333Y-81445000D01*
X131369909Y-81361740D01*
X131844577Y-81044577D01*
X132080000Y-80692242D01*
X132315423Y-81044577D01*
X132790091Y-81361740D01*
X133208667Y-81445000D01*
X133491333Y-81445000D01*
X133909909Y-81361740D01*
X134384577Y-81044577D01*
X134620000Y-80692242D01*
X134855423Y-81044577D01*
X135330091Y-81361740D01*
X135748667Y-81445000D01*
X136031333Y-81445000D01*
X136449909Y-81361740D01*
X136924577Y-81044577D01*
X137241740Y-80569909D01*
X137353113Y-80010000D01*
X137241740Y-79450091D01*
X136924577Y-78975423D01*
X136449909Y-78658260D01*
X136031333Y-78575000D01*
X135748667Y-78575000D01*
X135330091Y-78658260D01*
X134855423Y-78975423D01*
X134620000Y-79327758D01*
X134384577Y-78975423D01*
X133909909Y-78658260D01*
X133491333Y-78575000D01*
X133208667Y-78575000D01*
X132790091Y-78658260D01*
X132315423Y-78975423D01*
X132080000Y-79327758D01*
X131844577Y-78975423D01*
X131369909Y-78658260D01*
X130951333Y-78575000D01*
X130668667Y-78575000D01*
X130250091Y-78658260D01*
X129775423Y-78975423D01*
X129540000Y-79327758D01*
X129304577Y-78975423D01*
X128829909Y-78658260D01*
X128411333Y-78575000D01*
X128128667Y-78575000D01*
X127710091Y-78658260D01*
X127235423Y-78975423D01*
X127000000Y-79327758D01*
X126764577Y-78975423D01*
X126289909Y-78658260D01*
X125871333Y-78575000D01*
X125588667Y-78575000D01*
X125170091Y-78658260D01*
X124695423Y-78975423D01*
X124460000Y-79327758D01*
X124224577Y-78975423D01*
X123749909Y-78658260D01*
X123331333Y-78575000D01*
X123048667Y-78575000D01*
X122630091Y-78658260D01*
X122155423Y-78975423D01*
X121920000Y-79327758D01*
X121684577Y-78975423D01*
X121209909Y-78658260D01*
X120791333Y-78575000D01*
X120508667Y-78575000D01*
X120090091Y-78658260D01*
X119615423Y-78975423D01*
X119380000Y-79327758D01*
X119144577Y-78975423D01*
X118669909Y-78658260D01*
X118251333Y-78575000D01*
X117968667Y-78575000D01*
X117550091Y-78658260D01*
X117075423Y-78975423D01*
X116840000Y-79327758D01*
X116604577Y-78975423D01*
X116129909Y-78658260D01*
X115711333Y-78575000D01*
X115428667Y-78575000D01*
X115010091Y-78658260D01*
X114535423Y-78975423D01*
X114300000Y-79327758D01*
X114064577Y-78975423D01*
X113589909Y-78658260D01*
X113171333Y-78575000D01*
X112888667Y-78575000D01*
X112470091Y-78658260D01*
X111995423Y-78975423D01*
X111760000Y-79327758D01*
X111524577Y-78975423D01*
X111049909Y-78658260D01*
X110631333Y-78575000D01*
X110348667Y-78575000D01*
X109930091Y-78658260D01*
X109455423Y-78975423D01*
X109199053Y-79359108D01*
X109102389Y-79154866D01*
X108687423Y-78778959D01*
X108299039Y-78618096D01*
X108077000Y-78740085D01*
X108077000Y-79883000D01*
X108097000Y-79883000D01*
X108097000Y-80137000D01*
X108077000Y-80137000D01*
X108077000Y-81279915D01*
X108299039Y-81401904D01*
X108687423Y-81241041D01*
X109102389Y-80865134D01*
X109199053Y-80660892D01*
X109455423Y-81044577D01*
X109730001Y-81228044D01*
X109730000Y-83505198D01*
X108905199Y-84330000D01*
X98104802Y-84330000D01*
X96674989Y-82900188D01*
X96674989Y-64770000D01*
X98866887Y-64770000D01*
X98978260Y-65329909D01*
X99295423Y-65804577D01*
X99770091Y-66121740D01*
X100188667Y-66205000D01*
X100471333Y-66205000D01*
X100889909Y-66121740D01*
X101364577Y-65804577D01*
X101620947Y-65420892D01*
X101717611Y-65625134D01*
X102132577Y-66001041D01*
X102520961Y-66161904D01*
X102743000Y-66039915D01*
X102743000Y-64897000D01*
X102723000Y-64897000D01*
X102723000Y-64643000D01*
X102743000Y-64643000D01*
X102743000Y-63500085D01*
X102520961Y-63378096D01*
X102132577Y-63538959D01*
X101717611Y-63914866D01*
X101620947Y-64119108D01*
X101364577Y-63735423D01*
X100889909Y-63418260D01*
X100471333Y-63335000D01*
X100188667Y-63335000D01*
X99770091Y-63418260D01*
X99295423Y-63735423D01*
X98978260Y-64210091D01*
X98866887Y-64770000D01*
X96674989Y-64770000D01*
X96674989Y-59424197D01*
X96719375Y-59490625D01*
X97210582Y-59818839D01*
X97643744Y-59905000D01*
X97936256Y-59905000D01*
X98369418Y-59818839D01*
X98860625Y-59490625D01*
X99060000Y-59192239D01*
X99259375Y-59490625D01*
X99750582Y-59818839D01*
X100183744Y-59905000D01*
X100476256Y-59905000D01*
X100909418Y-59818839D01*
X101400625Y-59490625D01*
X101412816Y-59472381D01*
X101421843Y-59517765D01*
X101562191Y-59727809D01*
X101772235Y-59868157D01*
X102020000Y-59917440D01*
X103720000Y-59917440D01*
X103967765Y-59868157D01*
X104177809Y-59727809D01*
X104318157Y-59517765D01*
X104367440Y-59270000D01*
X104367440Y-58174139D01*
X104734157Y-57807422D01*
X104808050Y-57758048D01*
X104883513Y-57645111D01*
X104933700Y-57570000D01*
X105003653Y-57465309D01*
X105055001Y-57207164D01*
X105055001Y-57207159D01*
X105072338Y-57120000D01*
X105055001Y-57032840D01*
X105055001Y-49727160D01*
X105072338Y-49640000D01*
X105055001Y-49552841D01*
X105055001Y-49552836D01*
X105003653Y-49294691D01*
X104808050Y-49001952D01*
X104734157Y-48952578D01*
X104118810Y-48337231D01*
X104177809Y-48297809D01*
X104318157Y-48087765D01*
X104338739Y-47984292D01*
X104643076Y-48261645D01*
X105053110Y-48431476D01*
X105283000Y-48310155D01*
X105283000Y-47117000D01*
X105537000Y-47117000D01*
X105537000Y-48310155D01*
X105766890Y-48431476D01*
X106176924Y-48261645D01*
X106605183Y-47871358D01*
X106851486Y-47346892D01*
X106730819Y-47117000D01*
X105537000Y-47117000D01*
X105283000Y-47117000D01*
X105263000Y-47117000D01*
X105263000Y-46863000D01*
X105283000Y-46863000D01*
X105283000Y-45669845D01*
X105537000Y-45669845D01*
X105537000Y-46863000D01*
X106730819Y-46863000D01*
X106851486Y-46633108D01*
X106605183Y-46108642D01*
X106176924Y-45718355D01*
X105766890Y-45548524D01*
X105537000Y-45669845D01*
X105283000Y-45669845D01*
X105053110Y-45548524D01*
X104643076Y-45718355D01*
X104338739Y-45995708D01*
X104318157Y-45892235D01*
X104177809Y-45682191D01*
X103967765Y-45541843D01*
X103720000Y-45492560D01*
X102020000Y-45492560D01*
X101772235Y-45541843D01*
X101562191Y-45682191D01*
X101421843Y-45892235D01*
X101372560Y-46140000D01*
X101372560Y-47840000D01*
X101421843Y-48087765D01*
X101562191Y-48297809D01*
X101772235Y-48438157D01*
X101996042Y-48482675D01*
X102036348Y-48685309D01*
X102182576Y-48904154D01*
X102182578Y-48904156D01*
X102231952Y-48978049D01*
X102305845Y-49027423D01*
X103285001Y-50006580D01*
X103285002Y-54448457D01*
X103016256Y-54395000D01*
X102723744Y-54395000D01*
X102290582Y-54481161D01*
X101799375Y-54809375D01*
X101600000Y-55107761D01*
X101400625Y-54809375D01*
X100909418Y-54481161D01*
X100476256Y-54395000D01*
X100183744Y-54395000D01*
X99750582Y-54481161D01*
X99259375Y-54809375D01*
X99060000Y-55107761D01*
X98860625Y-54809375D01*
X98369418Y-54481161D01*
X97936256Y-54395000D01*
X97643744Y-54395000D01*
X97210582Y-54481161D01*
X96719375Y-54809375D01*
X96674989Y-54875803D01*
X96674989Y-50449812D01*
X101914802Y-45210000D01*
X107635199Y-45210000D01*
X109048791Y-46623593D01*
X108975908Y-46990000D01*
X109091161Y-47569418D01*
X109419375Y-48060625D01*
X109910582Y-48388839D01*
X110343744Y-48475000D01*
X110636256Y-48475000D01*
X111069418Y-48388839D01*
X111560625Y-48060625D01*
X111760000Y-47762239D01*
X111959375Y-48060625D01*
X112450582Y-48388839D01*
X112883744Y-48475000D01*
X113176256Y-48475000D01*
X113609418Y-48388839D01*
X114100625Y-48060625D01*
X114300000Y-47762239D01*
X114499375Y-48060625D01*
X114990582Y-48388839D01*
X115423744Y-48475000D01*
X115716256Y-48475000D01*
X116149418Y-48388839D01*
X116640625Y-48060625D01*
X116840000Y-47762239D01*
X117039375Y-48060625D01*
X117530582Y-48388839D01*
X117963744Y-48475000D01*
X118256256Y-48475000D01*
X118689418Y-48388839D01*
X119180625Y-48060625D01*
X119380000Y-47762239D01*
X119579375Y-48060625D01*
X119696388Y-48138810D01*
X113815530Y-54019669D01*
X113752071Y-54062071D01*
X113584096Y-54313464D01*
X113540000Y-54535149D01*
X113540000Y-54535153D01*
X113525112Y-54610000D01*
X113540000Y-54684847D01*
X113540001Y-63408333D01*
X113171333Y-63335000D01*
X112888667Y-63335000D01*
X112470091Y-63418260D01*
X111995423Y-63735423D01*
X111760000Y-64087758D01*
X111524577Y-63735423D01*
X111049909Y-63418260D01*
X110631333Y-63335000D01*
X110348667Y-63335000D01*
X109930091Y-63418260D01*
X109455423Y-63735423D01*
X109220000Y-64087758D01*
X108984577Y-63735423D01*
X108509909Y-63418260D01*
X108091333Y-63335000D01*
X107808667Y-63335000D01*
X107390091Y-63418260D01*
X106915423Y-63735423D01*
X106680000Y-64087758D01*
X106444577Y-63735423D01*
X105969909Y-63418260D01*
X105551333Y-63335000D01*
X105268667Y-63335000D01*
X104850091Y-63418260D01*
X104375423Y-63735423D01*
X104119053Y-64119108D01*
X104022389Y-63914866D01*
X103607423Y-63538959D01*
X103219039Y-63378096D01*
X102997000Y-63500085D01*
X102997000Y-64643000D01*
X103017000Y-64643000D01*
X103017000Y-64897000D01*
X102997000Y-64897000D01*
X102997000Y-66039915D01*
X103219039Y-66161904D01*
X103607423Y-66001041D01*
X104022389Y-65625134D01*
X104119053Y-65420892D01*
X104375423Y-65804577D01*
X104850091Y-66121740D01*
X105268667Y-66205000D01*
X105551333Y-66205000D01*
X105969909Y-66121740D01*
X106444577Y-65804577D01*
X106680000Y-65452242D01*
X106915423Y-65804577D01*
X107390091Y-66121740D01*
X107808667Y-66205000D01*
X108091333Y-66205000D01*
X108509909Y-66121740D01*
X108984577Y-65804577D01*
X109220000Y-65452242D01*
X109455423Y-65804577D01*
X109930091Y-66121740D01*
X110348667Y-66205000D01*
X110631333Y-66205000D01*
X111049909Y-66121740D01*
X111524577Y-65804577D01*
X111760000Y-65452242D01*
X111995423Y-65804577D01*
X112470091Y-66121740D01*
X112888667Y-66205000D01*
X113171333Y-66205000D01*
X113589909Y-66121740D01*
X113944804Y-65884607D01*
X114439671Y-66379476D01*
X114482070Y-66442930D01*
X114545523Y-66485328D01*
X114545525Y-66485330D01*
X114670901Y-66569103D01*
X114733462Y-66610905D01*
X114955147Y-66655001D01*
X114955151Y-66655001D01*
X115029998Y-66669889D01*
X115104845Y-66655001D01*
X116910152Y-66655001D01*
X116984999Y-66669889D01*
X117059846Y-66655001D01*
X117059851Y-66655001D01*
X117281536Y-66610905D01*
X117532928Y-66442930D01*
X117575330Y-66379471D01*
X117786113Y-66168688D01*
X117968667Y-66205000D01*
X118251333Y-66205000D01*
X118669909Y-66121740D01*
X119144577Y-65804577D01*
X119380000Y-65452242D01*
X119615423Y-65804577D01*
X120090091Y-66121740D01*
X120508667Y-66205000D01*
X120791333Y-66205000D01*
X121209909Y-66121740D01*
X121684577Y-65804577D01*
X121920000Y-65452242D01*
X122155423Y-65804577D01*
X122630091Y-66121740D01*
X123048667Y-66205000D01*
X123220198Y-66205000D01*
X119515209Y-69909990D01*
X108694858Y-69909990D01*
X108620010Y-69895102D01*
X108545162Y-69909990D01*
X108545158Y-69909990D01*
X108323473Y-69954086D01*
X108072081Y-70122061D01*
X108029681Y-70185517D01*
X99845530Y-78369669D01*
X99782071Y-78412071D01*
X99681518Y-78562560D01*
X99530000Y-78562560D01*
X99282235Y-78611843D01*
X99072191Y-78752191D01*
X98931843Y-78962235D01*
X98882560Y-79210000D01*
X98882560Y-80810000D01*
X98931843Y-81057765D01*
X99072191Y-81267809D01*
X99282235Y-81408157D01*
X99530000Y-81457440D01*
X101130000Y-81457440D01*
X101377765Y-81408157D01*
X101587809Y-81267809D01*
X101728157Y-81057765D01*
X101754785Y-80923894D01*
X101835423Y-81044577D01*
X102310091Y-81361740D01*
X102728667Y-81445000D01*
X103011333Y-81445000D01*
X103429909Y-81361740D01*
X103904577Y-81044577D01*
X104140000Y-80692242D01*
X104375423Y-81044577D01*
X104850091Y-81361740D01*
X105268667Y-81445000D01*
X105551333Y-81445000D01*
X105969909Y-81361740D01*
X106444577Y-81044577D01*
X106700947Y-80660892D01*
X106797611Y-80865134D01*
X107212577Y-81241041D01*
X107600961Y-81401904D01*
X107823000Y-81279915D01*
X107823000Y-80137000D01*
X107803000Y-80137000D01*
X107803000Y-79883000D01*
X107823000Y-79883000D01*
X107823000Y-78740085D01*
X107600961Y-78618096D01*
X107212577Y-78778959D01*
X106797611Y-79154866D01*
X106700947Y-79359108D01*
X106444577Y-78975423D01*
X105969909Y-78658260D01*
X105551333Y-78575000D01*
X105268667Y-78575000D01*
X104850091Y-78658260D01*
X104375423Y-78975423D01*
X104140000Y-79327758D01*
X103904577Y-78975423D01*
X103630000Y-78791957D01*
X103630000Y-77784801D01*
X109534802Y-71880000D01*
X120970155Y-71880000D01*
X121045002Y-71894888D01*
X121119849Y-71880000D01*
X121119854Y-71880000D01*
X121341539Y-71835904D01*
X121592931Y-71667929D01*
X121635333Y-71604470D01*
X127339477Y-65900328D01*
X127359101Y-65887216D01*
X127710091Y-66121740D01*
X128128667Y-66205000D01*
X128411333Y-66205000D01*
X128593887Y-66168688D01*
X138940000Y-76514802D01*
X138940001Y-79695197D01*
X134958302Y-83676897D01*
X134905439Y-83655000D01*
X134334561Y-83655000D01*
X133807138Y-83873466D01*
X133403466Y-84277138D01*
X133185000Y-84804561D01*
X133185000Y-85375439D01*
X133403466Y-85902862D01*
X133807138Y-86306534D01*
X134334561Y-86525000D01*
X134905439Y-86525000D01*
X135432862Y-86306534D01*
X135836534Y-85902862D01*
X136055000Y-85375439D01*
X136055000Y-84804561D01*
X136995000Y-84804561D01*
X136995000Y-85375439D01*
X137213466Y-85902862D01*
X137617138Y-86306534D01*
X138144561Y-86525000D01*
X138715439Y-86525000D01*
X139242862Y-86306534D01*
X139646534Y-85902862D01*
X139865000Y-85375439D01*
X139865000Y-84804561D01*
X139646534Y-84277138D01*
X139242862Y-83873466D01*
X138715439Y-83655000D01*
X138144561Y-83655000D01*
X137617138Y-83873466D01*
X137213466Y-84277138D01*
X136995000Y-84804561D01*
X136055000Y-84804561D01*
X136033103Y-84751698D01*
X140184473Y-80600329D01*
X140247929Y-80557929D01*
X140415904Y-80306537D01*
X140460000Y-80084852D01*
X140460000Y-80084847D01*
X140474888Y-80010000D01*
X140460000Y-79935153D01*
X140460000Y-76274846D01*
X140474888Y-76199999D01*
X140460000Y-76125152D01*
X140460000Y-76125148D01*
X140415904Y-75903463D01*
X140247929Y-75652071D01*
X140184473Y-75609671D01*
X130779801Y-66205000D01*
X130951333Y-66205000D01*
X131369909Y-66121740D01*
X131844577Y-65804577D01*
X132080000Y-65452242D01*
X132315423Y-65804577D01*
X132790091Y-66121740D01*
X133208667Y-66205000D01*
X133491333Y-66205000D01*
X133909909Y-66121740D01*
X134384577Y-65804577D01*
X134620000Y-65452242D01*
X134855423Y-65804577D01*
X135330091Y-66121740D01*
X135748667Y-66205000D01*
X136031333Y-66205000D01*
X136449909Y-66121740D01*
X136924577Y-65804577D01*
X137241740Y-65329909D01*
X137353113Y-64770000D01*
X137241740Y-64210091D01*
X136924577Y-63735423D01*
X136449909Y-63418260D01*
X136031333Y-63335000D01*
X135748667Y-63335000D01*
X135330091Y-63418260D01*
X134855423Y-63735423D01*
X134620000Y-64087758D01*
X134384577Y-63735423D01*
X133909909Y-63418260D01*
X133491333Y-63335000D01*
X133208667Y-63335000D01*
X132790091Y-63418260D01*
X132315423Y-63735423D01*
X132080000Y-64087758D01*
X131844577Y-63735423D01*
X131369909Y-63418260D01*
X130951333Y-63335000D01*
X130668667Y-63335000D01*
X130250091Y-63418260D01*
X129775423Y-63735423D01*
X129540000Y-64087758D01*
X129304577Y-63735423D01*
X128829909Y-63418260D01*
X128411333Y-63335000D01*
X128128667Y-63335000D01*
X127710091Y-63418260D01*
X127359101Y-63652784D01*
X127339474Y-63639670D01*
X125670010Y-61970207D01*
X125670010Y-58287611D01*
X127317622Y-56640000D01*
X139625153Y-56640000D01*
X139700000Y-56654888D01*
X139774847Y-56640000D01*
X139774852Y-56640000D01*
X139996537Y-56595904D01*
X140247929Y-56427929D01*
X140290331Y-56364470D01*
X140603592Y-56051209D01*
X140823744Y-56095000D01*
X141116256Y-56095000D01*
X141549418Y-56008839D01*
X142040625Y-55680625D01*
X142368839Y-55189418D01*
X142475980Y-54650782D01*
X142750001Y-54924804D01*
X142750000Y-83592560D01*
X141390000Y-83592560D01*
X141142235Y-83641843D01*
X140932191Y-83782191D01*
X140791843Y-83992235D01*
X140742560Y-84240000D01*
X140742560Y-85940000D01*
X140791843Y-86187765D01*
X140932191Y-86397809D01*
X141142235Y-86538157D01*
X141187619Y-86547184D01*
X141169375Y-86559375D01*
X140841161Y-87050582D01*
X140725908Y-87630000D01*
X140841161Y-88209418D01*
X141169375Y-88700625D01*
X141467761Y-88900000D01*
X141169375Y-89099375D01*
X140841161Y-89590582D01*
X140725908Y-90170000D01*
X140841161Y-90749418D01*
X141169375Y-91240625D01*
X141488478Y-91453843D01*
X141358642Y-91514817D01*
X140968355Y-91943076D01*
X140798524Y-92353110D01*
X140919845Y-92583000D01*
X142113000Y-92583000D01*
X142113000Y-92563000D01*
X142367000Y-92563000D01*
X142367000Y-92583000D01*
X143560155Y-92583000D01*
X143681476Y-92353110D01*
X143511645Y-91943076D01*
X143121358Y-91514817D01*
X142991522Y-91453843D01*
X143310625Y-91240625D01*
X143638839Y-90749418D01*
X143754092Y-90170000D01*
X143681209Y-89803592D01*
X143994473Y-89490329D01*
X144057929Y-89447929D01*
X144225904Y-89196537D01*
X144270000Y-88974852D01*
X144270000Y-88974848D01*
X144284888Y-88900001D01*
X144270000Y-88825154D01*
X144270000Y-54684846D01*
X144284888Y-54609999D01*
X144270000Y-54535152D01*
X144270000Y-54535148D01*
X144225904Y-54313463D01*
X144100330Y-54125528D01*
X144100329Y-54125526D01*
X144100327Y-54125524D01*
X144057929Y-54062071D01*
X143994476Y-54019673D01*
X142411209Y-52436408D01*
X142484092Y-52070000D01*
X142368839Y-51490582D01*
X142040625Y-50999375D01*
X141742239Y-50800000D01*
X142040625Y-50600625D01*
X142368839Y-50109418D01*
X142484092Y-49530000D01*
X142368839Y-48950582D01*
X142040625Y-48459375D01*
X141549418Y-48131161D01*
X141116256Y-48045000D01*
X140823744Y-48045000D01*
X140603592Y-48088791D01*
X140290331Y-47775530D01*
X140247929Y-47712071D01*
X139996537Y-47544096D01*
X139774852Y-47500000D01*
X139774847Y-47500000D01*
X139700000Y-47485112D01*
X139625153Y-47500000D01*
X132154848Y-47500000D01*
X132080000Y-47485112D01*
X132005152Y-47500000D01*
X132005148Y-47500000D01*
X131831605Y-47534520D01*
X131783462Y-47544096D01*
X131621111Y-47652576D01*
X131532071Y-47712071D01*
X131489671Y-47775527D01*
X121435528Y-57829671D01*
X121372072Y-57872071D01*
X121329672Y-57935527D01*
X121329671Y-57935528D01*
X121204097Y-58123463D01*
X121145112Y-58420000D01*
X121160001Y-58494852D01*
X121160000Y-63185198D01*
X120973886Y-63371312D01*
X120791333Y-63335000D01*
X120508667Y-63335000D01*
X120090091Y-63418260D01*
X119615423Y-63735423D01*
X119380000Y-64087758D01*
X119144577Y-63735423D01*
X118669909Y-63418260D01*
X118251333Y-63335000D01*
X117968667Y-63335000D01*
X117550091Y-63418260D01*
X117075423Y-63735423D01*
X116840000Y-64087758D01*
X116604577Y-63735423D01*
X116330000Y-63551957D01*
X116330000Y-54924801D01*
X122823593Y-48431209D01*
X123043744Y-48475000D01*
X123336256Y-48475000D01*
X123769418Y-48388839D01*
X124260625Y-48060625D01*
X124473843Y-47741522D01*
X124534817Y-47871358D01*
X124963076Y-48261645D01*
X125373110Y-48431476D01*
X125603000Y-48310155D01*
X125603000Y-47117000D01*
X125583000Y-47117000D01*
X125583000Y-46863000D01*
X125603000Y-46863000D01*
X125603000Y-45669845D01*
X125857000Y-45669845D01*
X125857000Y-46863000D01*
X125877000Y-46863000D01*
X125877000Y-47117000D01*
X125857000Y-47117000D01*
X125857000Y-48310155D01*
X126086890Y-48431476D01*
X126496924Y-48261645D01*
X126801261Y-47984292D01*
X126821843Y-48087765D01*
X126962191Y-48297809D01*
X127172235Y-48438157D01*
X127420000Y-48487440D01*
X129120000Y-48487440D01*
X129367765Y-48438157D01*
X129577809Y-48297809D01*
X129718157Y-48087765D01*
X129767440Y-47840000D01*
X129767440Y-46140000D01*
X129718157Y-45892235D01*
X129577809Y-45682191D01*
X129367765Y-45541843D01*
X129120000Y-45492560D01*
X127420000Y-45492560D01*
X127172235Y-45541843D01*
X126962191Y-45682191D01*
X126821843Y-45892235D01*
X126801261Y-45995708D01*
X126496924Y-45718355D01*
X126086890Y-45548524D01*
X125857000Y-45669845D01*
X125603000Y-45669845D01*
X125373110Y-45548524D01*
X124963076Y-45718355D01*
X124534817Y-46108642D01*
X124473843Y-46238478D01*
X124260625Y-45919375D01*
X123769418Y-45591161D01*
X123336256Y-45505000D01*
X123043744Y-45505000D01*
X122610582Y-45591161D01*
X122119375Y-45919375D01*
X121920000Y-46217761D01*
X121720625Y-45919375D01*
X121229418Y-45591161D01*
X120796256Y-45505000D01*
X120503744Y-45505000D01*
X120070582Y-45591161D01*
X119579375Y-45919375D01*
X119380000Y-46217761D01*
X119180625Y-45919375D01*
X118689418Y-45591161D01*
X118256256Y-45505000D01*
X117963744Y-45505000D01*
X117530582Y-45591161D01*
X117039375Y-45919375D01*
X116840000Y-46217761D01*
X116640625Y-45919375D01*
X116149418Y-45591161D01*
X115716256Y-45505000D01*
X115423744Y-45505000D01*
X114990582Y-45591161D01*
X114499375Y-45919375D01*
X114300000Y-46217761D01*
X114100625Y-45919375D01*
X113609418Y-45591161D01*
X113176256Y-45505000D01*
X112883744Y-45505000D01*
X112450582Y-45591161D01*
X111959375Y-45919375D01*
X111760000Y-46217761D01*
X111560625Y-45919375D01*
X111069418Y-45591161D01*
X110636256Y-45505000D01*
X110343744Y-45505000D01*
X110123593Y-45548791D01*
X108540331Y-43965530D01*
X108497929Y-43902071D01*
X108246537Y-43734096D01*
X108024852Y-43690000D01*
X108024847Y-43690000D01*
X107950000Y-43675112D01*
X107875153Y-43690000D01*
X101674848Y-43690000D01*
X101600000Y-43675112D01*
X101525152Y-43690000D01*
X101525148Y-43690000D01*
X101351605Y-43724520D01*
X101303462Y-43734096D01*
X101116418Y-43859076D01*
X101052071Y-43902071D01*
X101009671Y-43965527D01*
X95860000Y-49115199D01*
X95860000Y-44923661D01*
X96167201Y-45230862D01*
X96804887Y-45495000D01*
X97495113Y-45495000D01*
X98132799Y-45230862D01*
X98620862Y-44742799D01*
X98885000Y-44105113D01*
X98885000Y-43414887D01*
X98620862Y-42777201D01*
X98313661Y-42470000D01*
X141976339Y-42470000D01*
X141679138Y-42767201D01*
G04 #@! TD*
M02*
