G04 #@! TF.GenerationSoftware,KiCad,Pcbnew,5.0.2+dfsg1-1~bpo9+1*
G04 #@! TF.CreationDate,2019-05-23T13:43:39+01:00*
G04 #@! TF.ProjectId,pcb01,70636230-312e-46b6-9963-61645f706362,rev?*
G04 #@! TF.SameCoordinates,Original*
G04 #@! TF.FileFunction,Copper,L2,Bot*
G04 #@! TF.FilePolarity,Positive*
%FSLAX46Y46*%
G04 Gerber Fmt 4.6, Leading zero omitted, Abs format (unit mm)*
G04 Created by KiCad (PCBNEW 5.0.2+dfsg1-1~bpo9+1) date Thu 23 May 2019 13:43:39 BST*
%MOMM*%
%LPD*%
G01*
G04 APERTURE LIST*
G04 #@! TA.AperFunction,ComponentPad*
%ADD10R,1.600000X1.600000*%
G04 #@! TD*
G04 #@! TA.AperFunction,ComponentPad*
%ADD11O,1.600000X1.600000*%
G04 #@! TD*
G04 #@! TA.AperFunction,ComponentPad*
%ADD12C,1.600000*%
G04 #@! TD*
G04 #@! TA.AperFunction,ComponentPad*
%ADD13O,1.700000X1.700000*%
G04 #@! TD*
G04 #@! TA.AperFunction,ComponentPad*
%ADD14R,1.700000X1.700000*%
G04 #@! TD*
G04 #@! TA.AperFunction,Conductor*
%ADD15C,0.250000*%
G04 #@! TD*
G04 #@! TA.AperFunction,Conductor*
%ADD16C,0.500000*%
G04 #@! TD*
G04 APERTURE END LIST*
D10*
G04 #@! TO.P,TB2,1*
G04 #@! TO.N,Net-(SW2-Pad1)*
X100330000Y-80010000D03*
D11*
G04 #@! TO.P,TB2,17*
G04 #@! TO.N,Net-(TB2-Pad17)*
X133350000Y-64770000D03*
G04 #@! TO.P,TB2,2*
G04 #@! TO.N,Net-(SW2-Pad4)*
X102870000Y-80010000D03*
G04 #@! TO.P,TB2,18*
G04 #@! TO.N,Net-(TB2-Pad18)*
X130810000Y-64770000D03*
G04 #@! TO.P,TB2,3*
G04 #@! TO.N,N/C*
X105410000Y-80010000D03*
G04 #@! TO.P,TB2,19*
G04 #@! TO.N,Net-(R4-Pad1)*
X128270000Y-64770000D03*
G04 #@! TO.P,TB2,4*
G04 #@! TO.N,COM/GND*
X107950000Y-80010000D03*
G04 #@! TO.P,TB2,20*
G04 #@! TO.N,Net-(TB2-Pad20)*
X125730000Y-64770000D03*
G04 #@! TO.P,TB2,5*
G04 #@! TO.N,Net-(TB2-Pad5)*
X110490000Y-80010000D03*
G04 #@! TO.P,TB2,21*
G04 #@! TO.N,Net-(SW2-Pad3)*
X123190000Y-64770000D03*
G04 #@! TO.P,TB2,6*
G04 #@! TO.N,Net-(TB1-Pad16)*
X113030000Y-80010000D03*
G04 #@! TO.P,TB2,22*
G04 #@! TO.N,Net-(SW2-Pad6)*
X120650000Y-64770000D03*
G04 #@! TO.P,TB2,7*
G04 #@! TO.N,Net-(TB1-Pad15)*
X115570000Y-80010000D03*
G04 #@! TO.P,TB2,23*
G04 #@! TO.N,Net-(TB2-Pad23)*
X118110000Y-64770000D03*
G04 #@! TO.P,TB2,8*
G04 #@! TO.N,Net-(TB1-Pad14)*
X118110000Y-80010000D03*
G04 #@! TO.P,TB2,24*
G04 #@! TO.N,Net-(TB2-Pad24)*
X115570000Y-64770000D03*
G04 #@! TO.P,TB2,9*
G04 #@! TO.N,Net-(TB1-Pad13)*
X120650000Y-80010000D03*
G04 #@! TO.P,TB2,25*
G04 #@! TO.N,Net-(TB2-Pad25)*
X113030000Y-64770000D03*
G04 #@! TO.P,TB2,10*
G04 #@! TO.N,Net-(TB1-Pad12)*
X123190000Y-80010000D03*
G04 #@! TO.P,TB2,26*
G04 #@! TO.N,Net-(TB2-Pad26)*
X110490000Y-64770000D03*
G04 #@! TO.P,TB2,11*
G04 #@! TO.N,Net-(TB1-Pad11)*
X125730000Y-80010000D03*
G04 #@! TO.P,TB2,27*
G04 #@! TO.N,+5V*
X107950000Y-64770000D03*
G04 #@! TO.P,TB2,12*
G04 #@! TO.N,Net-(TB1-Pad10)*
X128270000Y-80010000D03*
G04 #@! TO.P,TB2,28*
G04 #@! TO.N,Net-(TB2-Pad28)*
X105410000Y-64770000D03*
G04 #@! TO.P,TB2,13*
G04 #@! TO.N,Net-(TB2-Pad13)*
X130810000Y-80010000D03*
G04 #@! TO.P,TB2,29*
G04 #@! TO.N,COM/GND*
X102870000Y-64770000D03*
G04 #@! TO.P,TB2,14*
G04 #@! TO.N,Net-(TB2-Pad14)*
X133350000Y-80010000D03*
G04 #@! TO.P,TB2,30*
G04 #@! TO.N,Net-(J2-Pad1)*
X100330000Y-64770000D03*
G04 #@! TO.P,TB2,15*
G04 #@! TO.N,Net-(TB2-Pad15)*
X135890000Y-80010000D03*
G04 #@! TO.P,TB2,16*
G04 #@! TO.N,Net-(TB2-Pad16)*
X135890000Y-64770000D03*
G04 #@! TD*
D12*
G04 #@! TO.P,C1,1*
G04 #@! TO.N,Net-(C1-Pad1)*
X101600000Y-105410000D03*
G04 #@! TO.P,C1,2*
G04 #@! TO.N,COM/GND*
X106600000Y-105410000D03*
G04 #@! TD*
D13*
G04 #@! TO.P,J1,4*
G04 #@! TO.N,Net-(J1-Pad4)*
X128270000Y-106680000D03*
G04 #@! TO.P,J1,3*
G04 #@! TO.N,Net-(J1-Pad3)*
X125730000Y-106680000D03*
G04 #@! TO.P,J1,2*
G04 #@! TO.N,Net-(J1-Pad2)*
X123190000Y-106680000D03*
D14*
G04 #@! TO.P,J1,1*
G04 #@! TO.N,Net-(J1-Pad1)*
X120650000Y-106680000D03*
G04 #@! TD*
G04 #@! TO.P,J3,1*
G04 #@! TO.N,/VBatt*
X102870000Y-46990000D03*
D13*
G04 #@! TO.P,J3,2*
G04 #@! TO.N,COM/GND*
X105410000Y-46990000D03*
G04 #@! TD*
D10*
G04 #@! TO.P,TB1,1*
G04 #@! TO.N,Net-(C1-Pad1)*
X113030000Y-100330000D03*
D11*
G04 #@! TO.P,TB1,9*
G04 #@! TO.N,COM/GND*
X130810000Y-85090000D03*
G04 #@! TO.P,TB1,2*
G04 #@! TO.N,+5V*
X115570000Y-100330000D03*
G04 #@! TO.P,TB1,10*
G04 #@! TO.N,Net-(TB1-Pad10)*
X128270000Y-85090000D03*
G04 #@! TO.P,TB1,3*
G04 #@! TO.N,COM/GND*
X118110000Y-100330000D03*
G04 #@! TO.P,TB1,11*
G04 #@! TO.N,Net-(TB1-Pad11)*
X125730000Y-85090000D03*
G04 #@! TO.P,TB1,4*
G04 #@! TO.N,Net-(J1-Pad1)*
X120650000Y-100330000D03*
G04 #@! TO.P,TB1,12*
G04 #@! TO.N,Net-(TB1-Pad12)*
X123190000Y-85090000D03*
G04 #@! TO.P,TB1,5*
G04 #@! TO.N,Net-(J1-Pad2)*
X123190000Y-100330000D03*
G04 #@! TO.P,TB1,13*
G04 #@! TO.N,Net-(TB1-Pad13)*
X120650000Y-85090000D03*
G04 #@! TO.P,TB1,6*
G04 #@! TO.N,Net-(J1-Pad3)*
X125730000Y-100330000D03*
G04 #@! TO.P,TB1,14*
G04 #@! TO.N,Net-(TB1-Pad14)*
X118110000Y-85090000D03*
G04 #@! TO.P,TB1,7*
G04 #@! TO.N,Net-(J1-Pad4)*
X128270000Y-100330000D03*
G04 #@! TO.P,TB1,15*
G04 #@! TO.N,Net-(TB1-Pad15)*
X115570000Y-85090000D03*
G04 #@! TO.P,TB1,8*
G04 #@! TO.N,COM/GND*
X130810000Y-100330000D03*
G04 #@! TO.P,TB1,16*
G04 #@! TO.N,Net-(TB1-Pad16)*
X113030000Y-85090000D03*
G04 #@! TD*
D13*
G04 #@! TO.P,U1,8*
G04 #@! TO.N,Net-(TB2-Pad5)*
X110490000Y-46990000D03*
G04 #@! TO.P,U1,7*
G04 #@! TO.N,Net-(U1-Pad7)*
X113030000Y-46990000D03*
G04 #@! TO.P,U1,6*
G04 #@! TO.N,Net-(U1-Pad6)*
X115570000Y-46990000D03*
G04 #@! TO.P,U1,5*
G04 #@! TO.N,Net-(U1-Pad5)*
X118110000Y-46990000D03*
G04 #@! TO.P,U1,4*
G04 #@! TO.N,Net-(TB2-Pad23)*
X120650000Y-46990000D03*
G04 #@! TO.P,U1,3*
G04 #@! TO.N,Net-(TB2-Pad24)*
X123190000Y-46990000D03*
G04 #@! TO.P,U1,2*
G04 #@! TO.N,COM/GND*
X125730000Y-46990000D03*
D14*
G04 #@! TO.P,U1,1*
G04 #@! TO.N,+5V*
X128270000Y-46990000D03*
G04 #@! TD*
G04 #@! TO.P,J2,1*
G04 #@! TO.N,Net-(J2-Pad1)*
X133350000Y-54610000D03*
D13*
G04 #@! TO.P,J2,2*
G04 #@! TO.N,Net-(C1-Pad1)*
X133350000Y-52070000D03*
G04 #@! TO.P,J2,3*
G04 #@! TO.N,+5V*
X133350000Y-49530000D03*
G04 #@! TD*
D14*
G04 #@! TO.P,SW2,1*
G04 #@! TO.N,Net-(SW2-Pad1)*
X138430000Y-54610000D03*
D13*
G04 #@! TO.P,SW2,2*
G04 #@! TO.N,Net-(R1-Pad1)*
X138430000Y-52070000D03*
G04 #@! TO.P,SW2,3*
G04 #@! TO.N,Net-(SW2-Pad3)*
X138430000Y-49530000D03*
G04 #@! TO.P,SW2,4*
G04 #@! TO.N,Net-(SW2-Pad4)*
X140970000Y-54610000D03*
G04 #@! TO.P,SW2,5*
G04 #@! TO.N,Net-(SW2-Pad5)*
X140970000Y-52070000D03*
G04 #@! TO.P,SW2,6*
G04 #@! TO.N,Net-(SW2-Pad6)*
X140970000Y-49530000D03*
G04 #@! TD*
D14*
G04 #@! TO.P,SW1,1*
G04 #@! TO.N,/VBatt*
X102870000Y-58420000D03*
D13*
G04 #@! TO.P,SW1,2*
G04 #@! TO.N,Net-(C1-Pad1)*
X100330000Y-58420000D03*
G04 #@! TO.P,SW1,3*
G04 #@! TO.N,Net-(SW1-Pad3)*
X97790000Y-58420000D03*
G04 #@! TO.P,SW1,4*
G04 #@! TO.N,N/C*
X102870000Y-55880000D03*
G04 #@! TO.P,SW1,5*
X100330000Y-55880000D03*
G04 #@! TO.P,SW1,6*
X97790000Y-55880000D03*
G04 #@! TD*
D11*
G04 #@! TO.P,R1,2*
G04 #@! TO.N,COM/GND*
X138430000Y-107950000D03*
D12*
G04 #@! TO.P,R1,1*
G04 #@! TO.N,Net-(R1-Pad1)*
X138430000Y-97790000D03*
G04 #@! TD*
G04 #@! TO.P,R2,1*
G04 #@! TO.N,Net-(R2-Pad1)*
X138430000Y-85090000D03*
D11*
G04 #@! TO.P,R2,2*
G04 #@! TO.N,Net-(R1-Pad1)*
X138430000Y-95250000D03*
G04 #@! TD*
D14*
G04 #@! TO.P,U2,1*
G04 #@! TO.N,Net-(U2-Pad1)*
X142240000Y-85090000D03*
D13*
G04 #@! TO.P,U2,2*
G04 #@! TO.N,Net-(R2-Pad1)*
X142240000Y-87630000D03*
G04 #@! TO.P,U2,3*
G04 #@! TO.N,Net-(SW2-Pad5)*
X142240000Y-90170000D03*
G04 #@! TO.P,U2,4*
G04 #@! TO.N,COM/GND*
X142240000Y-92710000D03*
G04 #@! TO.P,U2,5*
G04 #@! TO.N,+5V*
X142240000Y-95250000D03*
G04 #@! TO.P,U2,6*
G04 #@! TO.N,Net-(U2-Pad6)*
X142240000Y-97790000D03*
G04 #@! TD*
D11*
G04 #@! TO.P,R3,2*
G04 #@! TO.N,COM/GND*
X134620000Y-107950000D03*
D12*
G04 #@! TO.P,R3,1*
G04 #@! TO.N,Net-(C1-Pad1)*
X134620000Y-97790000D03*
G04 #@! TD*
G04 #@! TO.P,R4,1*
G04 #@! TO.N,Net-(R4-Pad1)*
X134620000Y-85090000D03*
D11*
G04 #@! TO.P,R4,2*
G04 #@! TO.N,Net-(C1-Pad1)*
X134620000Y-95250000D03*
G04 #@! TD*
D15*
G04 #@! TO.N,Net-(R1-Pad1)*
X141344003Y-53245001D02*
X139605001Y-53245001D01*
X143415001Y-55315999D02*
X141344003Y-53245001D01*
X143415001Y-95814001D02*
X143415001Y-55315999D01*
X139605001Y-53245001D02*
X138430000Y-52070000D01*
X138430000Y-97790000D02*
X138430000Y-95825010D01*
X142804001Y-96425001D02*
X139794999Y-96425001D01*
X143415001Y-95814001D02*
X142804001Y-96425001D01*
X139794999Y-96425001D02*
X138430000Y-97790000D01*
G04 #@! TO.N,Net-(R2-Pad1)*
X140970000Y-87630000D02*
X138430000Y-85090000D01*
X142240000Y-87630000D02*
X140970000Y-87630000D01*
D16*
G04 #@! TO.N,+5V*
X109200001Y-83800001D02*
X109200001Y-66020001D01*
X107950000Y-64770000D02*
X109200001Y-66020001D01*
X133350000Y-49530000D02*
X132080000Y-49530000D01*
X132080000Y-49530000D02*
X129540000Y-46990000D01*
X129540000Y-46990000D02*
X128270000Y-46990000D01*
X135350011Y-51530011D02*
X133350000Y-49530000D01*
X135350011Y-55119991D02*
X128240002Y-62230000D01*
X135350011Y-51530011D02*
X135350011Y-55119991D01*
X110490000Y-62230000D02*
X107950000Y-64770000D01*
X128240002Y-62230000D02*
X110490000Y-62230000D01*
X140989999Y-93999999D02*
X119399999Y-93999999D01*
X119399999Y-93999999D02*
X119380000Y-93980000D01*
X142240000Y-95250000D02*
X140989999Y-93999999D01*
X119380000Y-93980000D02*
X109200001Y-83800001D01*
X119380000Y-93980000D02*
X115570000Y-97790000D01*
X115570000Y-97790000D02*
X115570000Y-100330000D01*
D15*
G04 #@! TO.N,Net-(TB1-Pad10)*
X128270000Y-85090000D02*
X128270000Y-80010000D01*
G04 #@! TO.N,Net-(TB1-Pad11)*
X125730000Y-85090000D02*
X125730000Y-80010000D01*
G04 #@! TO.N,Net-(TB1-Pad12)*
X123190000Y-85090000D02*
X123190000Y-80010000D01*
G04 #@! TO.N,Net-(TB1-Pad13)*
X120650000Y-85090000D02*
X120650000Y-80010000D01*
G04 #@! TO.N,Net-(TB1-Pad14)*
X118110000Y-85090000D02*
X118110000Y-80010000D01*
G04 #@! TO.N,Net-(TB1-Pad15)*
X115570000Y-85090000D02*
X115570000Y-80010000D01*
G04 #@! TO.N,Net-(TB1-Pad16)*
X113030000Y-85090000D02*
X113030000Y-80010000D01*
D16*
G04 #@! TO.N,Net-(J1-Pad1)*
X120650000Y-100330000D02*
X120650000Y-106680000D01*
G04 #@! TO.N,Net-(J1-Pad2)*
X123190000Y-100330000D02*
X123190000Y-106680000D01*
G04 #@! TO.N,Net-(J1-Pad3)*
X125730000Y-100330000D02*
X125730000Y-106680000D01*
G04 #@! TO.N,Net-(J1-Pad4)*
X128270000Y-100330000D02*
X128270000Y-106680000D01*
G04 #@! TO.N,Net-(C1-Pad1)*
X101630001Y-59720001D02*
X104109999Y-59720001D01*
X100330000Y-58420000D02*
X101630001Y-59720001D01*
X101600000Y-105410000D02*
X106680000Y-100330000D01*
X106680000Y-100330000D02*
X97790000Y-91440000D01*
X99480001Y-59269999D02*
X100330000Y-58420000D01*
X97790000Y-60960000D02*
X99480001Y-59269999D01*
X97790000Y-91440000D02*
X97790000Y-60960000D01*
X113030000Y-100330000D02*
X106680000Y-100330000D01*
X111760000Y-52070000D02*
X104109999Y-59720001D01*
X133350000Y-52070000D02*
X111760000Y-52070000D01*
D15*
X134620000Y-97790000D02*
X134620000Y-104140000D01*
X134620000Y-104140000D02*
X129540000Y-109220000D01*
X129540000Y-109220000D02*
X115570000Y-109220000D01*
X113030000Y-106680000D02*
X113030000Y-100330000D01*
X115570000Y-109220000D02*
X113030000Y-106680000D01*
X134620000Y-97790000D02*
X134620000Y-95825010D01*
D16*
G04 #@! TO.N,Net-(J2-Pad1)*
X101580001Y-63519999D02*
X101129999Y-63970001D01*
X115384002Y-54610000D02*
X106474003Y-63519999D01*
X101129999Y-63970001D02*
X100330000Y-64770000D01*
X106474003Y-63519999D02*
X101580001Y-63519999D01*
X133350000Y-54610000D02*
X115384002Y-54610000D01*
G04 #@! TD*
M02*
